<svg width="750" height="500" viewBox="0 0 750 500" fill="none" xmlns="http://www.w3.org/2000/svg">
<path d="M145.953 453.007C145.953 453.007 46.0663 433.25 40.9743 363.453C35.1133 283.12 115.725 282.234 103.359 224.004C86.0993 142.729 119.852 94.3179 195.479 97.6569C259.249 100.472 310.396 149.021 348.503 109.587C388.112 68.5989 452.779 26.9669 520.887 55.6459C588.996 84.3249 578.962 177.517 626.065 197.319C673.168 217.121 724.177 269.349 715.962 341.599C708.255 409.383 645.743 454.418 587.819 453.735C559.433 453.4 449.259 454.11 350.249 453.735C247.216 453.346 145.953 453.007 145.953 453.007Z" fill="#FFF4FF"/>
<path d="M642.516 183.266C642.516 183.266 624.055 147.682 655.563 130.549C689.482 112.105 715.485 146.368 707.478 174.58C699.472 202.79 652.345 201.538 642.516 183.266Z" fill="#FFF4FF"/>
<path d="M59.1795 209.532C59.1795 209.532 43.5495 197.806 54.8165 182.244C66.0825 166.682 93.1675 174.633 88.8395 193.394C86.8675 201.944 75.8225 220.698 59.1795 209.532Z" fill="#FFF4FF"/>
<path d="M578.209 453.303C570.001 453.88 536.856 454.41 542.724 426.336C545.721 411.998 538.094 410.417 530.722 403.189C523.349 395.962 524.232 392.394 526.487 384.479C528.742 376.564 518.588 379.269 516.626 367.358C514.664 355.446 522.094 345.482 534.952 345.546C547.81 345.61 544.926 358.95 549.115 363.876C553.304 368.802 559.794 364.265 564.086 376.005C568.378 387.745 562.122 394.759 570.349 399.347C571.82 400.167 573.382 401.318 574.962 402.708" stroke="#FF02F0" stroke-miterlimit="10"/>
<path d="M564.418 421.371C558.075 408.469 551.364 395.748 544.318 383.216C541.913 378.938 539.467 374.682 536.985 370.448C536.497 369.616 535.2 370.37 535.69 371.205C543.605 384.707 551.137 398.434 558.243 412.379C559.893 415.617 561.519 418.867 563.122 422.128C563.548 422.995 564.842 422.235 564.418 421.371Z" fill="#FF02F0"/>
<path d="M531.584 394.488C537.046 395.054 542.508 395.621 547.971 396.188C548.757 396.27 549.544 396.351 550.33 396.433C551.289 396.532 551.282 395.032 550.33 394.933C544.868 394.367 539.406 393.8 533.943 393.233C533.157 393.151 532.37 393.07 531.584 392.988C530.624 392.888 530.631 394.389 531.584 394.488Z" fill="#FF02F0"/>
<path d="M538.134 384.983C538.134 386.34 536.865 387.439 535.3 387.439C533.735 387.439 532.466 386.339 532.466 384.983C532.466 383.627 533.735 382.527 535.3 382.527C536.865 382.527 538.134 383.627 538.134 384.983Z" stroke="#FF02F0" stroke-miterlimit="10"/>
<path d="M544.449 362.904C543.666 364.259 541.933 364.724 540.577 363.941C539.221 363.158 538.757 361.425 539.54 360.07C540.323 358.714 542.056 358.25 543.412 359.032C544.767 359.815 545.231 361.548 544.449 362.904Z" stroke="#FF02F0" stroke-miterlimit="10"/>
<path d="M555.861 427.214C555.861 428.905 554.279 430.275 552.329 430.275C550.378 430.275 548.796 428.905 548.796 427.214C548.796 425.523 550.378 424.153 552.329 424.153C554.279 424.152 555.861 425.523 555.861 427.214Z" stroke="#FF02F0" stroke-miterlimit="10"/>
<path d="M538.132 356.906C538.828 356.906 539.392 356.342 539.392 355.646C539.392 354.95 538.828 354.386 538.132 354.386C537.436 354.386 536.872 354.95 536.872 355.646C536.872 356.342 537.436 356.906 538.132 356.906Z" stroke="#FF02F0" stroke-miterlimit="10"/>
<path d="M626.496 450.578C619.7 445.732 619.031 414.999 646.884 408.779C661.109 405.602 658.83 398.481 661.704 389.322C664.578 380.163 668.185 379.489 676.328 378.246C684.471 377.003 678.357 365.904 688.022 359.477C697.687 353.05 710.66 352.556 715.493 366.604C719.585 378.498 707.994 383.737 705.63 389.268C703.266 394.799 710.143 402.267 701.757 410.607C693.371 418.948 684.402 412.669 684.292 421.502C684.183 430.335 680.257 446.429 671.743 449.74C661.21 453.837 631.86 454.403 626.496 450.578Z" stroke="#FF02F0" stroke-miterlimit="10"/>
<path d="M635.971 454.086C639.743 449.586 643.659 445.203 647.439 440.708C656.782 429.597 665.906 418.301 674.817 406.841C681.301 398.503 687.669 390.076 693.904 381.551C694.475 380.771 693.174 380.022 692.609 380.794C682.142 395.104 671.305 409.141 660.159 422.928C653.181 431.56 646.087 440.101 638.838 448.507C637.535 450.017 636.191 451.497 634.91 453.026C634.294 453.761 635.35 454.827 635.971 454.086Z" fill="#FF02F0"/>
<path d="M645.428 409.134C644.802 403.991 643.99 398.952 643.526 394.267C641.642 375.219 667.896 383.733 678.353 359.289C688.81 334.845 663.21 325.962 675.25 315.733C687.289 305.504 690.65 270.356 673.015 264.312C650.153 256.476 629.605 270.809 626.812 289.688C624.658 304.251 634.421 314.421 609.011 325.096C583.6 335.771 587.526 349.028 592.746 374.382C597.966 399.736 580.794 390.44 567.448 411.842C556.873 428.801 571.735 446.098 578.361 452.549L629.793 453.432" stroke="#FF02F0" stroke-miterlimit="10"/>
<path d="M588.85 452.555C590.946 447.717 593.051 442.883 595.158 438.049C600.328 426.185 605.517 414.328 610.725 402.48C617.362 387.382 624.029 372.297 630.749 357.236C637.238 342.693 643.767 328.168 650.429 313.704C655.146 303.462 659.842 293.183 665.019 283.162C665.404 282.416 665.794 281.673 666.19 280.933C666.646 280.082 665.351 279.324 664.895 280.176C659.971 289.366 655.642 298.891 651.259 308.346C644.708 322.479 638.307 336.681 631.946 350.899C625.15 366.091 618.413 381.309 611.708 396.541C606.233 408.979 600.78 421.428 595.347 433.884C592.782 439.767 590.054 445.609 587.656 451.563C587.624 451.642 587.588 451.719 587.554 451.797C587.175 452.675 588.467 453.44 588.85 452.555Z" fill="#FF02F0"/>
<path d="M635.704 345.476C645.761 344.92 655.817 344.363 665.874 343.807C667.312 343.727 668.75 343.648 670.188 343.568C671.148 343.515 671.154 342.015 670.188 342.068C660.131 342.624 650.075 343.181 640.018 343.737C638.58 343.817 637.142 343.896 635.704 343.976C634.744 344.029 634.738 345.53 635.704 345.476Z" fill="#FF02F0"/>
<path d="M600.886 424.017C608.817 423.125 616.748 422.233 624.678 421.341C625.813 421.213 626.947 421.086 628.082 420.958C629.03 420.851 629.041 419.35 628.082 419.458C620.151 420.35 612.22 421.242 604.29 422.134C603.155 422.262 602.021 422.389 600.886 422.517C599.938 422.624 599.927 424.125 600.886 424.017Z" fill="#FF02F0"/>
<path d="M597.643 337.771C599.92 342.882 602.197 347.993 604.474 353.104C608.109 361.263 611.744 369.423 615.379 377.582C616.221 379.472 617.063 381.362 617.905 383.252C618.297 384.132 619.59 383.37 619.2 382.495C616.923 377.384 614.646 372.273 612.369 367.162C608.734 359.003 605.099 350.843 601.464 342.684C600.622 340.794 599.78 338.904 598.938 337.014C598.546 336.134 597.253 336.896 597.643 337.771Z" fill="#FF02F0"/>
<path d="M647.409 285.516C645.723 287.993 642.787 288.934 640.851 287.616C638.915 286.299 638.713 283.222 640.4 280.745C642.086 278.268 645.022 277.327 646.958 278.645C648.893 279.962 649.095 283.038 647.409 285.516Z" stroke="#FF02F0" stroke-miterlimit="10"/>
<path d="M648.646 298.91C648.646 300.219 647.584 301.281 646.275 301.281C644.966 301.281 643.904 300.22 643.904 298.91C643.904 297.6 644.966 296.539 646.275 296.539C647.585 296.539 648.646 297.6 648.646 298.91Z" stroke="#FF02F0" stroke-miterlimit="10"/>
<path d="M665.836 360.059C665.836 362.603 663.773 364.666 661.229 364.666C658.685 364.666 656.622 362.603 656.622 360.059C656.622 357.515 658.685 355.452 661.229 355.452C663.773 355.452 665.836 357.515 665.836 360.059Z" stroke="#FF02F0" stroke-miterlimit="10"/>
<path d="M328.636 453.428C329.945 448.71 329.981 443.458 330.568 438.998C331.837 429.349 345.798 437.295 354.787 426.754C363.775 416.213 350.233 408.179 358.376 404.863C366.519 401.547 372.055 386.4 363.429 379.224C352.764 370.351 337.81 376.217 333.889 385.114C330.864 391.977 335.194 398.38 319.352 400.004C303.51 401.628 304.122 408.716 303.984 421.947C303.847 435.177 295.173 428.145 284.908 436.775C279.09 441.666 280.69 448.502 283.168 453.508" stroke="#FF02F0" stroke-miterlimit="10"/>
<path d="M297.31 454.378C305.1 445.377 312.914 436.397 320.763 427.448C329.665 417.299 338.588 407.164 347.702 397.204C350.963 393.641 354.217 390.048 357.687 386.684C358.381 386.011 357.32 384.951 356.626 385.623C349.213 392.809 342.442 400.718 335.577 408.417C326.302 418.821 317.118 429.307 307.966 439.818C304.053 444.311 300.148 448.811 296.249 453.316C295.62 454.044 296.677 455.11 297.31 454.378Z" fill="#FF02F0"/>
<path d="M331.997 414.21C337.808 415.372 343.619 416.535 349.429 417.697C350.268 417.865 351.107 418.033 351.947 418.201C352.89 418.39 353.293 416.944 352.346 416.755C346.535 415.593 340.724 414.43 334.914 413.268C334.075 413.1 333.236 412.932 332.396 412.764C331.453 412.575 331.049 414.02 331.997 414.21Z" fill="#FF02F0"/>
<path d="M310.984 404.725C312.729 412.101 314.474 419.477 316.219 426.852C316.469 427.907 316.718 428.961 316.968 430.016C317.19 430.955 318.637 430.558 318.414 429.617C316.669 422.241 314.924 414.865 313.179 407.49C312.929 406.435 312.68 405.38 312.43 404.326C312.208 403.388 310.761 403.785 310.984 404.725Z" fill="#FF02F0"/>
<path d="M346.179 386.005C344.91 386.984 343.115 387.027 342.171 386.101C341.227 385.176 341.49 383.632 342.759 382.653C344.028 381.674 345.823 381.631 346.767 382.556C347.711 383.482 347.448 385.026 346.179 386.005Z" stroke="#FF02F0" stroke-miterlimit="10"/>
<path d="M347.535 425.344C347.222 426.597 345.789 427.318 344.334 426.954C342.879 426.59 341.954 425.28 342.267 424.027C342.58 422.774 344.013 422.054 345.468 422.417C346.923 422.781 347.849 424.091 347.535 425.344Z" stroke="#FF02F0" stroke-miterlimit="10"/>
<path d="M87.3305 452.495C81.8555 453.929 57.0984 458.038 57.4944 438.315C57.6964 428.242 54.7604 428.608 48.8574 424.661C42.9544 420.713 43.0985 418.189 43.6155 412.553C44.1325 406.916 38.5144 409.646 34.7724 402.234C30.2954 393.367 35.6854 386.751 44.3854 385.159C53.0854 383.567 52.8325 392.951 56.2905 395.748C59.7485 398.545 64.5294 392.53 71.1724 400.686C75.5094 406.01 68.7754 418.157 75.1554 417.025" stroke="#FF02F0" stroke-miterlimit="10"/>
<path d="M75.9234 434.934C67.4234 423.449 58.4464 412.319 49.0674 401.54C48.4324 400.81 47.3754 401.875 48.0064 402.601C57.3014 413.283 66.2034 424.309 74.6284 435.691C75.1964 436.459 76.4984 435.711 75.9234 434.934Z" fill="#FF02F0"/>
<path d="M61.4802 401.024C61.1662 405.717 60.8532 410.411 60.5392 415.105C60.4952 415.768 60.4502 416.431 60.4062 417.094C60.6562 416.844 60.9062 416.594 61.1562 416.344C56.8502 416.701 52.5442 417.057 48.2382 417.414C47.2832 417.493 47.2742 418.994 48.2382 418.914C52.5442 418.557 56.8502 418.201 61.1562 417.844C61.5812 417.809 61.8772 417.528 61.9062 417.094C62.2202 412.4 62.5332 407.707 62.8472 403.013C62.8912 402.35 62.9362 401.687 62.9802 401.024C63.0442 400.06 61.5442 400.064 61.4802 401.024Z" fill="#FF02F0"/>
<path d="M48.6667 335.858C37.8677 327.062 35.2857 299.89 50.6717 291.64C69.6947 281.439 89.6087 297.227 92.1137 313.462C94.0467 325.985 85.2877 334.73 108.081 343.91C130.873 353.09 127.352 364.489 122.67 386.292C117.988 408.094 133.391 400.101 145.361 418.504C154.847 433.087 141.516 447.961 135.573 453.509L88.9527 453.282C87.4427 452.392 85.9947 451.399 84.6347 450.286C69.5787 437.98 75.5597 418.535 77.1227 403.391C78.8127 387.011 55.2637 394.333 45.8847 373.313C36.5037 352.293 59.4657 344.654 48.6667 335.858Z" stroke="#FF02F0" stroke-miterlimit="10"/>
<path d="M127.392 452.81C125.523 448.674 123.646 444.542 121.768 440.41C117.124 430.194 112.464 419.985 107.787 409.784C101.82 396.771 95.8268 383.77 89.7858 370.791C83.9538 358.261 78.0868 345.747 72.1008 333.29C67.8938 324.535 63.7038 315.749 59.0978 307.195C58.7438 306.537 58.3858 305.882 58.0208 305.23C57.5498 304.387 56.2538 305.143 56.7258 305.987C61.1168 313.845 64.9898 322.008 68.9068 330.108C74.7928 342.279 80.5448 354.514 86.2618 366.766C92.3708 379.857 98.4268 392.973 104.455 406.101C109.372 416.81 114.269 427.528 119.149 438.255C120.711 441.688 122.271 445.122 123.829 448.558C124.545 450.136 125.156 451.843 126.003 453.357C126.04 453.423 126.067 453.498 126.098 453.568C126.494 454.445 127.787 453.683 127.392 452.81Z" fill="#FF02F0"/>
<path d="M84.137 360.04C75.109 359.561 66.081 359.082 57.053 358.604C55.771 358.536 54.489 358.468 53.207 358.4C52.242 358.349 52.245 359.849 53.207 359.9C62.235 360.379 71.263 360.858 80.291 361.336C81.573 361.404 82.855 361.472 84.137 361.54C85.102 361.591 85.099 360.091 84.137 360.04Z" fill="#FF02F0"/>
<path d="M115.368 427.578C105.199 426.481 95.0294 425.385 84.8604 424.288C83.4354 424.134 82.0094 423.981 80.5844 423.827C79.6254 423.724 79.6334 425.224 80.5844 425.327C90.7534 426.424 100.923 427.52 111.092 428.617C112.517 428.771 113.943 428.924 115.368 429.078C116.327 429.182 116.319 427.681 115.368 427.578Z" fill="#FF02F0"/>
<path d="M117.049 354.105C115.004 358.506 112.959 362.908 110.913 367.309C107.651 374.328 104.39 381.347 101.128 388.366C100.377 389.982 99.6261 391.599 98.8751 393.215C98.4711 394.085 99.7631 394.848 100.17 393.972C102.215 389.571 104.26 385.169 106.306 380.768C109.568 373.749 112.829 366.73 116.091 359.711C116.842 358.095 117.593 356.478 118.344 354.862C118.748 353.992 117.456 353.23 117.049 354.105Z" fill="#FF02F0"/>
<path d="M73.6377 309.874C75.1507 312.004 77.7837 312.813 79.5197 311.68C81.2557 310.547 81.4367 307.902 79.9247 305.771C78.4117 303.641 75.7787 302.832 74.0427 303.965C72.3067 305.099 72.1257 307.744 73.6377 309.874Z" stroke="#FF02F0" stroke-miterlimit="10"/>
<path d="M72.5283 321.392C72.5283 322.518 73.4803 323.431 74.6553 323.431C75.8293 323.431 76.7823 322.518 76.7823 321.392C76.7823 320.266 75.8303 319.353 74.6553 319.353C73.4803 319.353 72.5283 320.266 72.5283 321.392Z" stroke="#FF02F0" stroke-miterlimit="10"/>
<path d="M57.1094 373.975C57.1094 376.163 58.9594 377.936 61.2414 377.936C63.5234 377.936 65.3734 376.162 65.3734 373.975C65.3734 371.787 63.5234 370.014 61.2414 370.014C58.9594 370.014 57.1094 371.787 57.1094 373.975Z" stroke="#FF02F0" stroke-miterlimit="10"/>
<path d="M154.603 453.355C155.536 452.805 156.431 452.191 157.272 451.504C166.577 443.899 162.88 431.881 161.915 422.522C160.871 412.399 175.424 416.924 181.221 403.933C187.018 390.942 172.827 386.221 179.501 380.785C186.175 375.349 187.771 358.556 178.262 353.457C166.505 347.153 154.198 356.91 152.65 366.943C151.456 374.682 156.868 380.087 142.782 385.76C137.945 387.708 135.025 389.818 133.394 392.295" stroke="#FF02F0" stroke-miterlimit="10"/>
<path d="M147.002 420.57C154.689 403.861 162.345 387.119 170.532 370.647C171.898 367.898 173.271 365.149 174.767 362.468C175.238 361.624 173.943 360.867 173.472 361.711C170.384 367.248 167.677 373.009 164.93 378.72C160.829 387.248 156.818 395.819 152.83 404.401C150.445 409.534 148.072 414.672 145.707 419.813C145.306 420.684 146.598 421.447 147.002 420.57Z" fill="#FF02F0"/>
<path d="M157.579 396.943C163.149 396.648 168.719 396.352 174.289 396.057C175.091 396.014 175.893 395.972 176.695 395.929C177.655 395.878 177.661 394.378 176.695 394.429C171.125 394.724 165.555 395.02 159.985 395.315C159.183 395.358 158.381 395.4 157.579 395.443C156.619 395.494 156.613 396.995 157.579 396.943Z" fill="#FF02F0"/>
<path d="M147.253 437.716C150.902 437.323 154.55 436.929 158.199 436.536C158.724 436.479 159.249 436.423 159.775 436.366C160.725 436.264 160.735 434.763 159.775 434.866C156.126 435.259 152.478 435.653 148.829 436.046C148.304 436.103 147.779 436.159 147.253 436.216C146.304 436.318 146.293 437.819 147.253 437.716Z" fill="#FF02F0"/>
<path d="M136.191 392.674C139.472 399.734 142.752 406.793 146.032 413.853C146.496 414.85 146.959 415.848 147.423 416.845C147.829 417.72 149.122 416.959 148.717 416.088C145.436 409.028 142.157 401.969 138.876 394.909C138.412 393.912 137.948 392.914 137.484 391.917C137.079 391.043 135.787 391.803 136.191 392.674Z" fill="#FF02F0"/>
<path d="M164.068 364.726C163.133 366.042 161.506 366.542 160.433 365.842C159.36 365.142 159.248 363.507 160.183 362.19C161.118 360.874 162.745 360.374 163.818 361.074C164.89 361.774 165.002 363.409 164.068 364.726Z" stroke="#FF02F0" stroke-miterlimit="10"/>
<path d="M174.283 404.342C174.283 405.694 173.14 406.79 171.729 406.79C170.318 406.79 169.175 405.694 169.175 404.342C169.175 402.99 170.318 401.894 171.729 401.894C173.139 401.893 174.283 402.99 174.283 404.342Z" stroke="#FF02F0" stroke-miterlimit="10"/>
<path d="M209.762 113.951H196.368V201.976H209.762V113.951Z" fill="#FF02F0"/>
<path d="M245.035 130.256H231.64V201.977H245.035V130.256Z" fill="#FF02F0"/>
<path d="M192.126 140.913H178.732V201.977H192.126V140.913Z" fill="#6FBBEF"/>
<path d="M227.398 120.833H214.004V201.977H227.398V120.833Z" fill="#6FBBEF"/>
<path d="M262.669 139.161H249.274V201.976H262.669V139.161Z" fill="#6FBBEF"/>
<path d="M280.305 112.189H266.91V201.976H280.305V112.189Z" fill="#FF02F0"/>
<path d="M348.949 120.829C329.421 122.403 314.06 138.737 314.06 158.671C314.06 178.605 329.421 194.939 348.949 196.513V120.829Z" fill="#FF02F0" stroke="#FF02F0" stroke-miterlimit="10"/>
<path d="M353.404 120.728V196.614C373.744 195.893 390.015 179.187 390.015 158.671C390.014 138.155 373.744 121.449 353.404 120.728Z" fill="#6FBBEF" stroke="#6FBBEF" stroke-miterlimit="10"/>
<path d="M197.482 214.04H269.382" stroke="#FF02F0" stroke-width="2" stroke-miterlimit="10" stroke-linecap="round"/>
<path d="M204.966 221.205H260.33" stroke="#FF02F0" stroke-width="2" stroke-miterlimit="10" stroke-linecap="round"/>
<path d="M318.458 220.826H378.549" stroke="#FF02F0" stroke-width="2" stroke-miterlimit="10" stroke-linecap="round"/>
<path d="M310.468 230.157H376.126" stroke="#FF02F0" stroke-width="2" stroke-miterlimit="10" stroke-linecap="round"/>
<path d="M310.468 239.487H370.499" stroke="#FF02F0" stroke-width="2" stroke-miterlimit="10" stroke-linecap="round"/>
<path d="M310.468 248.818H374.427" stroke="#FF02F0" stroke-width="2" stroke-miterlimit="10" stroke-linecap="round"/>
<path d="M413.14 70.351H162.17C160.514 70.351 159.172 69.009 159.172 67.353C159.172 65.697 160.514 64.355 162.17 64.355H413.14C414.796 64.355 416.138 65.697 416.138 67.353C416.138 69.008 414.795 70.351 413.14 70.351Z" fill="#FF02F0"/>
<path d="M407.24 70.3511H167.137V257.343H407.24V70.3511Z" stroke="#FF02F0" stroke-miterlimit="10"/>
<path d="M413.14 262.799H162.17C160.514 262.799 159.172 261.457 159.172 259.801C159.172 258.145 160.514 256.803 162.17 256.803H413.14C414.796 256.803 416.138 258.145 416.138 259.801C416.138 261.457 414.795 262.799 413.14 262.799Z" fill="#FF02F0"/>
<path d="M306.93 55.5649H343.563C348.243 55.5649 352.038 59.1709 352.038 63.6199V77.8349V82.8069V98.3809L343.422 90.8619H306.93C302.25 90.8619 298.456 87.2559 298.456 82.8069V63.6199C298.455 59.1709 302.249 55.5649 306.93 55.5649Z" fill="#FFF4FF" stroke="#FF02F0" stroke-miterlimit="10"/>
<path d="M333.629 73.8528C333.629 75.7868 335.279 77.3548 337.314 77.3548C339.349 77.3548 340.999 75.7868 340.999 73.8528C340.999 71.9188 339.349 70.3508 337.314 70.3508C335.278 70.3508 333.629 71.9188 333.629 73.8528Z" fill="#FF02F0"/>
<path d="M320.812 73.8528C320.812 75.7868 322.462 77.3548 324.497 77.3548C326.532 77.3548 328.182 75.7868 328.182 73.8528C328.182 71.9188 326.532 70.3508 324.497 70.3508C322.462 70.3508 320.812 71.9188 320.812 73.8528Z" fill="#FF02F0"/>
<path d="M307.994 73.8528C307.994 75.7868 309.644 77.3548 311.679 77.3548C313.714 77.3548 315.364 75.7868 315.364 73.8528C315.364 71.9188 313.714 70.3508 311.679 70.3508C309.644 70.3508 307.994 71.9188 307.994 73.8528Z" fill="#FF02F0"/>
<path d="M285.817 116.576C285.817 116.576 278.805 107.167 279.262 104.364C279.719 101.561 282.845 102.46 284.468 104.515C286.091 106.57 291.412 113.657 291.51 114.241C291.607 114.826 285.817 116.576 285.817 116.576Z" fill="#A66957"/>
<path d="M298.915 116.912C295.886 113.663 293.389 111.064 291.126 111.905C289.938 112.346 287.826 113.722 286.363 115.327C285.951 115.027 285.557 114.8 285.211 114.697C283.154 114.082 281.441 115.328 281.585 117.805C280.398 117.375 278.294 118.362 279.127 121.305L278.856 120.975C277.949 120.597 275.321 121.832 276.48 124.8C277.639 127.767 281.156 130.058 282.71 129.588C283.003 129.499 283.223 129.363 283.414 129.211L283.378 129.256L300.548 146.542L312.653 134.874C312.653 134.874 301.944 120.161 298.915 116.912Z" fill="#A66957"/>
<path d="M311.901 133.228C309.425 130.069 306.95 126.911 304.474 123.753C301.544 120.015 298.592 116.253 295.026 113.115C294.314 112.489 293.504 111.859 292.557 111.829C292.046 111.813 291.547 111.976 291.065 112.149C289.554 112.692 288.049 113.371 286.9 114.493C285.751 115.615 285.007 117.257 285.308 118.834C285.416 119.402 285.689 119.981 286.197 120.255C286.798 120.579 287.538 120.394 288.183 120.168C289.76 119.615 291.266 118.859 292.652 117.925" stroke="#7F4040" stroke-width="0.75" stroke-miterlimit="10" stroke-linecap="round"/>
<path d="M290.544 120.196C291.349 121.253 290.922 123.009 289.72 123.578C289.005 123.917 288.148 123.851 287.412 123.558C286.677 123.266 286.043 122.767 285.449 122.244C283.807 120.799 282.349 119.076 281.565 117.033" stroke="#7F4040" stroke-width="0.75" stroke-miterlimit="10" stroke-linecap="round"/>
<path d="M287.675 124.395C287.372 125.554 286.894 126.859 285.768 127.265C285.122 127.498 284.386 127.364 283.779 127.042C283.172 126.721 282.674 126.228 282.211 125.72C280.853 124.226 279.722 122.524 278.871 120.693" stroke="#7F4040" stroke-width="0.75" stroke-miterlimit="10" stroke-linecap="round"/>
<path d="M284.289 127.945C284.197 129.048 283.068 129.949 281.972 129.795C281.457 129.723 280.99 129.457 280.556 129.169C278.731 127.955 277.248 126.233 276.319 124.248" stroke="#7F4040" stroke-width="0.75" stroke-miterlimit="10" stroke-linecap="round"/>
<path d="M301.392 163.632L291.975 150.71L312.655 131.731L322.838 145.418L301.392 163.632Z" fill="#FFF4FF" stroke="#6FBBEF" stroke-miterlimit="10"/>
<path d="M390.699 133.228L343.533 160.423L318.115 135.309L291.511 159.258C291.511 159.258 318.627 200.299 333.529 209.461C348.201 218.482 369.096 210.195 381.495 193.275C393.894 176.355 390.699 133.228 390.699 133.228Z" fill="#420A81" fill-opacity="0.98"/>
<path d="M347.803 164.643L318.114 135.309L291.51 159.258C291.51 159.258 318.626 200.299 333.528 209.461C348.2 218.482 369.095 210.195 381.494 193.275" stroke="#8777D9" stroke-miterlimit="10" stroke-linecap="round"/>
<path d="M368.431 396.85L363.846 421.851L379.8 426.882L386.3 398.981L368.431 396.85Z" fill="#A66957"/>
<path d="M325.691 452.849L384.509 452.57L386.697 418.225L358.415 419.556L354.664 433.365L325.691 452.849Z" fill="#420A81" fill-opacity="0.98"/>
<path d="M342.342 438.398C343.407 440.744 344.473 443.091 345.538 445.437C345.69 445.773 345.843 446.109 345.995 446.444C346.134 446.75 346.581 446.828 346.85 446.668C347.165 446.482 347.215 446.123 347.074 445.813C346.009 443.467 344.943 441.12 343.878 438.774C343.726 438.438 343.573 438.102 343.421 437.767C343.282 437.461 342.835 437.384 342.566 437.543C342.251 437.729 342.202 438.088 342.342 438.398Z" fill="#FFF4FF"/>
<path d="M347.741 435.419C348.806 437.765 349.872 440.112 350.937 442.458C351.089 442.794 351.242 443.13 351.394 443.465C351.533 443.771 351.98 443.848 352.249 443.689C352.564 443.503 352.614 443.144 352.473 442.834C351.408 440.488 350.342 438.141 349.277 435.795C349.125 435.459 348.972 435.124 348.82 434.788C348.681 434.482 348.234 434.405 347.965 434.564C347.65 434.75 347.601 435.109 347.741 435.419Z" fill="#FFF4FF"/>
<path d="M456.707 396.85L461.293 421.851L445.339 426.882L438.838 398.981L456.707 396.85Z" fill="#A66957"/>
<path d="M499.445 452.849L440.627 452.57L438.44 418.225H466.36L470.472 433.365L499.445 452.849Z" fill="#420A81" fill-opacity="0.98"/>
<path d="M481.717 437.767C480.652 440.113 479.586 442.46 478.521 444.806C478.369 445.142 478.216 445.478 478.064 445.813C477.923 446.122 477.978 446.482 478.288 446.668C478.555 446.828 479.004 446.75 479.143 446.444C480.208 444.098 481.274 441.751 482.339 439.405C482.491 439.069 482.644 438.733 482.796 438.398C482.936 438.088 482.882 437.729 482.572 437.543C482.305 437.383 481.856 437.46 481.717 437.767Z" fill="#FFF4FF"/>
<path d="M476.317 434.788C475.252 437.134 474.186 439.481 473.121 441.827C472.969 442.163 472.816 442.498 472.664 442.834C472.523 443.144 472.578 443.503 472.888 443.689C473.155 443.849 473.604 443.772 473.743 443.465C474.808 441.119 475.874 438.772 476.939 436.426C477.091 436.09 477.244 435.754 477.396 435.419C477.537 435.109 477.482 434.75 477.172 434.564C476.905 434.404 476.456 434.481 476.317 434.788Z" fill="#FFF4FF"/>
<path d="M408.139 275.476L393.514 436.426L346.534 433.473L373.899 220.513L405.626 224.829L408.139 275.476Z" fill="#8777D9"/>
<path d="M405.626 224.829L408.139 275.476L393.831 436.446L346.534 433.473" stroke="#161522" stroke-miterlimit="10" stroke-linecap="round"/>
<path d="M396.026 260.365H406.642L426.979 433.785L471.832 431.785L443.898 221.438H394.473" fill="#8777D9"/>
<path d="M403.277 260.365H406.641L426.978 433.785L471.004 431.822" stroke="#161522" stroke-miterlimit="10" stroke-linecap="round"/>
<path d="M396.777 164.645C396.777 164.645 394.623 146.587 395.521 141.348C396.418 136.109 399.29 130.007 403.867 129.737C408.444 129.468 419.93 129.827 422.084 132.788C424.238 135.749 428.455 139.787 426.93 150.377C425.405 160.966 418.854 199.704 418.854 199.704L414.165 211.04H405.849L396.777 164.645Z" fill="#FFF4FF"/>
<path d="M409.067 127.381V195.892" stroke="#6FBBEF" stroke-miterlimit="10"/>
<path d="M401.205 125.701L395.75 130.927L401.076 144.16L409.107 132.145L416.223 144.16L423.485 130.927L417.519 124.666C417.519 124.666 413.513 131.589 401.205 125.701Z" fill="#FFF4FF" stroke="#6FBBEF" stroke-miterlimit="10"/>
<path d="M417.337 108.475V97.153C417.337 90.653 412.666 85.335 406.956 85.335H398.369C392.66 85.335 387.988 90.653 387.988 97.153V110.465C387.988 116.965 392.659 122.284 398.369 122.284H401.12V127.844C401.12 130.648 403.393 132.921 406.197 132.921H412.357C415.161 132.921 417.434 130.648 417.434 127.844V123.16V121.351V120.9V112.796V109.437C417.434 109.108 417.397 108.788 417.337 108.475Z" fill="#A66957"/>
<path d="M416.138 103.794C416.138 103.794 414.196 92.579 413.673 94.235C412.927 96.598 413.016 109.682 410.478 110.832C407.119 112.354 405.884 106.607 399.119 106.376C392.354 106.145 388.465 109.471 387.808 112.179C387.151 114.887 390.635 118.748 392.76 120.521C395.424 122.745 403.154 122.282 403.154 122.282C403.154 122.282 409.849 122.688 412.649 118.737C415.562 114.628 416.138 103.794 416.138 103.794Z" fill="#161522"/>
<path d="M404.991 101.503C404.991 102.572 404.125 103.439 403.055 103.439C401.986 103.439 401.119 102.572 401.119 101.503C401.119 100.434 401.986 99.5669 403.055 99.5669C404.124 99.5669 404.991 100.434 404.991 101.503Z" fill="#161522"/>
<path d="M392.318 101.219C392.318 102.132 391.578 102.871 390.666 102.871C389.753 102.871 389.014 102.131 389.014 101.219C389.014 100.307 389.754 99.5669 390.666 99.5669C391.578 99.5669 392.318 100.307 392.318 101.219Z" fill="#161522"/>
<path d="M402.399 98.0979C402.628 98.0999 402.857 98.1109 403.085 98.1339C403.134 98.1389 403.183 98.1449 403.231 98.1499C403.35 98.1639 403.184 98.1409 403.293 98.1589C403.406 98.1779 403.519 98.1959 403.631 98.2189C404.065 98.3059 404.488 98.4349 404.898 98.6009C405.141 98.6989 405.458 98.4939 405.513 98.2519C405.579 97.9629 405.424 97.7419 405.164 97.6369C404.288 97.2839 403.343 97.1049 402.398 97.0989C402.136 97.0969 401.886 97.3299 401.898 97.5989C401.912 97.8699 402.119 98.0959 402.399 98.0979Z" fill="#161522"/>
<path d="M389.803 98.424C389.952 98.335 390.105 98.253 390.262 98.178C390.304 98.158 390.346 98.139 390.388 98.12C390.417 98.107 390.514 98.056 390.396 98.115C390.473 98.077 390.558 98.05 390.639 98.02C390.96 97.903 391.291 97.817 391.628 97.76C391.887 97.716 392.055 97.384 391.977 97.145C391.887 96.866 391.639 96.749 391.362 96.796C390.636 96.92 389.931 97.185 389.298 97.561C389.073 97.694 388.972 98.017 389.119 98.245C389.265 98.471 389.562 98.567 389.803 98.424Z" fill="#161522"/>
<path d="M395.803 99.863C394.949 101.268 394.198 102.732 393.554 104.245C393.487 104.402 393.538 104.551 393.703 104.612C394.453 104.89 395.202 105.168 395.952 105.446C396.254 105.558 396.384 105.075 396.085 104.964C395.335 104.686 394.586 104.408 393.836 104.13C393.886 104.252 393.936 104.375 393.985 104.497C394.628 102.984 395.38 101.52 396.234 100.115C396.403 99.84 395.971 99.588 395.803 99.863Z" fill="#161522"/>
<path d="M394.895 111.095C394.895 111.095 397.791 110.804 400.642 109.265C400.642 109.265 401.009 112.169 398.821 112.811C395.847 113.683 394.895 111.095 394.895 111.095Z" fill="#FFF4FF"/>
<path d="M414.905 106.158L413.32 95.7311C413.32 95.7311 384.472 99.3471 375.12 85.3341C365.768 71.3211 375.595 65.7731 380.351 66.5661C385.106 67.3591 390.666 74.1741 390.666 74.1741C390.666 74.1741 386.24 68.1511 390.666 67.2001C395.092 66.2491 399.981 70.8461 402.53 75.6011C402.53 75.6011 421.545 73.8281 427.973 85.3341C434.401 96.8401 429.191 105.003 417.434 116.891L416.362 110.242L414.905 106.158Z" fill="#161522"/>
<path d="M427.972 106.377C427.972 110.122 424.911 113.158 421.135 113.158C417.359 113.158 414.298 110.122 414.298 106.377C414.298 102.632 417.359 99.5959 421.135 99.5959C424.911 99.5949 427.972 102.632 427.972 106.377Z" fill="#A66957"/>
<path d="M417.85 107.272C417.841 107.126 417.846 106.978 417.854 106.832C417.858 106.764 417.863 106.696 417.87 106.628C417.874 106.59 417.878 106.553 417.882 106.515C417.898 106.371 417.871 106.567 417.89 106.456C417.921 106.267 417.956 106.08 418.004 105.895C418.029 105.799 418.058 105.703 418.089 105.609C418.107 105.555 418.126 105.502 418.146 105.449C418.157 105.42 418.223 105.264 418.181 105.358C418.279 105.137 418.393 104.925 418.531 104.727C418.548 104.703 418.645 104.576 418.589 104.646C418.625 104.601 418.662 104.557 418.701 104.514C418.788 104.417 418.881 104.325 418.979 104.239C418.999 104.221 419.129 104.12 419.067 104.165C419.117 104.128 419.169 104.092 419.221 104.057C419.342 103.978 419.469 103.909 419.599 103.847C419.681 103.808 419.66 103.817 419.77 103.777C419.852 103.747 419.935 103.72 420.019 103.696C420.176 103.651 420.387 103.606 420.512 103.589C420.959 103.527 421.418 103.543 421.866 103.589C422.088 103.612 422.279 103.383 422.279 103.176C422.279 102.934 422.089 102.786 421.866 102.763C420.471 102.618 418.957 102.898 418.027 104.034C417.415 104.782 417.123 105.717 417.04 106.669C417.023 106.868 417.011 107.071 417.024 107.271C417.058 107.8 417.884 107.804 417.85 107.272Z" fill="#7F4040"/>
<path d="M421.507 128.381L455.48 148.682L456.42 197.562L462.678 277.859C462.678 277.859 455.302 282.373 441.934 280.752C437.625 280.23 433.087 279.777 427.458 277.406C404.367 267.68 408.312 254.792 408.312 254.792L408.369 181.864C408.369 181.864 425.718 142.403 421.507 128.381Z" fill="#420A81" fill-opacity="0.98"/>
<path d="M407.737 204.961L408.369 259.682C408.369 259.682 410.581 273.763 433.44 279.166C456.299 284.569 462.678 277.859 462.678 277.859C462.678 277.859 454.809 184.537 455.664 179.72" stroke="#8777D9" stroke-miterlimit="10" stroke-linecap="round"/>
<path d="M454.112 245.25C447.936 242.339 441.88 239.227 435.961 235.922" stroke="#8777D9" stroke-miterlimit="10" stroke-linecap="round"/>
<path d="M431.569 140.165C438.048 152.336 439.154 157.706 439.154 157.706H426.846L433.255 171.846L408.369 204.96" stroke="#8777D9" stroke-miterlimit="10" stroke-linecap="round"/>
<path d="M397.612 128.381L366.475 148.682V196.769L359.878 277.859C359.878 277.859 365.925 282.46 378.155 280.853C382.112 280.333 386.984 279.784 392.157 277.406C413.32 267.68 409.704 254.792 409.704 254.792L409.652 181.864C409.652 181.864 393.753 142.403 397.612 128.381Z" fill="#420A81" fill-opacity="0.98"/>
<path d="M405.966 206.639C405.966 207.773 405.109 208.693 404.051 208.693C402.993 208.693 402.136 207.773 402.136 206.639C402.136 205.505 402.993 204.585 404.051 204.585C405.109 204.585 405.966 205.505 405.966 206.639Z" stroke="#8777D9" stroke-miterlimit="10"/>
<path d="M405.966 221.758C405.966 222.892 405.109 223.812 404.051 223.812C402.993 223.812 402.136 222.892 402.136 221.758C402.136 220.624 402.993 219.704 404.051 219.704C405.109 219.704 405.966 220.623 405.966 221.758Z" stroke="#8777D9" stroke-miterlimit="10"/>
<path d="M405.966 236.876C405.966 238.01 405.109 238.93 404.051 238.93C402.993 238.93 402.136 238.01 402.136 236.876C402.136 235.742 402.993 234.822 404.051 234.822C405.109 234.822 405.966 235.742 405.966 236.876Z" stroke="#8777D9" stroke-miterlimit="10"/>
<path d="M366.252 193.921C367.036 198.738 359.878 277.858 359.878 277.858C359.878 277.858 365.725 284.568 386.675 279.165C407.625 273.762 409.653 259.681 409.653 259.681L409.063 180.242" stroke="#8777D9" stroke-miterlimit="10" stroke-linecap="round"/>
<path d="M367.32 245.249C372.981 242.339 378.531 239.226 383.956 235.921" stroke="#8777D9" stroke-miterlimit="10" stroke-linecap="round"/>
<path d="M388.389 140.165C382.451 152.337 381.437 157.706 381.437 157.706H392.717L386.843 171.846L409.234 203.422" stroke="#8777D9" stroke-miterlimit="10" stroke-linecap="round"/>
<path d="M401.602 195.452C401.602 195.452 395.989 190.445 396.774 188.834C397.967 186.387 406.968 192.751 409.021 193.7C411.074 194.649 417.127 198.759 419.557 200.5C421.987 202.241 427.014 204.48 427.014 204.48L424.416 218.901C424.416 218.901 406.283 216.63 397.075 214.048C387.867 211.465 380.534 207.363 380.998 205.176C381.462 202.988 383.816 204.874 383.816 204.874C383.816 204.874 380.009 202.44 380.333 201.123C380.657 199.805 384.018 200.857 384.018 200.857C384.018 200.857 379.289 198.393 379.799 196.58C380.309 194.767 386.422 197.54 386.422 197.54C386.422 197.54 381.742 194.619 382.747 193.116C383.752 191.613 391.885 194.951 397.608 197.248C403.329 199.543 403.19 196.977 401.602 195.452Z" fill="#A66957"/>
<path d="M382.63 204.633C385.225 206.167 388.038 207.308 390.968 208.013C391.437 208.126 391.637 207.403 391.167 207.29C388.295 206.599 385.551 205.489 383.008 203.985C382.592 203.739 382.214 204.387 382.63 204.633Z" fill="#7F4040"/>
<path d="M382.172 199.954C385.042 201.449 388.019 202.733 391.075 203.796C391.532 203.955 391.728 203.231 391.274 203.073C388.278 202.031 385.364 200.772 382.55 199.306C382.123 199.084 381.743 199.731 382.172 199.954Z" fill="#7F4040"/>
<path d="M384.499 196.783C387.324 197.924 390.149 199.065 392.974 200.206C393.421 200.387 393.616 199.662 393.173 199.483C390.348 198.342 387.523 197.201 384.698 196.06C384.251 195.879 384.057 196.604 384.499 196.783Z" fill="#7F4040"/>
<path d="M431.106 225.259L415.705 220.963L420.69 194.046L436.632 197.67L431.106 225.259Z" fill="#FFF4FF" stroke="#6FBBEF" stroke-miterlimit="10"/>
<path d="M500.436 203.038C503.807 163.033 424.22 130.003 424.22 130.003L449.178 182.998L458.205 190.188L469.202 190.027L424.608 190.682L417.148 224.521C471.748 251.25 499.145 218.358 500.436 203.038Z" fill="#420A81" fill-opacity="0.98"/>
<path d="M500.436 203.038C499.145 218.358 471.748 251.25 417.148 224.521L424.608 190.682L469.202 190.027" stroke="#8777D9" stroke-miterlimit="10" stroke-linecap="round"/>
<path d="M458.206 190.188L449.179 182.998" stroke="#8777D9" stroke-miterlimit="10" stroke-linecap="round"/>
<path d="M481.165 147.898H517.945C522.644 147.898 526.453 151.519 526.453 155.985V170.257V175.249V190.886L517.802 183.337H481.165C476.466 183.337 472.657 179.716 472.657 175.25V155.986C472.657 151.518 476.466 147.898 481.165 147.898Z" fill="#FFF4FF" stroke="#FF02F0" stroke-miterlimit="10"/>
<path d="M497.441 164.378L497.791 164.736L497.796 164.731L497.801 164.726L497.441 164.378ZM501.612 163.358L501.778 163.83L501.79 163.826L501.612 163.358ZM503.477 161.922L503.073 161.627L503.066 161.636L503.477 161.922ZM503.637 157.16L503.208 157.417L503.215 157.429L503.637 157.16ZM502.053 155.685L501.812 156.123L501.819 156.126L502.053 155.685ZM497.897 155.46L497.716 154.994L497.71 154.997L497.897 155.46ZM496.322 156.403L496.002 156.018L495.997 156.023L496.322 156.403ZM494.927 157.133L495.053 157.617L495.06 157.615L495.067 157.613L494.927 157.133ZM493.332 156.725L493.028 157.121L493.03 157.123L493.332 156.725ZM492.425 155.186L492.924 155.151L492.425 155.186ZM493.119 153.558L493.468 153.916L493.473 153.911L493.119 153.558ZM496.127 151.566L496.314 152.029L496.319 152.027L496.127 151.566ZM504.227 152.047L503.971 152.477L503.98 152.482L504.227 152.047ZM507.357 155.069L506.93 155.328L507.357 155.069ZM507.914 162.505L508.377 162.693L508.378 162.689L507.914 162.505ZM506.359 164.834L506.709 165.191L506.709 165.191L506.359 164.834ZM504.067 166.372L504.265 166.831L504.27 166.829L504.067 166.372ZM501.249 167.158L501.175 166.664L501.099 166.675L501.031 166.708L501.249 167.158ZM501.107 167.228L500.888 166.778L500.815 166.813L500.757 166.87L501.107 167.228ZM500.433 170.206L500.783 170.564L500.788 170.559L500.793 170.554L500.433 170.206ZM497.376 170.172L497.009 170.511L497.014 170.516L497.019 170.522L497.376 170.172ZM497.055 176.603L496.687 176.941L496.698 176.953L496.709 176.964L497.055 176.603ZM497.098 172.835L496.748 172.478L497.098 172.835ZM500.723 172.876L500.355 173.214L500.366 173.225L500.377 173.237L500.723 172.876ZM500.681 176.644L500.332 176.286L500.681 176.644ZM497.32 165.905C497.325 165.41 497.486 165.033 497.791 164.736L497.092 164.021C496.581 164.52 496.328 165.157 496.32 165.894L497.32 165.905ZM497.801 164.726C498.108 164.408 498.485 164.25 498.971 164.255L498.982 163.256C498.237 163.247 497.59 163.504 497.082 164.031L497.801 164.726ZM498.971 164.255C499.992 164.267 500.929 164.128 501.778 163.83L501.446 162.887C500.725 163.14 499.905 163.266 498.982 163.256L498.971 164.255ZM501.79 163.826C502.665 163.492 503.369 162.952 503.887 162.207L503.066 161.636C502.669 162.208 502.13 162.626 501.434 162.891L501.79 163.826ZM503.88 162.217C504.441 161.45 504.704 160.465 504.717 159.305L503.717 159.294C503.706 160.314 503.475 161.077 503.073 161.627L503.88 162.217ZM504.717 159.305C504.727 158.412 504.511 157.601 504.058 156.891L503.215 157.429C503.554 157.96 503.725 158.576 503.717 159.294L504.717 159.305ZM504.065 156.903C503.643 156.199 503.046 155.646 502.288 155.243L501.819 156.126C502.428 156.45 502.886 156.88 503.208 157.417L504.065 156.903ZM502.294 155.247C501.554 154.839 500.714 154.636 499.79 154.626L499.779 155.626C500.561 155.635 501.234 155.805 501.812 156.123L502.294 155.247ZM499.79 154.626C499.066 154.618 498.373 154.74 497.716 154.994L498.077 155.927C498.611 155.72 499.176 155.619 499.779 155.626L499.79 154.626ZM497.71 154.997C497.09 155.247 496.52 155.588 496.002 156.018L496.641 156.787C497.08 156.422 497.561 156.135 498.084 155.924L497.71 154.997ZM495.997 156.023C495.674 156.298 495.275 156.511 494.787 156.654L495.067 157.613C495.673 157.436 496.204 157.162 496.647 156.782L495.997 156.023ZM494.801 156.65C494.463 156.738 494.086 156.668 493.634 156.326L493.03 157.123C493.659 157.599 494.345 157.802 495.053 157.617L494.801 156.65ZM493.637 156.328C493.162 155.964 492.953 155.573 492.924 155.151L491.926 155.22C491.979 155.984 492.374 156.62 493.028 157.121L493.637 156.328ZM492.924 155.151C492.895 154.732 493.049 154.326 493.468 153.916L492.769 153.201C492.183 153.774 491.874 154.454 491.926 155.22L492.924 155.151ZM493.473 153.911C494.288 153.092 495.234 152.465 496.314 152.029L495.94 151.102C494.735 151.588 493.675 152.29 492.764 153.206L493.473 153.911ZM496.319 152.027C497.421 151.569 498.589 151.347 499.827 151.36L499.838 150.361C498.469 150.345 497.167 150.592 495.935 151.104L496.319 152.027ZM499.827 151.36C501.381 151.378 502.758 151.753 503.971 152.477L504.483 151.618C503.106 150.796 501.554 150.38 499.838 150.361L499.827 151.36ZM503.98 152.482C505.227 153.191 506.207 154.138 506.93 155.328L507.785 154.809C506.971 153.47 505.865 152.403 504.474 151.613L503.98 152.482ZM506.93 155.328C507.646 156.507 507.999 157.84 507.982 159.342L508.982 159.353C509.001 157.679 508.605 156.159 507.785 154.809L506.93 155.328ZM507.982 159.342C507.97 160.477 507.788 161.467 507.449 162.32L508.378 162.689C508.771 161.702 508.969 160.587 508.982 159.353L507.982 159.342ZM507.451 162.316C507.11 163.151 506.63 163.869 506.01 164.476L506.709 165.191C507.43 164.486 507.986 163.651 508.377 162.693L507.451 162.316ZM506.01 164.476C505.408 165.065 504.694 165.545 503.863 165.915L504.27 166.829C505.202 166.413 506.017 165.868 506.709 165.191L506.01 164.476ZM503.869 165.913C503.055 166.264 502.158 166.515 501.175 166.664L501.324 167.652C502.383 167.492 503.364 167.219 504.265 166.831L503.869 165.913ZM501.031 166.708C500.983 166.732 500.936 166.755 500.888 166.778L501.325 167.677C501.373 167.654 501.42 167.631 501.468 167.608L501.031 166.708ZM500.757 166.87C500.605 167.019 500.571 167.204 500.57 167.328L501.57 167.339C501.569 167.369 501.56 167.483 501.456 167.585L500.757 166.87ZM500.57 167.328L500.555 168.643L501.555 168.655L501.57 167.339L500.57 167.328ZM500.555 168.643C500.55 169.139 500.388 169.534 500.074 169.859L500.793 170.554C501.294 170.035 501.547 169.391 501.555 168.655L500.555 168.643ZM500.084 169.849C499.779 170.146 499.399 170.299 498.904 170.293L498.892 171.293C499.629 171.302 500.272 171.063 500.783 170.564L500.084 169.849ZM498.904 170.293C498.408 170.288 498.031 170.127 497.734 169.822L497.019 170.522C497.518 171.032 498.156 171.285 498.892 171.293L498.904 170.293ZM497.744 169.833C497.437 169.501 497.284 169.102 497.29 168.607L496.29 168.596C496.281 169.332 496.52 169.981 497.009 170.511L497.744 169.833ZM497.29 168.607L497.32 165.905L496.32 165.894L496.29 168.596L497.29 168.607ZM498.655 176.654C498.052 176.647 497.659 176.488 497.402 176.242L496.709 176.964C497.203 177.437 497.871 177.645 498.643 177.654L498.655 176.654ZM497.424 176.265C497.183 176.003 497.033 175.605 497.04 175.003L496.04 174.992C496.032 175.764 496.225 176.437 496.687 176.941L497.424 176.265ZM497.04 175.003L497.047 174.399L496.047 174.388L496.04 174.992L497.04 175.003ZM497.047 174.399C497.054 173.794 497.213 173.422 497.447 173.193L496.748 172.478C496.263 172.952 496.056 173.618 496.047 174.388L497.047 174.399ZM497.447 173.193C497.711 172.935 498.104 172.778 498.698 172.784L498.709 171.784C497.929 171.776 497.251 171.986 496.748 172.478L497.447 173.193ZM498.698 172.784L499.16 172.789L499.171 171.79L498.709 171.784L498.698 172.784ZM499.16 172.789C499.756 172.796 500.124 172.962 500.355 173.214L501.092 172.538C500.62 172.023 499.95 171.798 499.171 171.79L499.16 172.789ZM500.377 173.237C500.623 173.473 500.781 173.845 500.775 174.44L501.774 174.452C501.783 173.673 501.574 172.998 501.069 172.515L500.377 173.237ZM500.775 174.44L500.768 175.045L501.768 175.056L501.774 174.452L500.775 174.44ZM500.768 175.045C500.761 175.638 500.595 176.028 500.332 176.286L501.031 177.001C501.534 176.509 501.759 175.837 501.768 175.056L500.768 175.045ZM500.332 176.286C500.097 176.515 499.721 176.666 499.117 176.659L499.106 177.659C499.875 177.668 500.546 177.475 501.031 177.001L500.332 176.286ZM499.117 176.659L498.655 176.654L498.643 177.654L499.106 177.659L499.117 176.659Z" fill="#FF02F0"/>
<path d="M517.69 113.508H541.518C544.562 113.508 547.03 115.854 547.03 118.748V127.994V131.228V141.358L541.426 136.467H517.69C514.646 136.467 512.178 134.121 512.178 131.228V118.748C512.178 115.853 514.646 113.508 517.69 113.508Z" stroke="#FF02F0" stroke-miterlimit="10"/>
<path d="M522.448 124.948C522.448 126.061 521.546 126.964 520.432 126.964C519.319 126.964 518.416 126.061 518.416 124.948C518.416 123.835 519.318 122.932 520.432 122.932C521.545 122.932 522.448 123.835 522.448 124.948Z" fill="#FF02F0"/>
<path d="M528.559 126.964C529.672 126.964 530.575 126.062 530.575 124.948C530.575 123.835 529.672 122.932 528.559 122.932C527.446 122.932 526.543 123.835 526.543 124.948C526.543 126.062 527.446 126.964 528.559 126.964Z" fill="#FF02F0"/>
<path d="M538.702 124.948C538.702 126.061 537.8 126.964 536.686 126.964C535.573 126.964 534.67 126.061 534.67 124.948C534.67 123.835 535.572 122.932 536.686 122.932C537.8 122.932 538.702 123.835 538.702 124.948Z" fill="#FF02F0"/>
<path d="M574.225 245.885L624.253 246.147C629.726 246.176 634.028 250.836 633.62 256.293L626.13 356.522C625.756 361.527 621.531 365.366 616.513 365.259L502.336 362.83C496.864 362.714 492.637 357.985 493.133 352.534C493.575 347.67 497.653 343.946 502.537 343.946L549.24 342.818C554.599 342.818 563.579 339.598 563.37 334.243L564.74 255.694C564.53 250.32 568.846 245.857 574.225 245.885Z" fill="#FFF4FF" stroke="#8777D9" stroke-miterlimit="10" stroke-linecap="round"/>
<path d="M619.388 256.853L607.904 341.564" stroke="#8777D9" stroke-miterlimit="10" stroke-linecap="round"/>
<path d="M559.984 340.925C560.118 340.768 592.955 340.925 592.955 340.925" stroke="#8777D9" stroke-miterlimit="10" stroke-linecap="round"/>
<path d="M569.942 412.312H579.207V352.162H569.942V412.312Z" fill="#FFF4FF" stroke="#8777D9" stroke-miterlimit="10"/>
<path d="M571.728 431.517H577.421C579.791 431.517 581.711 429.596 581.711 427.227V384.434C581.711 382.065 579.79 380.144 577.421 380.144H571.728C569.358 380.144 567.438 382.065 567.438 384.434V427.227C567.438 429.596 569.359 431.517 571.728 431.517Z" fill="#8777D9"/>
<path d="M538.015 427.215H540.289H608.86H614.251V433.398V440.355H608.86V433.398H540.289V440.355H534.897V433.398V427.215H538.015Z" fill="#8777D9"/>
<path d="M529.273 443.907C529.273 448.474 532.975 452.177 537.542 452.177C542.109 452.177 545.811 448.475 545.811 443.907C545.811 439.34 542.109 435.638 537.542 435.638C532.975 435.638 529.273 439.34 529.273 443.907Z" fill="#FFF4FF" stroke="#8777D9" stroke-miterlimit="10"/>
<path d="M534.374 443.907C534.374 445.657 535.793 447.076 537.543 447.076C539.293 447.076 540.712 445.657 540.712 443.907C540.712 442.157 539.293 440.738 537.543 440.738C535.793 440.738 534.374 442.158 534.374 443.907Z" fill="#8777D9"/>
<path d="M603.572 443.907C603.572 448.474 607.274 452.177 611.841 452.177C616.408 452.177 620.11 448.475 620.11 443.907C620.11 439.34 616.408 435.638 611.841 435.638C607.274 435.638 603.572 439.34 603.572 443.907Z" fill="#FFF4FF" stroke="#8777D9" stroke-miterlimit="10"/>
<path d="M608.673 443.907C608.673 445.657 610.092 447.076 611.842 447.076C613.592 447.076 615.01 445.657 615.01 443.907C615.01 442.157 613.591 440.738 611.842 440.738C610.091 440.739 608.673 442.158 608.673 443.907Z" fill="#8777D9"/>
<path d="M449.801 390.83L444.354 426.035H468.861L471.832 390.83H449.801Z" fill="#F6C8A6"/>
<path d="M405.328 453.153L473.793 453.848L472.455 420.208L442.081 421.439L438.053 434.207L405.328 453.153Z" fill="#161522"/>
<path d="M424.859 438.884C426.004 441.055 427.149 443.226 428.294 445.397C428.457 445.706 428.62 446.015 428.783 446.323C429.158 447.035 430.238 446.404 429.862 445.692C428.717 443.521 427.572 441.35 426.427 439.179C426.264 438.87 426.101 438.561 425.938 438.253C425.563 437.541 424.483 438.172 424.859 438.884Z" fill="#FFF4FF"/>
<path d="M430.656 436.13C431.801 438.301 432.946 440.472 434.091 442.643C434.254 442.952 434.417 443.261 434.58 443.57C434.955 444.282 436.035 443.651 435.659 442.939C434.514 440.768 433.369 438.597 432.224 436.426C432.061 436.117 431.898 435.808 431.735 435.499C431.36 434.787 430.281 435.418 430.656 436.13Z" fill="#FFF4FF"/>
<path d="M527.814 293.666C527.814 293.666 475.725 292.488 460.978 307.311C451.698 316.638 438.381 401.199 438.381 401.199H487.076L495.033 320.996L544.667 315.825L527.814 293.666Z" fill="#420A81" fill-opacity="0.98"/>
<path d="M438.382 401.198H487.076" stroke="#6FBBEF" stroke-miterlimit="10" stroke-linecap="round"/>
<path d="M488.827 392.009V427.213H513.333L513.492 392.009H488.827Z" fill="#F6C8A6"/>
<path d="M449.801 453.153L518.266 453.848L516.928 420.208L486.553 421.439L482.525 434.207L449.801 453.153Z" fill="#161522"/>
<path d="M486.553 421.439L482.525 434.207L449.801 453.153" stroke="#FFF4FF" stroke-miterlimit="10" stroke-linecap="round"/>
<path d="M469.33 438.884C470.475 441.055 471.62 443.226 472.765 445.397C472.928 445.706 473.091 446.015 473.254 446.323C473.629 447.035 474.709 446.404 474.333 445.692C473.188 443.521 472.043 441.35 470.898 439.179C470.735 438.87 470.572 438.561 470.409 438.253C470.034 437.541 468.955 438.172 469.33 438.884Z" fill="#FFF4FF"/>
<path d="M475.129 436.13C476.274 438.301 477.419 440.472 478.564 442.643C478.727 442.952 478.89 443.261 479.053 443.57C479.428 444.282 480.508 443.651 480.132 442.939C478.987 440.768 477.842 438.597 476.697 436.426C476.534 436.117 476.371 435.808 476.208 435.499C475.833 434.787 474.753 435.418 475.129 436.13Z" fill="#FFF4FF"/>
<path d="M588.203 299.354H547.261C496.956 295.77 476.997 307.897 476.997 326.725C476.997 339.456 479.576 406.69 479.576 406.69L524.262 405.373L521.372 344.334C521.372 344.334 553.593 348.685 573.643 342.946C593.695 337.208 588.203 299.354 588.203 299.354Z" fill="#420A81" fill-opacity="0.98"/>
<path d="M583.047 335.935C580.814 339.225 577.77 341.765 573.644 342.946C553.593 348.684 521.373 344.334 521.373 344.334" stroke="#6FBBEF" stroke-miterlimit="10" stroke-linecap="round"/>
<path d="M524.262 405.373L479.576 406.69C479.576 406.69 476.997 339.455 476.997 326.725C476.997 307.897 496.956 295.771 547.261 299.354" stroke="#6FBBEF" stroke-miterlimit="10" stroke-linecap="round"/>
<path d="M520.975 335.934L522.009 357.778" stroke="#6FBBEF" stroke-miterlimit="10" stroke-linecap="round"/>
<path d="M496.18 202.716C493.884 198.796 492.739 196.919 491.46 197.51C490.181 198.101 490.276 200.583 490.276 200.583C484.884 194.156 480.899 191.8 479.97 193.175C479.676 193.61 479.822 194.183 480.158 194.762C479.089 193.813 477.916 193.344 477.374 194.042C476.721 194.884 477.25 195.78 477.528 196.323C476.135 195.075 474.614 194.608 474.139 196.023C473.713 197.292 474.501 198.427 475.208 199.14C473.653 198.049 472.837 198.735 472.669 199.902C472.47 201.281 474.739 204.484 479.573 210.569C484.407 216.654 493.389 229.419 493.389 229.419L505.738 218.94C505.738 218.94 498.475 206.636 496.18 202.716Z" fill="#F6C8A6"/>
<path d="M490.175 211.96C490.175 211.96 489.996 208.249 490.563 206.887C491.129 205.525 489.53 199.124 490.91 197.76C492.29 196.396 493.895 198.597 494.907 200.487C495.919 202.377 505.014 217.691 505.014 217.691" stroke="#EF8576" stroke-miterlimit="10" stroke-linecap="round"/>
<path d="M474.471 198.684L481.064 205.115" stroke="#EF8576" stroke-miterlimit="10" stroke-linecap="round"/>
<path d="M476.661 195.717L483.31 202.956" stroke="#EF8576" stroke-miterlimit="10" stroke-linecap="round"/>
<path d="M479.89 194.235L485.55 200.888" stroke="#EF8576" stroke-miterlimit="10" stroke-linecap="round"/>
<path d="M495.143 235.805L511.639 220.285L506.204 215.9L492.154 229.125C492.154 229.125 493.265 231.885 495.143 235.805Z" fill="#FFF4FF" stroke="#6FBBEF" stroke-miterlimit="10"/>
<path d="M545.339 244.21L511.338 218.176L493.567 234.903C493.567 234.903 496.102 241.203 500.124 248.904C505.431 259.065 513.512 271.294 521.404 275.454C539.988 285.251 557.486 280.195 569.037 274.487C580.587 268.78 545.339 244.21 545.339 244.21Z" fill="#8777D9"/>
<path d="M545.339 244.21L511.338 218.176L493.568 234.903" stroke="#420A81" stroke-opacity="0.98" stroke-miterlimit="10" stroke-linecap="round" stroke-linejoin="round"/>
<path d="M568.234 207.999C548.289 210.655 538.423 248.79 538.423 248.79L525.269 293.644C525.269 293.644 531.585 305.759 552.329 310.647C577.312 316.533 595.605 307.232 595.605 307.232V248.66L578.962 208L568.234 207.999Z" fill="#8777D9"/>
<path d="M595.814 282.366L595.604 307.231C595.604 307.231 583.315 313.699 562.345 312.598C541.376 311.498 527.018 298.438 524.153 291.914" stroke="#420A81" stroke-opacity="0.98" stroke-miterlimit="10" stroke-linecap="round"/>
<path d="M532.482 264.862C532.482 264.862 542.019 234.916 547.149 226.908" stroke="#420A81" stroke-opacity="0.98" stroke-miterlimit="10" stroke-linecap="round" stroke-linejoin="round"/>
<path d="M635.704 266.683C618.809 217.41 578.961 207.999 578.961 207.999L572.689 209.776L583.608 245.037L592.954 263.541L592.013 263.514L551.296 262.33L549.594 288.526C549.594 288.526 652.946 316.968 635.704 266.683Z" fill="#8777D9"/>
<path d="M635.704 266.683C652.946 316.969 549.594 288.525 549.594 288.525L551.296 262.329L592.013 263.513L598.264 263.695" stroke="#420A81" stroke-opacity="0.98" stroke-miterlimit="10" stroke-linecap="round"/>
<path d="M583.607 245.037L592.954 263.541" stroke="#420A81" stroke-opacity="0.98" stroke-miterlimit="10" stroke-linecap="round"/>
<path d="M560.956 165.766L569.189 165.899C574.663 165.987 579.059 171.158 578.959 177.391L578.753 190.154C578.747 190.514 578.723 190.868 578.688 191.219C578.771 191.597 578.816 191.988 578.81 192.39L578.685 200.16L578.678 200.593L578.553 208.362C578.508 211.182 576.164 213.451 573.345 213.406L570.079 213.353C567.26 213.307 564.99 210.964 565.036 208.144L565.147 201.269L560.386 201.192C554.912 201.104 550.516 195.933 550.616 189.7L550.822 176.937C550.922 170.704 555.483 165.678 560.956 165.766Z" fill="#F6C8A6"/>
<path d="M583.268 190.42C583.268 190.42 590.832 185.441 592.009 176.889C592.009 176.889 592.534 163.817 581.652 158.806C570.77 153.795 559.941 155.559 555.582 157.121C547.407 160.05 543.887 164.814 546.916 171.52C549.17 176.509 560.854 174.099 564.932 171.074C564.932 171.074 565.561 176.315 575.571 177.94L578.783 191.797L578.922 196.318L583.268 190.42Z" fill="#161522"/>
<path d="M567.23 181.372C567.213 182.397 566.369 183.215 565.344 183.198C564.319 183.181 563.502 182.337 563.518 181.312C563.534 180.287 564.379 179.47 565.404 179.486C566.429 179.503 567.247 180.347 567.23 181.372Z" fill="#161522"/>
<path d="M555.084 180.904C555.07 181.779 554.349 182.477 553.474 182.463C552.599 182.449 551.901 181.728 551.915 180.853C551.929 179.978 552.65 179.28 553.525 179.295C554.4 179.309 555.098 180.029 555.084 180.904Z" fill="#161522"/>
<path d="M556.734 188.527C556.734 188.527 557.623 191.26 559.592 191.478C561.561 191.696 563.141 189.536 563.276 187.832L556.734 188.527Z" fill="#FFF4FF"/>
<path d="M573.301 188.031C573.242 190.416 571.26 192.302 568.875 192.242C566.49 192.183 564.604 190.202 564.664 187.816C564.723 185.431 566.705 183.546 569.09 183.605C571.475 183.665 573.361 185.646 573.301 188.031Z" fill="#EF8576"/>
<path d="M551.496 184.591C551.233 184.585 550.978 184.612 550.731 184.665L550.62 189.144C550.604 189.813 550.612 190.461 550.732 191.095C550.912 191.13 551.143 191.161 551.332 191.165C553.147 191.21 554.655 189.775 554.701 187.959C554.747 186.144 553.311 184.636 551.496 184.591Z" fill="#EF8576"/>
<path d="M572.943 180.778C572.882 184.539 570.28 187.548 567.132 187.497C563.983 187.446 561.479 184.356 561.54 180.595C561.601 176.833 564.203 173.825 567.352 173.876C570.5 173.926 573.004 177.016 572.943 180.778Z" stroke="#EB3341" stroke-width="0.75" stroke-miterlimit="10"/>
<path d="M558.063 179.887C558.006 183.414 555.687 186.235 552.882 186.19C550.077 186.145 547.85 183.25 547.907 179.723C547.964 176.197 550.284 173.375 553.088 173.42C555.892 173.465 558.12 176.361 558.063 179.887Z" stroke="#EB3341" stroke-width="0.75" stroke-miterlimit="10"/>
<path d="M572.943 180.778L580.284 182.593" stroke="#EB3341" stroke-width="0.75" stroke-miterlimit="10"/>
<path d="M559.355 178.27C558.864 180.228 557.963 182.065 556.692 183.636C556.522 183.846 556.533 184.131 556.776 184.284C557.672 184.853 558.569 185.421 559.465 185.99C559.915 186.275 560.33 185.561 559.882 185.277C558.986 184.708 558.089 184.14 557.193 183.571C557.221 183.787 557.249 184.003 557.277 184.219C558.639 182.535 559.624 180.591 560.152 178.489C560.281 177.974 559.485 177.754 559.355 178.27Z" fill="#7612FA"/>
<path d="M561.332 181.678C559.343 180.547 557.596 181.533 557.542 181.575L557.6 180.853C557.672 180.793 559.231 179.431 561.782 180.883L561.332 181.678Z" fill="#EB3341"/>
<path d="M552.383 178.183C553.294 177.917 554.201 177.638 555.104 177.347C555.415 177.247 555.648 176.909 555.541 176.578C555.44 176.267 555.105 176.034 554.772 176.141C553.869 176.432 552.962 176.711 552.051 176.977C551.737 177.069 551.509 177.421 551.614 177.746C551.718 178.065 552.047 178.281 552.383 178.183Z" fill="#161522"/>
<path d="M565.037 177.103C566.547 177.724 568.089 178.263 569.656 178.718C569.98 178.812 570.336 178.604 570.425 178.281C570.516 177.951 570.314 177.607 569.988 177.512C568.42 177.057 566.879 176.518 565.369 175.897C565.057 175.769 564.682 176.036 564.6 176.334C564.502 176.693 564.724 176.974 565.037 177.103Z" fill="#161522"/>
<path d="M589.189 186.4C589.131 189.991 586.15 192.854 582.529 192.796C578.909 192.738 576.021 189.779 576.079 186.189C576.137 182.598 579.118 179.735 582.739 179.793C586.359 179.851 589.247 182.809 589.189 186.4Z" fill="#F6C8A6"/>
<path d="M579.488 187.096C579.481 186.958 579.489 186.819 579.498 186.682C579.503 186.616 579.509 186.55 579.516 186.485C579.52 186.449 579.525 186.412 579.529 186.376C579.511 186.526 579.533 186.356 579.538 186.323C579.568 186.14 579.608 185.959 579.658 185.78C579.684 185.687 579.713 185.594 579.746 185.503C579.763 185.456 579.781 185.409 579.799 185.362C579.801 185.357 579.839 185.265 579.813 185.327C579.788 185.385 579.837 185.274 579.842 185.263C579.936 185.059 580.049 184.867 580.177 184.683C580.243 184.588 580.159 184.697 580.233 184.609C580.269 184.566 580.305 184.523 580.343 184.482C580.429 184.388 580.522 184.303 580.617 184.219C580.635 184.204 580.653 184.189 580.672 184.174C580.6 184.232 580.694 184.158 580.703 184.152C580.753 184.117 580.803 184.082 580.855 184.05C580.974 183.976 581.098 183.909 581.227 183.853C581.211 183.86 581.162 183.879 581.239 183.848C581.283 183.83 581.328 183.814 581.373 183.798C581.446 183.773 581.521 183.75 581.596 183.729C581.748 183.688 581.964 183.645 582.071 183.633C582.507 183.582 582.949 183.6 583.384 183.653C583.606 183.68 583.797 183.444 583.797 183.24C583.797 182.995 583.606 182.854 583.384 182.827C582.044 182.666 580.579 182.917 579.67 184C579.071 184.715 578.779 185.61 578.686 186.527C578.667 186.715 578.653 186.907 578.662 187.097C578.687 187.625 579.513 187.628 579.488 187.096Z" fill="#EF8576"/>
<path d="M579 202.906L568.962 206.789L567.163 205.7L564.769 204.232L559.754 211.439C560.785 213.614 565.903 216.644 565.903 216.644L567.132 212.667C567.436 212.827 567.756 212.974 568.083 213.106C568.411 213.255 568.804 213.391 569.25 213.461C569.269 213.464 569.29 213.472 569.309 213.476C569.322 213.478 569.33 213.479 569.342 213.481C569.345 213.481 569.347 213.482 569.349 213.482C570.01 213.588 570.458 213.622 570.759 213.622L571.562 216.645C571.562 216.645 580.671 213.677 583.908 209.776L579 202.906Z" fill="#FFF4FF"/>
<path d="M584 209.775L579.073 202.906L568.982 206.795L571.607 216.645C571.607 216.645 580.75 213.677 584 209.775Z" stroke="#6FBBEF" stroke-width="0.75" stroke-miterlimit="10"/>
<path d="M564.788 204.232L568.982 206.795L565.926 216.645C565.926 216.645 560.788 213.615 559.754 211.44L564.788 204.232Z" stroke="#6FBBEF" stroke-width="0.75" stroke-miterlimit="10"/>
<path d="M567.191 212.568C567.191 212.568 568.835 213.897 570.744 213.405" stroke="#6FBBEF" stroke-width="0.75" stroke-miterlimit="10"/>
<path d="M559.119 215.068C559.119 215.068 563.252 218.408 569.277 218.768C572.939 218.987 577.398 218.354 581.769 214.485" stroke="#161522" stroke-width="0.75" stroke-miterlimit="10" stroke-linecap="round"/>
<path d="M269.708 244.976H324.399L311.697 296.853H247.299L269.708 244.976Z" fill="#420A81" fill-opacity="0.98"/>
<path d="M271.688 248.158H319.669L308.525 293.67H252.029L271.688 248.158Z" fill="#5069FF"/>
<path d="M252.029 293.67H302.254L314.062 249.969H270.907L252.029 293.67Z" fill="#FFF4FF"/>
<path d="M259.883 253.511H309.197L309.395 252.778H260.275L259.883 253.511Z" fill="#161522"/>
<path d="M308.261 256.976H258.471V257.709H308.063L308.261 256.976Z" fill="#161522"/>
<path d="M307.126 261.174H258.471V261.907H306.928L307.126 261.174Z" fill="#161522"/>
<path d="M305.992 265.372H256.993V266.105H305.794L305.992 265.372Z" fill="#161522"/>
<path d="M304.858 269.571H255.296V270.303H304.66L304.858 269.571Z" fill="#161522"/>
<path d="M244.162 282.897H278.123V282.164H244.554L244.162 282.897Z" fill="#161522"/>
<path d="M286.14 273.768H249.046L248.654 274.501H285.942L286.14 273.768Z" fill="#161522"/>
<path d="M285.005 277.967H246.8L246.408 278.699H284.807L285.005 277.967Z" fill="#161522"/>
<path d="M572.689 296.801L561.656 249.485H477.846L490.577 297.66L572.689 296.801Z" fill="#420A81" fill-opacity="0.98"/>
<path d="M258.675 364.792L266.105 429.843C266.105 429.843 251.411 434.404 248.109 429.894C244.807 425.385 233.745 366.113 233.745 366.113L258.675 364.792Z" fill="#F6C8A6"/>
<path d="M233.744 366.113L247.778 433.97" stroke="#EF8576" stroke-miterlimit="10"/>
<path d="M248.76 451.726L243.147 417.618L266.311 417.028L267.362 428.365C267.362 428.365 285.287 450.37 280.004 452.434C271.394 455.797 260.99 445.385 260.99 445.385L260.317 452.336L248.76 451.726Z" fill="#420A81" fill-opacity="0.98"/>
<path d="M266.31 417.029L243.146 417.619L248.989 452.378" stroke="#6FBBEF" stroke-miterlimit="10" stroke-linecap="round"/>
<path d="M278.947 364.792L286.377 429.843C286.377 429.843 271.683 434.404 268.381 429.894C265.079 425.385 254.017 366.113 254.017 366.113L278.947 364.792Z" fill="#F6C8A6"/>
<path d="M254.016 366.113L268.05 433.97" stroke="#EF8576" stroke-miterlimit="10"/>
<path d="M269.032 451.726L263.419 417.618L286.583 417.028L287.634 428.365C287.634 428.365 312.352 451.039 307.069 453.103C298.459 456.466 281.262 445.385 281.262 445.385L280.59 452.336L269.032 451.726Z" fill="#420A81" fill-opacity="0.98"/>
<path d="M286.582 417.029L263.418 417.619L269.261 452.378" stroke="#6FBBEF" stroke-miterlimit="10" stroke-linecap="round"/>
<path d="M204.553 306.68C204.553 306.68 239.822 303.298 258.707 310.304C279.18 317.899 286.009 389.029 286.009 389.029L213.121 388.406L183.744 314.307L204.553 306.68Z" fill="#420A81" fill-opacity="0.98"/>
<path d="M134.455 305.864H123.952V452.933H134.455V305.864Z" fill="#FFF4FF" stroke="#8777D9" stroke-miterlimit="10" stroke-linecap="round"/>
<path d="M634.626 305.864H624.123V452.933H634.626V305.864Z" fill="#FFF4FF" stroke="#8777D9" stroke-miterlimit="10" stroke-linecap="round"/>
<path d="M659.522 297.31H99.0547V308.534H659.522V297.31Z" fill="#FFF4FF" stroke="#8777D9" stroke-miterlimit="10" stroke-linecap="round"/>
<path d="M262.964 144.971H229.777C225.537 144.971 222.1 148.238 222.1 152.268V165.146V169.65V183.759L229.906 176.947H262.964C267.204 176.947 270.641 173.68 270.641 169.65V152.268C270.642 148.238 267.204 144.971 262.964 144.971Z" fill="#FFF4FF" stroke="#FF02F0" stroke-miterlimit="10"/>
<path d="M243.898 161.636C243.904 161.08 244.091 160.622 244.459 160.263C244.827 159.882 245.288 159.695 245.844 159.701C246.721 159.711 247.514 159.591 248.222 159.342C248.931 159.072 249.492 158.64 249.905 158.046C250.339 157.452 250.562 156.663 250.573 155.68C250.581 154.953 250.406 154.309 250.049 153.749C249.713 153.19 249.237 152.746 248.62 152.418C248.025 152.091 247.343 151.923 246.573 151.914C245.974 151.908 245.407 152.008 244.87 152.216C244.354 152.424 243.881 152.707 243.449 153.066C243.103 153.362 242.684 153.581 242.19 153.726C241.719 153.849 241.239 153.726 240.751 153.357C240.242 152.966 239.969 152.503 239.933 151.968C239.896 151.433 240.105 150.944 240.559 150.5C241.337 149.717 242.242 149.118 243.273 148.702C244.326 148.264 245.44 148.052 246.616 148.065C248.092 148.082 249.413 148.439 250.582 149.136C251.772 149.813 252.713 150.721 253.406 151.862C254.099 153.004 254.437 154.29 254.421 155.723C254.409 156.792 254.238 157.742 253.908 158.572C253.579 159.381 253.111 160.082 252.505 160.673C251.922 161.244 251.232 161.707 250.437 162.062C249.663 162.395 248.816 162.632 247.895 162.771C247.852 162.792 247.809 162.813 247.766 162.834C247.744 162.855 247.733 162.887 247.733 162.93L247.72 164.116C247.713 164.672 247.526 165.141 247.159 165.521C246.791 165.881 246.329 166.057 245.773 166.051C245.217 166.045 244.76 165.858 244.4 165.49C244.041 165.102 243.865 164.629 243.871 164.073L243.898 161.636ZM245.549 171.79C244.929 171.783 244.449 171.618 244.111 171.293C243.794 170.947 243.639 170.465 243.646 169.844L243.652 169.299C243.659 168.679 243.824 168.211 244.149 167.893C244.495 167.555 244.978 167.389 245.598 167.396L246.015 167.401C246.635 167.408 247.103 167.584 247.42 167.93C247.759 168.255 247.925 168.727 247.918 169.347L247.911 169.892C247.905 170.512 247.728 170.991 247.382 171.33C247.058 171.647 246.586 171.802 245.966 171.795L245.549 171.79Z" fill="#FFF4FF"/>
<path d="M244.459 160.263L244.808 160.62L244.813 160.615L244.818 160.61L244.459 160.263ZM248.222 159.342L248.388 159.814L248.4 159.81L248.222 159.342ZM249.905 158.046L249.501 157.751L249.494 157.761L249.905 158.046ZM250.049 153.749L249.62 154.007L249.627 154.018L250.049 153.749ZM248.62 152.418L248.379 152.856L248.386 152.86L248.62 152.418ZM244.87 152.216L244.689 151.75L244.683 151.752L244.87 152.216ZM243.449 153.066L243.129 152.681L243.124 152.686L243.449 153.066ZM242.19 153.726L242.317 154.209L242.324 154.208L242.331 154.206L242.19 153.726ZM240.751 153.357L240.447 153.753L240.449 153.755L240.751 153.357ZM239.933 151.968L240.431 151.934L239.933 151.968ZM240.559 150.5L240.908 150.857L240.913 150.852L240.559 150.5ZM243.273 148.702L243.46 149.165L243.465 149.163L243.273 148.702ZM250.582 149.136L250.325 149.566L250.335 149.571L250.582 149.136ZM253.406 151.862L252.979 152.122L253.406 151.862ZM253.908 158.572L254.371 158.761L254.373 158.757L253.908 158.572ZM252.505 160.673L252.855 161.031L252.505 160.673ZM250.437 162.062L250.635 162.521L250.641 162.518L250.437 162.062ZM247.895 162.771L247.82 162.277L247.745 162.288L247.676 162.321L247.895 162.771ZM247.766 162.834L247.547 162.384L247.474 162.42L247.416 162.476L247.766 162.834ZM247.159 165.521L247.508 165.879L247.513 165.874L247.518 165.869L247.159 165.521ZM244.4 165.49L244.033 165.83L244.038 165.835L244.043 165.84L244.4 165.49ZM244.111 171.293L243.742 171.631L243.753 171.643L243.765 171.654L244.111 171.293ZM244.149 167.893L243.799 167.536L244.149 167.893ZM247.42 167.93L247.052 168.268L247.063 168.28L247.074 168.291L247.42 167.93ZM247.382 171.33L247.033 170.972L247.382 171.33ZM244.398 161.641C244.403 161.206 244.544 160.879 244.808 160.62L244.109 159.905C243.639 160.365 243.406 160.953 243.398 161.63L244.398 161.641ZM244.818 160.61C245.085 160.334 245.413 160.196 245.839 160.201L245.85 159.201C245.164 159.193 244.568 159.43 244.099 159.915L244.818 160.61ZM245.839 160.201C246.764 160.211 247.616 160.085 248.388 159.814L248.057 158.871C247.411 159.097 246.678 159.21 245.85 159.201L245.839 160.201ZM248.4 159.81C249.198 159.506 249.842 159.012 250.315 158.331L249.494 157.761C249.141 158.268 248.664 158.639 248.044 158.875L248.4 159.81ZM250.308 158.341C250.822 157.639 251.061 156.739 251.073 155.686L250.073 155.674C250.062 156.588 249.856 157.265 249.501 157.751L250.308 158.341ZM251.073 155.686C251.082 154.871 250.885 154.13 250.47 153.481L249.627 154.018C249.928 154.489 250.08 155.035 250.073 155.674L251.073 155.686ZM250.478 153.492C250.092 152.849 249.546 152.344 248.855 151.977L248.386 152.86C248.928 153.148 249.334 153.53 249.62 154.007L250.478 153.492ZM248.861 151.98C248.185 151.608 247.42 151.424 246.579 151.414L246.568 152.414C247.266 152.422 247.866 152.574 248.379 152.856L248.861 151.98ZM246.579 151.414C245.919 151.407 245.288 151.518 244.689 151.75L245.05 152.682C245.525 152.498 246.03 152.408 246.568 152.414L246.579 151.414ZM244.683 151.752C244.119 151.98 243.6 152.29 243.129 152.682L243.768 153.451C244.161 153.125 244.59 152.868 245.057 152.68L244.683 151.752ZM243.124 152.686C242.839 152.93 242.485 153.119 242.05 153.246L242.331 154.206C242.883 154.044 243.368 153.793 243.774 153.446L243.124 152.686ZM242.064 153.242C241.777 153.317 241.452 153.26 241.053 152.958L240.449 153.755C241.025 154.191 241.66 154.381 242.317 154.209L242.064 153.242ZM241.056 152.96C240.636 152.638 240.456 152.298 240.431 151.934L239.434 152.002C239.482 152.709 239.848 153.294 240.447 153.753L241.056 152.96ZM240.431 151.934C240.407 151.572 240.538 151.219 240.908 150.857L240.209 150.142C239.672 150.668 239.385 151.294 239.434 152.002L240.431 151.934ZM240.913 150.852C241.644 150.118 242.491 149.556 243.46 149.165L243.086 148.238C241.993 148.679 241.031 149.316 240.204 150.147L240.913 150.852ZM243.465 149.163C244.453 148.753 245.5 148.553 246.611 148.565L246.622 147.566C245.38 147.552 244.199 147.776 243.081 148.24L243.465 149.163ZM246.611 148.565C248.005 148.581 249.239 148.917 250.326 149.566L250.838 148.707C249.588 147.961 248.178 147.583 246.622 147.566L246.611 148.565ZM250.335 149.571C251.453 150.206 252.331 151.056 252.979 152.122L253.833 151.603C253.095 150.387 252.091 149.419 250.829 148.702L250.335 149.571ZM252.979 152.122C253.62 153.177 253.937 154.371 253.921 155.717L254.921 155.729C254.938 154.21 254.578 152.83 253.833 151.603L252.979 152.122ZM253.921 155.717C253.91 156.737 253.747 157.624 253.444 158.387L254.373 158.757C254.73 157.86 254.909 156.847 254.921 155.729L253.921 155.717ZM253.445 158.383C253.141 159.131 252.711 159.773 252.156 160.316L252.855 161.031C253.511 160.39 254.016 159.631 254.371 158.761L253.445 158.383ZM252.156 160.316C251.617 160.843 250.978 161.273 250.233 161.605L250.641 162.518C251.486 162.141 252.226 161.646 252.855 161.031L252.156 160.316ZM250.239 161.603C249.509 161.917 248.703 162.143 247.82 162.277L247.97 163.265C248.929 163.12 249.818 162.873 250.635 162.521L250.239 161.603ZM247.676 162.321C247.633 162.342 247.59 162.363 247.547 162.384L247.985 163.283C248.028 163.262 248.071 163.242 248.114 163.221L247.676 162.321ZM247.416 162.476C247.267 162.623 247.234 162.804 247.233 162.924L248.233 162.935C248.232 162.969 248.222 163.087 248.116 163.191L247.416 162.476ZM247.233 162.924L247.22 164.111L248.22 164.122L248.233 162.935L247.233 162.924ZM247.22 164.111C247.215 164.546 247.073 164.89 246.799 165.174L247.518 165.869C247.979 165.391 248.212 164.798 248.22 164.122L247.22 164.111ZM246.809 165.164C246.544 165.423 246.214 165.556 245.779 165.551L245.768 166.551C246.444 166.559 247.038 166.339 247.508 165.879L246.809 165.164ZM245.779 165.551C245.344 165.546 245.016 165.405 244.758 165.141L244.043 165.84C244.503 166.311 245.091 166.544 245.768 166.551L245.779 165.551ZM244.768 165.151C244.5 164.861 244.366 164.514 244.371 164.079L243.371 164.068C243.363 164.744 243.582 165.342 244.033 165.83L244.768 165.151ZM244.371 164.079L244.398 161.641L243.398 161.63L243.371 164.068L244.371 164.079ZM245.554 171.29C245.019 171.284 244.677 171.144 244.457 170.932L243.765 171.654C244.221 172.092 244.838 172.282 245.543 172.29L245.554 171.29ZM244.479 170.955C244.273 170.73 244.14 170.385 244.146 169.85L243.146 169.839C243.138 170.544 243.315 171.165 243.742 171.631L244.479 170.955ZM244.146 169.85L244.152 169.305L243.152 169.294L243.146 169.839L244.146 169.85ZM244.152 169.305C244.158 168.768 244.299 168.445 244.498 168.251L243.799 167.536C243.35 167.976 243.16 168.591 243.152 169.294L244.152 169.305ZM244.498 168.251C244.725 168.029 245.066 167.89 245.592 167.896L245.603 166.896C244.89 166.888 244.265 167.081 243.799 167.536L244.498 168.251ZM245.592 167.896L246.009 167.901L246.02 166.901L245.603 166.896L245.592 167.896ZM246.009 167.901C246.538 167.907 246.856 168.054 247.052 168.268L247.789 167.592C247.351 167.115 246.732 166.909 246.02 166.901L246.009 167.901ZM247.074 168.291C247.284 168.492 247.424 168.813 247.418 169.341L248.418 169.353C248.426 168.641 248.234 168.017 247.766 167.569L247.074 168.291ZM247.418 169.341L247.412 169.887L248.411 169.898L248.418 169.353L247.418 169.341ZM247.412 169.887C247.406 170.413 247.259 170.751 247.033 170.972L247.732 171.687C248.197 171.232 248.403 170.611 248.411 169.898L247.412 169.887ZM247.033 170.972C246.834 171.167 246.508 171.301 245.971 171.295L245.96 172.295C246.663 172.303 247.282 172.127 247.732 171.687L247.033 170.972ZM245.971 171.295L245.554 171.29L245.543 172.29L245.96 172.295L245.971 171.295Z" fill="#FF02F0"/>
<path d="M260.331 242.404L274.664 226.929C274.664 226.929 280.47 212.071 283.815 213.258C285.933 214.01 282.903 224.972 282.903 224.972L296.502 220.234C296.502 220.234 304.702 212.794 306.248 212.953C309.503 213.29 305.973 222.84 302.856 226.942C300.102 230.567 285.664 236.567 285.664 236.567L273.039 254.403L260.331 242.404Z" fill="#F6C8A6"/>
<path d="M307.416 214.04L300.109 224.383" stroke="#EF8576" stroke-width="0.75" stroke-miterlimit="10" stroke-linecap="round"/>
<path d="M306.718 219.251L303.265 224.16" stroke="#EF8576" stroke-width="0.75" stroke-miterlimit="10" stroke-linecap="round"/>
<path d="M195.685 188.401L201.783 194.219L198.315 197.575L195.685 188.401Z" fill="#F6C8A6" stroke="#EF8576" stroke-width="0.75" stroke-miterlimit="10" stroke-linecap="round" stroke-linejoin="round"/>
<path d="M172.375 204.245C172.452 204.591 172.545 204.928 172.648 205.26C172.643 205.641 172.676 206.027 172.761 206.414L172.375 204.245L187.711 212.35L187.696 212.281L192.273 211.267C197.536 210.102 200.756 204.246 199.429 198.253L196.712 185.982C195.385 179.99 189.993 176.041 184.731 177.206L176.815 178.959C171.552 180.124 168.332 185.98 169.658 191.972L172.375 204.245Z" fill="#FFF4FF"/>
<path d="M199.429 198.254L196.712 185.983C195.385 179.991 189.993 176.042 184.73 177.207L176.814 178.96C171.551 180.125 168.331 185.981 169.657 191.974L172.374 204.245C172.451 204.591 172.544 204.928 172.647 205.26C172.642 205.641 172.675 206.027 172.761 206.414L173.559 206.786L174.057 223.335H190.26L189.502 211.882L192.274 211.268C197.535 210.102 200.756 204.246 199.429 198.254Z" fill="#F6C8A6"/>
<path d="M188.848 193.938C188.903 194.934 189.755 195.696 190.751 195.641C191.747 195.586 192.509 194.734 192.453 193.738C192.398 192.742 191.546 191.98 190.55 192.035C189.554 192.09 188.792 192.942 188.848 193.938Z" fill="#161522"/>
<path d="M199.108 204.051C199.075 204.072 199.041 204.091 199.007 204.11C198.969 204.131 198.929 204.151 198.89 204.17C198.867 204.181 198.845 204.191 198.822 204.202C198.727 204.246 198.844 204.195 198.779 204.22C198.463 204.344 198.123 204.431 197.799 204.457C196.52 204.559 195.371 203.939 194.457 203.088C194.104 202.76 193.572 203.289 193.927 203.618C194.964 204.583 196.294 205.306 197.749 205.21C198.335 205.171 198.988 205.026 199.488 204.698C199.889 204.435 199.513 203.786 199.108 204.051Z" fill="#161522"/>
<path d="M186.93 191.962C187.701 191.059 188.555 190.231 189.482 189.489C189.64 189.362 189.614 189.091 189.482 188.959C189.326 188.803 189.11 188.832 188.952 188.959C188.025 189.701 187.17 190.529 186.4 191.432C186.269 191.586 186.249 191.811 186.4 191.962C186.535 192.096 186.798 192.117 186.93 191.962Z" fill="#161522"/>
<path d="M189.871 201.104C189.871 203.556 187.883 205.544 185.431 205.544C182.979 205.544 180.991 203.556 180.991 201.104C180.991 198.652 182.979 196.664 185.431 196.664C187.884 196.664 189.871 198.652 189.871 201.104Z" fill="#EF8576"/>
<path d="M173.079 199.463L174.396 195.202C174.396 195.202 189.872 192.754 196.743 176.339C199.296 170.239 194.973 164.419 187.94 164.366C179.044 164.299 171.108 169.313 171.108 169.313C171.108 169.313 150.502 178.769 157.156 199.62C157.156 199.62 160.69 211.82 174.136 212.35" fill="#7F4040"/>
<path d="M159.019 174.409C160.876 166.543 156.005 158.66 148.138 156.802C140.272 154.945 132.389 159.816 130.531 167.683C128.674 175.549 133.545 183.432 141.412 185.29C149.278 187.147 157.161 182.276 159.019 174.409Z" fill="#7F4040"/>
<path d="M164.778 202.762C165.196 206.025 168.202 208.328 171.492 207.907C174.782 207.486 177.11 204.499 176.692 201.236C176.274 197.973 173.268 195.67 169.978 196.091C166.688 196.512 164.36 199.499 164.778 202.762Z" fill="#F6C8A6"/>
<path d="M174.469 202.366C174.374 200.875 173.497 199.346 172.017 198.885C171.244 198.644 170.408 198.713 169.631 198.895C169.114 199.016 169.333 199.813 169.851 199.691C170.18 199.614 170.511 199.561 170.85 199.555C170.993 199.552 171.137 199.557 171.28 199.571C171.385 199.581 171.492 199.599 171.641 199.636C171.914 199.705 172.021 199.748 172.242 199.874C172.335 199.927 172.424 199.987 172.51 200.051C172.565 200.092 172.438 199.989 172.522 200.062C172.54 200.077 172.557 200.091 172.575 200.107C172.618 200.144 172.66 200.183 172.7 200.222C172.772 200.292 172.837 200.367 172.903 200.443C172.979 200.531 172.892 200.42 172.958 200.514C172.989 200.558 173.02 200.601 173.049 200.646C173.156 200.809 173.245 200.982 173.328 201.158C173.378 201.266 173.314 201.116 173.349 201.206C173.364 201.246 173.38 201.285 173.395 201.324C173.426 201.408 173.454 201.492 173.48 201.578C173.522 201.715 173.557 201.853 173.586 201.993C173.599 202.056 173.611 202.12 173.622 202.184C173.626 202.209 173.63 202.235 173.634 202.261C173.652 202.371 173.626 202.169 173.631 202.235C173.634 202.278 173.641 202.321 173.644 202.364C173.658 202.587 173.824 202.777 174.057 202.777C174.269 202.779 174.484 202.589 174.469 202.366Z" fill="#EF8576"/>
<path d="M165.962 227.252L173.801 217.951L193.7 218.621L200.928 226.714C200.928 226.714 187.433 227.252 165.962 227.252Z" fill="#420A81" fill-opacity="0.98"/>
<path d="M209.831 283.347C228.481 293.977 245.812 299.663 252.301 295.523C265.25 287.261 285.736 244.308 285.736 244.308L264.767 231.456L240.899 254.938C240.899 254.938 216.354 231.94 203.986 226.915C198.62 224.735 168.943 225.755 168.943 225.755C168.943 225.755 166.024 226.649 164.649 227.253C148.205 234.475 144.317 258.963 138.958 293.107L138.835 296.882L210.147 297.517L209.831 283.347Z" fill="#420A81" fill-opacity="0.98"/>
<path d="M285.735 244.308L264.766 231.456L240.898 254.938C240.898 254.938 216.353 231.94 203.985 226.915C198.619 224.735 171.396 225.684 171.396 225.684" stroke="#6FBBEF" stroke-miterlimit="10" stroke-linecap="round"/>
<path d="M240.323 254.404L245.802 259.938" stroke="#6FBBEF" stroke-miterlimit="10" stroke-linecap="round"/>
<path d="M260.33 235.82L282.713 250.4" stroke="#6FBBEF" stroke-miterlimit="10" stroke-linecap="round"/>
<path d="M207.57 412.001H216.835V351.851H207.57V412.001Z" fill="#FFF4FF" stroke="#8777D9" stroke-miterlimit="10"/>
<path d="M209.355 431.205H215.048C217.417 431.205 219.338 429.284 219.338 426.915V384.122C219.338 381.752 217.417 379.832 215.048 379.832H209.355C206.986 379.832 205.065 381.753 205.065 384.122V426.915C205.065 429.284 206.986 431.205 209.355 431.205Z" fill="#8777D9"/>
<path d="M175.642 426.903H177.916H246.487H251.879V433.086V440.042H246.487V433.086H177.916V440.042H172.525V433.086V426.903H175.642Z" fill="#8777D9"/>
<path d="M166.9 443.595C166.9 448.162 170.602 451.864 175.17 451.864C179.737 451.864 183.439 448.162 183.439 443.595C183.439 439.028 179.737 435.326 175.17 435.326C170.603 435.326 166.9 439.028 166.9 443.595Z" fill="#FFF4FF" stroke="#8777D9" stroke-miterlimit="10"/>
<path d="M172.001 443.595C172.001 445.345 173.42 446.764 175.17 446.764C176.92 446.764 178.339 445.345 178.339 443.595C178.339 441.845 176.92 440.426 175.17 440.426C173.42 440.427 172.001 441.845 172.001 443.595Z" fill="#8777D9"/>
<path d="M241.199 443.595C241.199 448.162 244.901 451.864 249.468 451.864C254.035 451.864 257.737 448.162 257.737 443.595C257.737 439.028 254.035 435.326 249.468 435.326C244.901 435.326 241.199 439.028 241.199 443.595Z" fill="#FFF4FF" stroke="#8777D9" stroke-miterlimit="10"/>
<path d="M246.3 443.595C246.3 445.345 247.719 446.764 249.469 446.764C251.219 446.764 252.638 445.345 252.638 443.595C252.638 441.845 251.219 440.426 249.469 440.426C247.719 440.426 246.3 441.845 246.3 443.595Z" fill="#8777D9"/>
<path d="M297.859 359.15H138.564C135.281 359.15 132.558 356.609 132.332 353.334L125.353 252.444C125.103 248.833 127.965 245.766 131.585 245.766H215.537C218.6 245.766 221.212 247.987 221.703 251.011L236.386 341.41C236.877 344.434 239.489 346.655 242.552 346.655H297.859C300.555 346.655 302.947 348.384 303.791 350.945C305.125 354.987 302.115 359.15 297.859 359.15Z" fill="#FFF4FF" stroke="#8777D9" stroke-miterlimit="10" stroke-linecap="round"/>
<path d="M132.734 269.158H204.966" stroke="#8777D9" stroke-miterlimit="10" stroke-linecap="round"/>
<path d="M132.734 292.18H209.079" stroke="#8777D9" stroke-miterlimit="10" stroke-linecap="round"/>
<path d="M137.396 315.201H213.741" stroke="#8777D9" stroke-miterlimit="10" stroke-linecap="round"/>
<path d="M137.396 338.222H213.741" stroke="#8777D9" stroke-miterlimit="10" stroke-linecap="round"/>
<path d="M210.451 250.593L225.144 348.035" stroke="#8777D9" stroke-miterlimit="10" stroke-linecap="round"/>
<path d="M38.8179 454.714C44.7569 454.714 50.6968 454.714 56.6358 454.714C72.6548 454.714 88.6729 454.714 104.692 454.714C128.441 454.714 152.19 454.714 175.939 454.714C204.914 454.714 233.889 454.714 262.863 454.714C294.488 454.714 326.113 454.714 357.737 454.714C389.877 454.714 422.017 454.714 454.156 454.714C483.919 454.714 513.682 454.714 543.445 454.714C568.687 454.714 593.928 454.714 619.17 454.714C637.318 454.714 655.465 454.714 673.613 454.714C682.187 454.714 690.772 454.838 699.346 454.714C699.721 454.709 700.096 454.714 700.471 454.714C702.08 454.714 702.082 452.214 700.471 452.214C694.532 452.214 688.592 452.214 682.653 452.214C666.634 452.214 650.616 452.214 634.597 452.214C610.848 452.214 587.099 452.214 563.35 452.214C534.375 452.214 505.4 452.214 476.426 452.214C444.801 452.214 413.176 452.214 381.552 452.214C349.412 452.214 317.273 452.214 285.133 452.214C255.37 452.214 225.607 452.214 195.844 452.214C170.602 452.214 145.361 452.214 120.119 452.214C101.971 452.214 83.8239 452.214 65.6759 452.214C57.1009 452.214 48.5159 452.09 39.9429 452.214C39.5679 452.219 39.1929 452.214 38.8179 452.214C37.2089 452.214 37.2069 454.714 38.8179 454.714Z" fill="#161522"/>
</svg>
