<svg width="500" height="500" viewBox="0 0 500 500" fill="none" xmlns="http://www.w3.org/2000/svg">
<g clip-path="url(#clip0_27_9283)">
<mask id="mask0_27_9283" style="mask-type:luminance" maskUnits="userSpaceOnUse" x="0" y="0" width="500" height="500">
<path d="M500 0H0V500H500V0Z" fill="white"/>
</mask>
<g mask="url(#mask0_27_9283)">
<g opacity="0.58">
<path d="M32.5791 152.76C32.7211 154.605 32.7931 156.431 32.7931 158.194L32.7921 158.656L33.7781 158.665L33.7791 158.189C33.7791 156.395 33.7061 154.531 33.5611 152.65L32.5791 152.76Z" fill="#C6C6F7"/>
<path d="M31.3651 138.493C30.9571 136.65 30.5031 134.769 29.9761 132.741L29.0361 133.1C29.5571 135.111 30.0081 136.977 30.4121 138.803L31.3651 138.493Z" fill="#C6C6F7"/>
<path d="M33.1313 148.469C32.8913 146.583 32.5773 144.598 32.1983 142.571L31.2373 142.835C31.6113 144.836 31.9203 146.792 32.1573 148.652L33.1313 148.469Z" fill="#C6C6F7"/>
<path d="M25.5625 187.048L26.3925 187.695C27.2795 186.019 28.1065 184.256 28.8495 182.455L27.9675 181.921C27.2405 183.683 26.4315 185.408 25.5625 187.048Z" fill="#C6C6F7"/>
<path d="M29.3789 178.161L30.2899 178.616C30.9089 176.795 31.4689 174.887 31.9529 172.942L31.0089 172.597C30.5339 174.505 29.9849 176.376 29.3789 178.161Z" fill="#C6C6F7"/>
<path d="M26.3477 123.512C26.9017 125.384 27.4467 127.259 27.9707 129.138L28.9047 128.755C28.3787 126.869 27.8317 124.987 27.2767 123.108L26.3477 123.512Z" fill="#C6C6F7"/>
<path d="M31.8828 168.6L32.8458 168.859C33.1998 166.922 33.4568 164.913 33.6078 162.887L32.6258 162.78C32.4778 164.755 32.2268 166.713 31.8828 168.6Z" fill="#C6C6F7"/>
<path d="M30.374 32.9922L31.135 33.7512C32.157 32.2472 33.248 30.7582 34.379 29.3272L33.666 28.5002C32.518 29.9532 31.41 31.4642 30.374 32.9922Z" fill="#C6C6F7"/>
<path d="M0.258789 212.367L0.699789 213.436C2.22579 212.509 3.69779 211.566 5.07379 210.633L4.59179 209.59C3.22979 210.515 1.77179 211.45 0.258789 212.367Z" fill="#C6C6F7"/>
<path d="M25.6175 117.585C25.2125 116.242 24.8065 114.901 24.4065 113.563L23.4805 113.969C23.8805 115.309 24.2865 116.651 24.6925 117.995L25.1725 119.585L26.0985 119.174L25.6175 117.585Z" fill="#C6C6F7"/>
<path d="M20.4883 194.963L21.2103 195.775C22.3493 194.288 23.4243 192.734 24.4033 191.156L23.6153 190.437C22.6563 191.984 21.6043 193.505 20.4883 194.963Z" fill="#C6C6F7"/>
<path d="M14.3857 201.754L14.9957 202.692C16.3177 201.426 17.5837 200.105 18.7577 198.765L18.0817 197.894C16.9287 199.212 15.6847 200.51 14.3857 201.754Z" fill="#C6C6F7"/>
<path d="M19.4131 94.2712L18.4521 94.5422C18.8061 96.3922 19.2192 98.2912 19.7132 100.347L20.6591 100.013C20.1711 97.9772 19.7631 96.0992 19.4131 94.2712Z" fill="#C6C6F7"/>
<path d="M500.281 79.5042L501.265 79.4362C501.168 77.3592 501.038 75.3482 500.879 73.4612L499.899 73.5822C500.055 75.4522 500.184 77.4442 500.281 79.5042Z" fill="#C6C6F7"/>
<path d="M36.1279 25.5401L36.8039 26.4081C37.9729 25.0721 39.2079 23.7591 40.4749 22.5031L39.8509 21.5781C38.5659 22.8511 37.3129 24.1841 36.1279 25.5401Z" fill="#C6C6F7"/>
<path d="M499.484 69.4593L500.46 69.2913C500.221 67.2463 499.932 65.2543 499.602 63.3723L498.637 63.6223C498.964 65.4763 499.249 67.4403 499.484 69.4593Z" fill="#C6C6F7"/>
<path d="M491.511 40.8963C490.51 39.3053 489.409 37.7743 488.237 36.3433L487.538 37.1853C488.679 38.5793 489.753 40.0713 490.727 41.6193L491.511 40.8963Z" fill="#C6C6F7"/>
<path d="M21.175 54.6693L20.249 54.2583C19.682 56.1403 19.177 58.0703 18.751 59.9933L19.702 60.3033C20.122 58.4143 20.618 56.5193 21.175 54.6693Z" fill="#C6C6F7"/>
<path d="M17.0859 84.4553C17.2409 86.4303 17.4659 88.4353 17.7559 90.4153L18.7269 90.2073C18.4419 88.2583 18.2209 86.2843 18.0679 84.3423L17.0859 84.4553Z" fill="#C6C6F7"/>
<path d="M18.9197 64.3322L17.9527 64.0942C17.6257 66.0432 17.3647 68.0422 17.1797 70.0372L18.1597 70.1702C18.3417 68.2112 18.5977 66.2472 18.9197 64.3322Z" fill="#C6C6F7"/>
<path d="M24.5889 45.5053L23.7219 44.9363C22.9319 46.7093 22.1989 48.5283 21.5449 50.3443L22.4479 50.8233C23.0909 49.0353 23.8119 47.2463 24.5889 45.5053Z" fill="#C6C6F7"/>
<path d="M20.7324 104.357C21.2324 106.237 21.7644 108.129 22.3154 110.028L23.2454 109.631C22.6964 107.742 22.1684 105.861 21.6704 103.991L20.7324 104.357Z" fill="#C6C6F7"/>
<path d="M17.8472 80.2092C17.8232 79.3842 17.8102 78.5622 17.8102 77.7442C17.8102 76.5912 17.8342 75.4312 17.8812 74.2942L16.8972 74.2332C16.8482 75.3902 16.8242 76.5711 16.8242 77.7431C16.8242 78.5751 16.8362 79.4112 16.8612 80.2502L17.8472 80.2092Z" fill="#C6C6F7"/>
<path d="M485.038 34.3942L485.674 33.4812C484.789 32.5752 483.85 31.6952 482.884 30.8652C482.49 30.5262 482.092 30.1952 481.693 29.8682L481.142 30.8602C481.536 31.1802 481.926 31.5072 482.314 31.8402C483.258 32.6512 484.174 33.5102 485.038 34.3942Z" fill="#C6C6F7"/>
<path d="M498.785 59.2752C498.338 57.2972 497.822 55.3712 497.25 53.5522L496.329 53.9772C496.889 55.7602 497.396 57.6502 497.834 59.5902L498.785 59.2752Z" fill="#C6C6F7"/>
<path d="M495.888 49.6671C495.175 47.8291 494.37 46.0471 493.499 44.3711L492.665 45.0081C493.515 46.6431 494.299 48.3821 494.996 50.1761L495.888 49.6671Z" fill="#C6C6F7"/>
<path d="M471.214 23.0382C469.706 22.2682 468.145 21.5512 466.575 20.9072L466.259 22.0392C467.806 22.6742 469.345 23.3812 470.831 24.1402L471.214 23.0382Z" fill="#C6C6F7"/>
<path d="M463.262 19.6553C461.696 19.1123 460.079 18.6223 458.452 18.1973L458.244 19.3643C459.849 19.7843 461.446 20.2683 462.99 20.8033L463.262 19.6553Z" fill="#C6C6F7"/>
<path d="M29.0358 37.0193L28.2408 36.3123C27.2598 37.9303 26.3258 39.6053 25.4648 41.2933L26.3028 41.9213C27.1508 40.2613 28.0698 38.6123 29.0358 37.0193Z" fill="#C6C6F7"/>
<path d="M478.75 27.6223C477.336 26.6133 475.866 25.6563 474.378 24.7783L473.947 25.8523C475.412 26.7173 476.86 27.6593 478.25 28.6523L478.75 27.6223Z" fill="#C6C6F7"/>
<path d="M7.55176 207.491L8.06576 208.511C9.51576 207.436 10.9108 206.326 12.2118 205.212L11.6418 204.236C10.3598 205.335 8.98376 206.43 7.55176 207.491Z" fill="#C6C6F7"/>
<path d="M400.629 25.0002L400.991 26.1112C402.487 25.3942 404.035 24.7052 405.591 24.0592L405.271 22.9292C403.702 23.5802 402.14 24.2762 400.629 25.0002Z" fill="#C6C6F7"/>
<path d="M416.693 19.0332L416.909 20.2002C418.493 19.7702 420.11 19.3772 421.716 19.0332L421.545 17.8572C419.924 18.2042 418.292 18.6002 416.693 19.0332Z" fill="#C6C6F7"/>
<path d="M408.564 21.6381L408.853 22.7821C410.406 22.2061 411.994 21.6641 413.571 21.1741L413.326 20.0161C411.734 20.5101 410.132 21.0561 408.564 21.6381Z" fill="#C6C6F7"/>
<path d="M385.409 33.5712L385.859 34.6352C387.295 33.7422 388.758 32.8552 390.252 31.9732L389.821 30.8992C388.321 31.7842 386.851 32.6762 385.409 33.5712Z" fill="#C6C6F7"/>
<path d="M396.596 27.0593C395.355 27.7313 394.136 28.4093 392.937 29.0913L393.355 30.1743C394.55 29.4953 395.764 28.8193 397 28.1493L397.826 27.7073L397.431 26.6123L396.596 27.0593Z" fill="#C6C6F7"/>
<path d="M441.721 17.0912C443.357 17.1312 445.005 17.2222 446.615 17.3642L446.686 16.1712C445.058 16.0292 443.394 15.9352 441.74 15.8962L441.721 17.0912Z" fill="#C6C6F7"/>
<path d="M424.963 17.1912L425.104 18.3742C426.729 18.0882 428.366 17.8482 429.971 17.6602L429.876 16.4702C428.256 16.6612 426.603 16.9042 424.963 17.1912Z" fill="#C6C6F7"/>
<path d="M433.328 16.1301L433.392 17.3231C435.028 17.1951 436.675 17.1151 438.289 17.0851L438.274 15.8901C436.644 15.9201 434.979 16.0011 433.328 16.1301Z" fill="#C6C6F7"/>
<path d="M42.5889 19.0011L43.1739 19.9631C44.4719 18.8001 45.8269 17.6711 47.2009 16.6051L46.6689 15.5991C45.2769 16.6791 43.9029 17.8241 42.5889 19.0011Z" fill="#C6C6F7"/>
<path d="M455.045 17.3991C453.444 17.0661 451.793 16.7831 450.139 16.5591L450.029 17.7471C451.664 17.9691 453.295 18.2481 454.877 18.5781L455.045 17.3991Z" fill="#C6C6F7"/>
<path d="M317.862 72.9391L318.11 74.0951C319.697 73.5941 321.296 73.0531 322.866 72.4851L322.583 71.3391C321.026 71.9041 319.437 72.4421 317.862 72.9391Z" fill="#C6C6F7"/>
<path d="M325.857 70.0942L326.165 71.2292C327.701 70.6172 329.269 69.9552 330.827 69.2582L330.486 68.1382C328.939 68.8292 327.382 69.4872 325.857 70.0942Z" fill="#C6C6F7"/>
<path d="M378.006 38.3322L378.48 39.3802C379.899 38.4382 381.34 37.4982 382.806 36.5592L382.346 35.5022C380.875 36.4432 379.429 37.3882 378.006 38.3322Z" fill="#C6C6F7"/>
<path d="M348.832 58.1633L349.286 59.2233C350.747 58.3033 352.196 57.3653 353.638 56.4103L353.166 55.3623C351.73 56.3123 350.286 57.2463 348.832 58.1633Z" fill="#C6C6F7"/>
<path d="M356.176 53.3492L356.656 54.3922C358.084 53.4262 359.511 52.4472 360.941 51.4572L360.452 50.4182C359.025 51.4082 357.601 52.3852 356.176 53.3492Z" fill="#C6C6F7"/>
<path d="M370.698 43.2922L371.187 44.3312C372.597 43.3552 374.023 42.3772 375.468 41.3992L374.987 40.3562C373.539 41.3362 372.111 42.3172 370.698 43.2922Z" fill="#C6C6F7"/>
<path d="M363.439 48.3451L363.931 49.3811L368.196 46.4061L367.705 45.3701L363.439 48.3451Z" fill="#C6C6F7"/>
<path d="M341.344 62.6402L341.76 63.7232C343.202 62.9112 344.698 62.0372 346.206 61.1252L345.765 60.0562C344.266 60.9632 342.779 61.8322 341.344 62.6402Z" fill="#C6C6F7"/>
<path d="M333.691 66.6473L334.056 67.7583C335.563 67.0303 337.096 66.2523 338.609 65.4483L338.213 64.3533C336.71 65.1543 335.187 65.9253 333.691 66.6473Z" fill="#C6C6F7"/>
<path d="M130.189 13.3271C131.612 14.1431 133.087 15.0341 134.573 15.9791L135.031 14.9201C133.533 13.9691 132.046 13.0691 130.61 12.2461L130.189 13.3271Z" fill="#C6C6F7"/>
<path d="M137.594 17.9532C138.966 18.8762 140.397 19.8732 141.848 20.9162L142.351 19.8892C140.893 18.8392 139.453 17.8362 138.072 16.9072L137.594 17.9532Z" fill="#C6C6F7"/>
<path d="M122.532 9.38609C124.017 10.0611 125.543 10.8091 127.067 11.6091L127.46 10.5121C125.919 9.70309 124.378 8.94809 122.878 8.26709L122.532 9.38609Z" fill="#C6C6F7"/>
<path d="M144.792 23.0722C146.161 24.0932 147.547 25.1492 148.952 26.2392L149.484 25.2332C148.073 24.1382 146.684 23.0772 145.309 22.0542L144.792 23.0722Z" fill="#C6C6F7"/>
<path d="M114.617 6.29409C116.179 6.80609 117.755 7.38109 119.301 8.00309L119.611 6.86909C118.048 6.24009 116.455 5.65909 114.876 5.14209L114.617 6.29409Z" fill="#C6C6F7"/>
<path d="M165.734 39.7971L169.81 43.1461L170.363 42.1571L166.289 38.8071L165.734 39.7971Z" fill="#C6C6F7"/>
<path d="M151.839 28.5061C153.184 29.5721 154.55 30.6661 155.942 31.7911L156.489 30.7971C155.095 29.6701 153.726 28.5731 152.378 27.5061L151.839 28.5061Z" fill="#C6C6F7"/>
<path d="M158.805 34.1153C160.139 35.2013 161.496 36.3153 162.882 37.4543L163.435 36.4643C162.049 35.3253 160.69 34.2123 159.356 33.1233L158.805 34.1153Z" fill="#C6C6F7"/>
<path d="M309.735 75.1801L309.926 76.3521C311.539 75.9681 313.162 75.5461 314.753 75.0971L314.53 73.9321C312.95 74.3781 311.337 74.7981 309.735 75.1801Z" fill="#C6C6F7"/>
<path d="M106.5 4.12529C108.109 4.46129 109.723 4.85329 111.297 5.29029L111.517 4.12529C109.926 3.68329 108.295 3.28729 106.668 2.94629L106.5 4.12529Z" fill="#C6C6F7"/>
<path d="M57.1504 8.83308L57.5454 9.92808C59.0334 9.14108 60.5624 8.40408 62.0884 7.73608L61.7534 6.61108C60.2064 7.28708 58.6584 8.03608 57.1504 8.83308Z" fill="#C6C6F7"/>
<path d="M49.6328 13.4201L50.1238 14.4561C51.5188 13.4831 52.9708 12.5441 54.4398 11.6691L54.0048 10.5981C52.5168 11.4841 51.0468 12.4341 49.6328 13.4201Z" fill="#C6C6F7"/>
<path d="M173.217 44.4941L172.666 45.4841C173.838 46.4431 175.031 47.4161 176.246 48.4041L176.759 48.8161L177.3 47.8171L176.794 47.4111C175.581 46.4241 174.388 45.4511 173.217 44.4941Z" fill="#C6C6F7"/>
<path d="M65.0371 5.27112L65.3301 6.41212C66.8791 5.82712 68.4641 5.29612 70.0431 4.83412L69.8121 3.67212C68.2121 4.14112 66.6051 4.67912 65.0371 5.27112Z" fill="#C6C6F7"/>
<path d="M98.2471 2.83624C99.9041 3.01224 101.541 3.23324 103.112 3.49224L103.245 2.30924C101.658 2.04624 100.006 1.82424 98.3331 1.64624L98.2471 2.83624Z" fill="#C6C6F7"/>
<path d="M89.9297 2.31831C91.5947 2.35431 93.2417 2.42831 94.8267 2.53731L94.8827 1.34431C93.2847 1.23331 91.6247 1.15831 89.9467 1.12231L89.9297 2.31831Z" fill="#C6C6F7"/>
<path d="M81.5361 1.3892L81.6151 2.5792C83.2431 2.4202 84.8871 2.3272 86.5001 2.3012L86.4871 1.1062C84.8521 1.1322 83.1861 1.2272 81.5361 1.3892Z" fill="#C6C6F7"/>
<path d="M73.1973 2.77624L73.3863 3.95024C74.9843 3.57324 76.6083 3.25724 78.2133 3.00924L78.0903 1.82324C76.4623 2.07324 74.8173 2.39424 73.1973 2.77624Z" fill="#C6C6F7"/>
<path d="M259.76 79.0262C261.408 79.1962 263.052 79.3462 264.691 79.4722L264.755 78.2792C263.122 78.1532 261.485 78.0062 259.845 77.8352L259.76 79.0262Z" fill="#C6C6F7"/>
<path d="M277.87 78.7932L276.541 78.7872L276.535 79.9822L277.87 79.9882C279.077 79.9882 280.277 79.9742 281.473 79.9472L281.455 78.7522C280.266 78.7792 279.071 78.7932 277.87 78.7932Z" fill="#C6C6F7"/>
<path d="M268.144 79.7033C269.796 79.7993 271.442 79.8703 273.078 79.9193L273.103 78.7243C271.474 78.6753 269.835 78.6043 268.19 78.5103L268.144 79.7033Z" fill="#C6C6F7"/>
<path d="M243.086 76.5621C244.711 76.8721 246.34 77.1641 247.971 77.4351L248.106 76.2521C246.481 75.9811 244.858 75.6921 243.241 75.3811L243.086 76.5621Z" fill="#C6C6F7"/>
<path d="M179.69 51.0613C181.052 52.0623 182.498 53.0653 183.985 54.0423L184.455 52.9923C182.982 52.0253 181.55 51.0313 180.2 50.0393L179.69 51.0613Z" fill="#C6C6F7"/>
<path d="M284.894 78.6342L284.931 79.8292C286.585 79.7532 288.245 79.6482 289.866 79.5162L289.8 78.3232C288.188 78.4552 286.537 78.5602 284.894 78.6342Z" fill="#C6C6F7"/>
<path d="M301.514 76.8501L301.651 78.0331C303.291 77.7551 304.931 77.4451 306.528 77.1111L306.361 75.9321C304.773 76.2651 303.143 76.5731 301.514 76.8501Z" fill="#C6C6F7"/>
<path d="M294.612 77.8423C294.153 77.8973 293.689 77.9503 293.226 78.0003L293.313 79.1903C293.78 79.1403 294.245 79.0873 294.708 79.0333C295.898 78.8913 297.069 78.7363 298.223 78.5703L298.107 77.3843C296.96 77.5483 295.795 77.7023 294.612 77.8423Z" fill="#C6C6F7"/>
<path d="M251.401 77.9731C253.038 78.2161 254.676 78.4361 256.312 78.6371L256.412 77.4491C254.782 77.2481 253.152 77.0281 251.521 76.7871L251.401 77.9731Z" fill="#C6C6F7"/>
<path d="M194.68 60.2753C196.174 61.0503 197.713 61.8133 199.256 62.5433L199.614 61.4303C198.082 60.7053 196.553 59.9473 195.069 59.1763L194.68 60.2753Z" fill="#C6C6F7"/>
<path d="M202.487 64.0312C204.021 64.7142 205.589 65.3842 207.148 66.0192L207.462 64.8872C205.912 64.2542 204.352 63.5892 202.828 62.9102L202.487 64.0312Z" fill="#C6C6F7"/>
<path d="M187.057 55.9852C188.49 56.8602 189.99 57.7322 191.516 58.5792L191.926 57.4912C190.41 56.6512 188.922 55.7852 187.5 54.9182L187.057 55.9852Z" fill="#C6C6F7"/>
<path d="M234.826 74.7983C236.438 75.1773 238.056 75.5383 239.679 75.8793L239.847 74.7003C238.231 74.3613 236.619 74.0033 235.015 73.6243L234.826 74.7983Z" fill="#C6C6F7"/>
<path d="M226.629 72.6801C228.225 73.1291 229.83 73.5581 231.444 73.9681L231.646 72.7991C230.039 72.3901 228.44 71.9621 226.852 71.5151L226.629 72.6801Z" fill="#C6C6F7"/>
<path d="M218.489 70.1943C220.069 70.7163 221.663 71.2193 223.269 71.7033L223.508 70.5433C221.908 70.0613 220.322 69.5603 218.749 69.0413L218.489 70.1943Z" fill="#C6C6F7"/>
<path d="M210.436 67.3211C211.994 67.9191 213.57 68.4971 215.163 69.0601L215.438 67.9121C213.853 67.3541 212.285 66.7781 210.734 66.1831L210.436 67.3211Z" fill="#C6C6F7"/>
<path d="M73.8184 467.538L74.0854 468.803C75.8254 468.262 77.5754 467.666 79.2884 467.031L78.9724 465.782C77.2764 466.411 75.5414 467.002 73.8184 467.538Z" fill="#C6C6F7"/>
<path d="M115.444 445.442L115.97 446.582C117.551 445.511 119.111 444.44 120.655 443.374L120.121 442.239C118.581 443.305 117.023 444.373 115.444 445.442Z" fill="#C6C6F7"/>
<path d="M82.5361 464.385L82.8851 465.619C84.6001 464.909 86.3061 464.148 87.9561 463.357L87.5601 462.143C85.9271 462.926 84.2361 463.68 82.5361 464.385Z" fill="#C6C6F7"/>
<path d="M55.9023 471.375L56.0063 472.675C57.7763 472.466 59.5813 472.201 61.3733 471.887L61.2193 470.594C59.4443 470.907 57.6563 471.17 55.9023 471.375Z" fill="#C6C6F7"/>
<path d="M99.2949 455.739L99.7659 456.912C101.404 455.946 103.009 454.971 104.585 453.994L104.094 452.831C102.525 453.807 100.927 454.776 99.2949 455.739Z" fill="#C6C6F7"/>
<path d="M91.9235 459.917L91.0215 460.4L91.4525 461.596L92.3635 461.108C93.7195 460.374 95.0525 459.633 96.3615 458.888L95.9055 457.705C94.5995 458.447 93.2735 459.185 91.9235 459.917Z" fill="#C6C6F7"/>
<path d="M107.428 450.729L107.931 451.884C109.537 450.856 111.117 449.824 112.672 448.792L112.154 447.647C110.604 448.676 109.03 449.704 107.428 450.729Z" fill="#C6C6F7"/>
<path d="M46.8164 472.004L46.8334 473.309C48.6134 473.276 50.4324 473.188 52.2364 473.046L52.1674 471.743C50.3794 471.884 48.5794 471.971 46.8164 472.004Z" fill="#C6C6F7"/>
<path d="M10.8477 465.5C12.4947 466.341 14.1997 467.124 15.9157 467.828L16.2607 466.591C14.5707 465.897 12.8897 465.125 11.2667 464.296L10.8477 465.5Z" fill="#C6C6F7"/>
<path d="M37.6426 473.002C39.4216 473.158 41.2396 473.26 43.0466 473.303L43.0676 471.998C41.2806 471.955 39.4806 471.855 37.7206 471.7L37.6426 473.002Z" fill="#C6C6F7"/>
<path d="M2.61426 460.492C4.15826 461.595 5.76426 462.64 7.39126 463.599L7.86226 462.426C6.26226 461.481 4.68026 460.452 3.16126 459.367L2.61426 460.492Z" fill="#C6C6F7"/>
<path d="M-4.25327 453.095L-4.94727 454.092C-3.98027 455.081 -2.95527 456.043 -1.89927 456.95C-1.46927 457.32 -1.03427 457.682 -0.598266 458.039L0.00373459 456.955C-0.426265 456.606 -0.852266 456.249 -1.27627 455.884C-2.30827 454.999 -3.30927 454.06 -4.25327 453.095Z" fill="#C6C6F7"/>
<path d="M28.5117 471.661C30.2607 472.024 32.0637 472.334 33.8707 472.579L33.9907 471.281C32.2047 471.039 30.4227 470.734 28.6947 470.373L28.5117 471.661Z" fill="#C6C6F7"/>
<path d="M19.5352 469.196C21.2452 469.789 23.0132 470.324 24.7892 470.788L25.0162 469.513C23.2622 469.054 21.5182 468.525 19.8312 467.941L19.5352 469.196Z" fill="#C6C6F7"/>
<path d="M64.9219 469.876L65.1089 471.161C66.8789 470.781 68.6619 470.349 70.4079 469.876L70.1719 468.601C68.4429 469.07 66.6769 469.5 64.9219 469.876Z" fill="#C6C6F7"/>
<path d="M496.837 355.739C496.232 353.694 495.637 351.645 495.065 349.593L494.045 350.011C494.619 352.071 495.217 354.128 495.824 356.18L496.837 355.739Z" fill="#C6C6F7"/>
<path d="M497.633 362.214C498.076 363.681 498.519 365.146 498.956 366.607L499.968 366.163C499.531 364.699 499.088 363.233 498.644 361.764L498.12 360.028L497.108 360.477L497.633 362.214Z" fill="#C6C6F7"/>
<path d="M497.694 286.33L496.787 285.624C495.818 287.455 494.915 289.381 494.102 291.349L495.066 291.933C495.862 290.006 496.746 288.121 497.694 286.33Z" fill="#C6C6F7"/>
<path d="M503.238 277.684L502.449 276.797C501.205 278.421 500.031 280.119 498.961 281.843L499.822 282.628C500.869 280.938 502.019 279.276 503.238 277.684Z" fill="#C6C6F7"/>
<path d="M489.425 328.475C489.687 330.535 490.03 332.704 490.444 334.919L491.494 334.631C491.086 332.445 490.748 330.308 490.49 328.277L489.425 328.475Z" fill="#C6C6F7"/>
<path d="M493.525 296.039L492.53 295.542C491.853 297.531 491.242 299.615 490.713 301.741L491.744 302.118C492.263 300.033 492.863 297.988 493.525 296.039Z" fill="#C6C6F7"/>
<path d="M490.029 323.788C489.874 321.772 489.796 319.777 489.796 317.852L489.797 317.347L488.72 317.337L488.719 317.857C488.719 319.817 488.799 321.853 488.957 323.908L490.029 323.788Z" fill="#C6C6F7"/>
<path d="M490.789 306.483L489.737 306.2C489.35 308.316 489.07 310.511 488.905 312.724L489.978 312.841C490.139 310.684 490.412 308.544 490.789 306.483Z" fill="#C6C6F7"/>
<path d="M254.579 407.368C256.355 407.664 258.127 407.98 259.894 408.319L260.062 407.029C258.286 406.69 256.508 406.371 254.726 406.075L254.579 407.368Z" fill="#C6C6F7"/>
<path d="M493.898 450.227L494.767 451C495.839 449.233 496.859 447.402 497.8 445.559L496.885 444.873C495.958 446.685 494.953 448.486 493.898 450.227Z" fill="#C6C6F7"/>
<path d="M498.758 440.957L499.705 441.579C500.569 439.642 501.369 437.655 502.083 435.671L501.096 435.148C500.393 437.1 499.607 439.054 498.758 440.957Z" fill="#C6C6F7"/>
<path d="M474.055 472.528L474.636 473.627C476.157 472.448 477.658 471.197 479.094 469.911L478.454 468.86C477.036 470.13 475.556 471.364 474.055 472.528Z" fill="#C6C6F7"/>
<path d="M449.102 485.387L449.355 486.657C451.102 486.144 452.858 485.557 454.571 484.91L454.251 483.663C452.559 484.302 450.827 484.882 449.102 485.387Z" fill="#C6C6F7"/>
<path d="M466.146 477.919L466.621 479.089C468.246 478.121 469.852 477.084 471.397 476.006L470.861 474.874C469.336 475.938 467.75 476.963 466.146 477.919Z" fill="#C6C6F7"/>
<path d="M457.793 482.217L458.159 483.446C459.849 482.706 461.54 481.889 463.187 481.019L462.756 479.823C461.13 480.682 459.46 481.488 457.793 482.217Z" fill="#C6C6F7"/>
<path d="M492.395 339.034L491.355 339.373C491.801 341.386 492.296 343.441 492.872 345.657L493.899 345.264C493.329 343.068 492.837 341.03 492.395 339.034Z" fill="#C6C6F7"/>
<path d="M440.177 487.381L440.312 488.676C442.09 488.403 443.888 488.053 445.657 487.636L445.451 486.353C443.704 486.765 441.93 487.111 440.177 487.381Z" fill="#C6C6F7"/>
<path d="M488.062 458.631L488.841 459.534C490.095 457.947 491.306 456.296 492.437 454.627L491.605 453.798C490.49 455.441 489.298 457.068 488.062 458.631Z" fill="#C6C6F7"/>
<path d="M481.402 466.084L482.084 467.095C483.488 465.704 484.857 464.248 486.152 462.767L485.414 461.818C484.136 463.278 482.786 464.712 481.402 466.084Z" fill="#C6C6F7"/>
<path d="M431.123 488.153L431.138 489.459C432.923 489.431 434.743 489.328 436.546 489.15L436.46 487.85C434.681 488.023 432.885 488.125 431.123 488.153Z" fill="#C6C6F7"/>
<path d="M324.113 432.778C325.722 433.835 327.287 434.92 328.761 436.004L329.318 434.887C327.83 433.793 326.251 432.698 324.625 431.631L324.113 432.778Z" fill="#C6C6F7"/>
<path d="M227.272 404.667C229.052 404.72 230.842 404.798 232.639 404.9L232.689 403.597C230.884 403.492 229.086 403.415 227.299 403.361L227.272 404.667Z" fill="#C6C6F7"/>
<path d="M236.392 405.153C238.176 405.291 239.964 405.451 241.756 405.637L241.849 404.337C240.049 404.151 238.253 403.988 236.462 403.85L236.392 405.153Z" fill="#C6C6F7"/>
<path d="M218.128 403.331L218.148 404.637C219.447 404.608 220.752 404.592 222.064 404.592L223.515 404.598L223.521 403.293L222.063 403.287C220.746 403.286 219.434 403.301 218.128 403.331Z" fill="#C6C6F7"/>
<path d="M208.961 403.801L209.033 405.104C210.794 404.961 212.597 404.846 214.392 404.765L214.352 403.459C212.545 403.542 210.732 403.657 208.961 403.801Z" fill="#C6C6F7"/>
<path d="M281.451 413.604C283.199 414.131 284.932 414.678 286.65 415.245L286.934 413.985C285.208 413.415 283.467 412.866 281.712 412.337L281.451 413.604Z" fill="#C6C6F7"/>
<path d="M272.56 411.14C274.316 411.586 276.063 412.054 277.797 412.542L278.041 411.27C276.298 410.779 274.545 410.311 272.781 409.862L272.56 411.14Z" fill="#C6C6F7"/>
<path d="M245.505 406.06C247.286 406.279 249.067 406.52 250.849 406.783L250.979 405.488C249.191 405.223 247.402 404.982 245.614 404.763L245.505 406.06Z" fill="#C6C6F7"/>
<path d="M203.669 404.33C202.369 404.486 201.09 404.654 199.83 404.836L199.956 406.131C201.21 405.951 202.483 405.783 203.774 405.63C204.276 405.57 204.782 405.513 205.288 405.458L205.193 404.158C204.683 404.213 204.175 404.27 203.669 404.33Z" fill="#C6C6F7"/>
<path d="M263.602 409.063C265.367 409.433 267.128 409.824 268.88 410.239L269.086 408.956C267.325 408.542 265.558 408.148 263.785 407.775L263.602 409.063Z" fill="#C6C6F7"/>
<path d="M147.411 423.893L147.893 425.061C149.531 424.07 151.155 423.121 152.722 422.238L152.268 421.055C150.692 421.942 149.058 422.897 147.411 423.893Z" fill="#C6C6F7"/>
<path d="M139.292 429.044L139.808 430.189C141.377 429.151 142.954 428.131 144.544 427.129L144.047 425.971C142.451 426.976 140.868 428.001 139.292 429.044Z" fill="#C6C6F7"/>
<path d="M155.71 419.169L156.142 420.365C157.785 419.492 159.448 418.649 161.083 417.86L160.684 416.646C159.039 417.442 157.364 418.291 155.71 419.169Z" fill="#C6C6F7"/>
<path d="M190.758 406.429L190.941 407.717C192.675 407.354 194.455 407.017 196.235 406.715L196.086 405.422C194.295 405.725 192.502 406.064 190.758 406.429Z" fill="#C6C6F7"/>
<path d="M131.314 434.454L131.848 435.589C133.407 434.508 134.963 433.441 136.519 432.388L135.994 431.248C134.435 432.304 132.876 433.373 131.314 434.454Z" fill="#C6C6F7"/>
<path d="M181.771 408.629L182.015 409.901C183.74 409.414 185.502 408.955 187.252 408.538L187.044 407.258C185.282 407.678 183.509 408.14 181.771 408.629Z" fill="#C6C6F7"/>
<path d="M172.908 411.483L173.217 412.735C174.918 412.118 176.653 411.53 178.374 410.987L178.103 409.724C176.37 410.27 174.622 410.862 172.908 411.483Z" fill="#C6C6F7"/>
<path d="M164.212 415.008L164.584 416.232C166.274 415.477 167.975 414.758 169.641 414.095L169.304 412.854C167.627 413.522 165.914 414.247 164.212 415.008Z" fill="#C6C6F7"/>
<path d="M123.389 439.972L123.925 441.104L128.585 437.855L128.049 436.723L123.389 439.972Z" fill="#C6C6F7"/>
<path d="M378.105 474.369C379.742 475.408 381.366 476.391 382.934 477.29L383.395 476.109C381.84 475.218 380.229 474.244 378.606 473.212L378.105 474.369Z" fill="#C6C6F7"/>
<path d="M386.378 479.184C388.061 480.067 389.745 480.892 391.384 481.637L391.762 480.414C390.14 479.677 388.473 478.86 386.808 477.985L386.378 479.184Z" fill="#C6C6F7"/>
<path d="M370.109 468.94C371.701 470.087 373.275 471.183 374.784 472.198L375.306 471.056C373.807 470.048 372.244 468.959 370.659 467.819L370.109 468.94Z" fill="#C6C6F7"/>
<path d="M362.317 463.102C363.858 464.298 365.376 465.457 366.878 466.575L367.442 465.463C365.946 464.348 364.433 463.194 362.898 462.003L362.317 463.102Z" fill="#C6C6F7"/>
<path d="M403.795 486.162C405.533 486.645 407.315 487.077 409.092 487.45L409.275 486.162C407.517 485.795 405.754 485.366 404.034 484.89L403.795 486.162Z" fill="#C6C6F7"/>
<path d="M290.268 416.479C292 417.088 293.713 417.718 295.407 418.368L295.733 417.124C294.031 416.471 292.309 415.839 290.569 415.224L290.268 416.479Z" fill="#C6C6F7"/>
<path d="M394.951 483.165C396.658 483.852 398.399 484.487 400.124 485.052L400.406 483.792C398.7 483.232 396.978 482.605 395.29 481.925L394.951 483.165Z" fill="#C6C6F7"/>
<path d="M354.665 457.025C356.188 458.257 357.684 459.455 359.156 460.62L359.745 459.527C358.276 458.363 356.784 457.167 355.263 455.938L354.665 457.025Z" fill="#C6C6F7"/>
<path d="M412.83 488.146C414.563 488.433 416.369 488.676 418.196 488.87L418.291 487.569C416.481 487.376 414.693 487.135 412.976 486.853L412.83 488.146Z" fill="#C6C6F7"/>
<path d="M307.556 423.56C309.23 424.352 310.9 425.18 312.521 426.022L312.946 424.821C311.313 423.974 309.632 423.141 307.947 422.344L307.556 423.56Z" fill="#C6C6F7"/>
<path d="M298.98 419.784C300.673 420.475 302.378 421.202 304.043 421.944L304.415 420.719C302.739 419.973 301.027 419.241 299.323 418.548L298.98 419.784Z" fill="#C6C6F7"/>
<path d="M315.952 427.862C317.608 428.78 319.234 429.726 320.788 430.673L321.272 429.508C319.707 428.552 318.068 427.599 316.401 426.674L315.952 427.862Z" fill="#C6C6F7"/>
<path d="M332.521 437.34L331.93 438.431L332.482 438.875C333.807 439.954 335.111 441.016 336.391 442.061L336.993 440.98C335.713 439.932 334.41 438.87 333.082 437.79L332.521 437.34Z" fill="#C6C6F7"/>
<path d="M339.509 444.614L343.96 448.273L344.566 447.192L340.113 443.533L339.509 444.614Z" fill="#C6C6F7"/>
<path d="M347.078 450.833C348.592 452.077 350.077 453.294 351.534 454.483L352.136 453.399C350.679 452.212 349.196 450.996 347.682 449.751L347.078 450.833Z" fill="#C6C6F7"/>
<path d="M421.966 489.199C423.711 489.32 425.526 489.402 427.358 489.441L427.377 488.135C425.558 488.095 423.758 488.015 422.027 487.895L421.966 489.199Z" fill="#C6C6F7"/>
<path d="M36.1473 65.2212H17.2373V66.5472H36.1473V65.2212Z" fill="#D9D9FF"/>
<path d="M55.0575 75.7402H36.1475V77.0662H55.0575V75.7402Z" fill="#D9D9FF"/>
<path d="M478.311 162.457H459.401V163.783H478.311V162.457Z" fill="#D9D9FF"/>
<path d="M466.307 172.975H447.397V174.301H466.307V172.975Z" fill="#D9D9FF"/>
<path d="M501.915 167.958H476.217V169.284H501.915V167.958Z" fill="#D9D9FF"/>
<path d="M340.475 451.621H326.868V452.947H340.475V451.621Z" fill="#D9D9FF"/>
<path d="M333.44 441.223H314.53V442.549H333.44V441.223Z" fill="#D9D9FF"/>
<path d="M114.193 41.1282H95.2832V42.4542H114.193V41.1282Z" fill="#D9D9FF"/>
<path d="M174.625 441.223H143.531V442.549H174.625V441.223Z" fill="#D9D9FF"/>
<path d="M197.336 441.223H181.195V442.549H197.336V441.223Z" fill="#D9D9FF"/>
<path d="M32.893 371.137H16.752V372.463H32.893V371.137Z" fill="#D9D9FF"/>
<path d="M199.176 367.755C195.444 367.755 192.409 364.72 192.409 360.989C192.409 357.257 195.444 354.222 199.176 354.222C202.908 354.222 205.943 357.257 205.943 360.989C205.942 364.72 202.907 367.755 199.176 367.755ZM199.176 355.548C196.176 355.548 193.735 357.989 193.735 360.989C193.735 363.989 196.176 366.43 199.176 366.43C202.176 366.43 204.617 363.989 204.617 360.989C204.617 357.989 202.176 355.548 199.176 355.548Z" fill="#D9D9FF"/>
<path d="M461.775 60.0291C458.045 60.0291 455.01 56.9941 455.01 53.2621C455.01 49.5311 458.045 46.4961 461.775 46.4961C465.507 46.4961 468.542 49.5311 468.542 53.2621C468.542 56.9941 465.507 60.0291 461.775 60.0291ZM461.775 47.8211C458.776 47.8211 456.336 50.2621 456.336 53.2621C456.336 56.2621 458.777 58.7031 461.775 58.7031C464.775 58.7031 467.216 56.2621 467.216 53.2621C467.216 50.2621 464.775 47.8211 461.775 47.8211Z" fill="#D9D9FF"/>
<path d="M187.057 49.8262C183.327 49.8262 180.292 46.7912 180.292 43.0602C180.292 39.3282 183.327 36.2932 187.057 36.2932C190.789 36.2932 193.824 39.3282 193.824 43.0602C193.823 46.7912 190.788 49.8262 187.057 49.8262ZM187.057 37.6182C184.058 37.6182 181.618 40.0592 181.618 43.0592C181.618 46.0592 184.059 48.5002 187.057 48.5002C190.057 48.5002 192.498 46.0592 192.498 43.0592C192.498 40.0592 190.057 37.6182 187.057 37.6182Z" fill="#D9D9FF"/>
<path d="M222.952 27.9022C220.911 27.9022 219.251 26.2421 219.251 24.2031C219.251 22.1641 220.911 20.5042 222.952 20.5042C224.991 20.5042 226.651 22.1641 226.651 24.2031C226.651 26.2421 224.991 27.9022 222.952 27.9022ZM222.952 21.8292C221.643 21.8292 220.577 22.8932 220.577 24.2022C220.577 25.5112 221.643 26.5752 222.952 26.5752C224.261 26.5752 225.325 25.5112 225.325 24.2022C225.325 22.8932 224.261 21.8292 222.952 21.8292Z" fill="#D9D9FF"/>
<path d="M288.712 378.329C286.673 378.329 285.013 376.669 285.013 374.63C285.013 372.589 286.673 370.929 288.712 370.929C290.753 370.929 292.413 372.589 292.413 374.63C292.412 376.669 290.752 378.329 288.712 378.329ZM288.712 372.255C287.403 372.255 286.339 373.321 286.339 374.63C286.339 375.939 287.403 377.003 288.712 377.003C290.021 377.003 291.087 375.939 291.087 374.63C291.087 373.321 290.021 372.255 288.712 372.255Z" fill="#D9D9FF"/>
<path d="M22.449 163.491C20.41 163.491 18.75 161.831 18.75 159.792C18.75 157.753 20.41 156.093 22.449 156.093C24.488 156.093 26.148 157.753 26.148 159.792C26.148 161.831 24.488 163.491 22.449 163.491ZM22.449 157.418C21.14 157.418 20.076 158.482 20.076 159.791C20.076 161.1 21.14 162.164 22.449 162.164C23.758 162.164 24.822 161.1 24.822 159.791C24.822 158.482 23.758 157.418 22.449 157.418Z" fill="#D9D9FF"/>
<path d="M207.492 474.2C205.451 474.2 203.791 472.54 203.791 470.501C203.791 468.462 205.451 466.802 207.492 466.802C209.531 466.802 211.191 468.462 211.191 470.501C211.191 472.54 209.531 474.2 207.492 474.2ZM207.492 468.127C206.183 468.127 205.117 469.191 205.117 470.5C205.117 471.809 206.183 472.873 207.492 472.873C208.801 472.873 209.865 471.809 209.865 470.5C209.865 469.191 208.801 468.127 207.492 468.127Z" fill="#D9D9FF"/>
<path d="M48.1443 356.543C46.1053 356.543 44.4453 354.883 44.4453 352.844C44.4453 350.805 46.1053 349.145 48.1443 349.145C50.1833 349.145 51.8433 350.805 51.8433 352.844C51.8433 354.883 50.1833 356.543 48.1443 356.543ZM48.1443 350.47C46.8353 350.47 45.7713 351.534 45.7713 352.843C45.7713 354.152 46.8353 355.216 48.1443 355.216C49.4533 355.216 50.5173 354.152 50.5173 352.843C50.5173 351.534 49.4533 350.47 48.1443 350.47Z" fill="#D9D9FF"/>
<path d="M70.7059 93.957H69.3799V101.143H70.7059V93.957Z" fill="#D9D9FF"/>
<path d="M73.6362 96.887H66.4502V98.213H73.6362V96.887Z" fill="#D9D9FF"/>
<path d="M365.644 24.2021H364.318V31.3881H365.644V24.2021Z" fill="#D9D9FF"/>
<path d="M368.575 27.1321H361.389V28.4581H368.575V27.1321Z" fill="#D9D9FF"/>
<path d="M444.468 248.153H443.142V255.339H444.468V248.153Z" fill="#D9D9FF"/>
<path d="M447.398 251.083H440.212V252.409H447.398V251.083Z" fill="#D9D9FF"/>
<path d="M448.06 91.531H446.734V98.717H448.06V91.531Z" fill="#D9D9FF"/>
<path d="M450.991 94.4609H443.805V95.7869H450.991V94.4609Z" fill="#D9D9FF"/>
<path d="M330.921 396.529H329.595V403.715H330.921V396.529Z" fill="#D9D9FF"/>
<path d="M333.851 399.46H326.665V400.786H333.851V399.46Z" fill="#D9D9FF"/>
<g opacity="0.59">
<path d="M403.939 64.6161C406.235 60.5761 408.113 56.2161 409.466 51.5581C410.819 46.9011 411.571 42.2131 411.797 37.5721L399.026 35.8041C399.131 31.4961 398.641 27.2521 397.622 23.1681L409.715 18.6521C407.19 9.48511 402.535 1.01511 396.148 -6.02889L385.854 1.76011C382.952 -1.28889 379.632 -3.97789 375.938 -6.19789L381.29 -17.9279C377.25 -20.2239 372.89 -22.1019 368.232 -23.4549C363.574 -24.8079 358.887 -25.5589 354.246 -25.7859L352.477 -13.0149C348.169 -13.1199 343.925 -12.6299 339.841 -11.6109L335.325 -23.7039C326.158 -21.1789 317.688 -16.5229 310.644 -10.1369L318.434 0.15711C315.385 3.05911 312.696 6.37911 310.476 10.0731L298.746 4.72211C296.45 8.76211 294.572 13.1221 293.219 17.7801C291.865 22.4381 291.115 27.1251 290.888 31.7661L303.659 33.5351C303.554 37.8431 304.045 42.0871 305.064 46.1711L292.971 50.6871C295.496 59.8541 300.152 68.3241 306.538 75.3681L316.831 67.5791C319.733 70.6281 323.053 73.3171 326.747 75.5371L321.396 87.2671C325.436 89.5631 329.796 91.4411 334.453 92.7951C339.111 94.1481 343.798 94.8991 348.44 95.1261L350.208 82.3551C354.517 82.4611 358.76 81.9701 362.844 80.9511L367.36 93.0441C376.527 90.5191 384.997 85.8631 392.041 79.4771L384.252 69.1841C387.301 66.2821 389.99 62.9621 392.21 59.2681L403.939 64.6161ZM342.819 64.0001C326.619 59.2931 317.303 42.3441 322.01 26.1451C326.717 9.94511 343.666 0.62911 359.865 5.33711C376.065 10.0441 385.381 26.9931 380.673 43.1921C375.966 59.3911 359.018 68.7071 342.819 64.0001ZM345.057 56.2981C333.111 52.8271 326.241 40.3291 329.712 28.3821C333.183 16.4361 345.682 9.56611 357.628 13.0371C369.574 16.5081 376.444 29.0061 372.973 40.9531C369.502 52.9001 357.003 59.7701 345.057 56.2981Z" fill="#C6C6F7"/>
</g>
<g opacity="0.59">
<path d="M322.457 468.434C322.148 464.893 321.436 461.332 320.264 457.811C319.092 454.29 317.529 451.013 315.655 447.992L306.846 452.427C305.04 449.669 302.888 447.21 300.472 445.081L306.124 436.984C300.551 432.309 293.94 428.999 286.859 427.338L283.762 436.715C280.61 436.056 277.352 435.805 274.061 436.013L272.334 426.302C268.792 426.612 265.232 427.324 261.711 428.495C258.19 429.666 254.913 431.23 251.892 433.104L256.327 441.913C253.569 443.718 251.11 445.871 248.981 448.287L240.884 442.635C236.209 448.208 232.899 454.819 231.238 461.9L240.615 464.997C239.956 468.149 239.705 471.407 239.913 474.698L230.202 476.425C230.512 479.966 231.223 483.527 232.395 487.048C233.566 490.569 235.13 493.846 237.004 496.867L245.813 492.432C247.618 495.19 249.771 497.649 252.187 499.777L246.535 507.874C252.108 512.549 258.719 515.859 265.8 517.52L268.897 508.144C272.049 508.803 275.307 509.054 278.598 508.847L280.325 518.557C283.866 518.247 287.427 517.536 290.948 516.364C294.469 515.192 297.746 513.629 300.767 511.755L296.332 502.946C299.09 501.141 301.549 498.988 303.678 496.572L311.775 502.224C316.45 496.652 319.76 490.04 321.421 482.959L312.045 479.862C312.704 476.71 312.954 473.452 312.748 470.162L322.457 468.434ZM282.538 491.087C272.234 494.516 261.101 488.942 257.672 478.638C254.243 468.334 259.817 457.201 270.121 453.773C280.425 450.344 291.558 455.918 294.986 466.222C298.416 476.526 292.842 487.659 282.538 491.087Z" fill="#C6C6F7"/>
</g>
<g opacity="0.59">
<path d="M130.877 179.688C130.627 176.831 130.053 173.958 129.108 171.118C128.163 168.278 126.902 165.634 125.39 163.197L118.283 166.775C116.826 164.55 115.09 162.566 113.141 160.849L117.7 154.317C113.204 150.546 107.871 147.875 102.158 146.536L99.6602 154.1C97.1172 153.568 94.4891 153.366 91.8341 153.533L90.4412 145.699C87.5842 145.949 84.7122 146.523 81.8712 147.468C79.0312 148.413 76.3871 149.675 73.9501 151.186L77.5281 158.293C75.3031 159.749 73.3191 161.486 71.6021 163.435L65.0701 158.876C61.2991 163.371 58.6282 168.705 57.2892 174.418L64.8531 176.916C64.3211 179.459 64.1192 182.087 64.2862 184.742L56.4521 186.135C56.7021 188.992 57.2761 191.865 58.2211 194.705C59.1661 197.545 60.4281 200.189 61.9391 202.626L69.0461 199.048C70.5031 201.273 72.2392 203.257 74.1892 204.974L69.6291 211.506C74.1241 215.277 79.4581 217.948 85.1711 219.287L87.6691 211.723C90.2121 212.255 92.8412 212.457 95.4952 212.29L96.8881 220.124C99.7451 219.874 102.618 219.3 105.458 218.355C108.298 217.41 110.942 216.148 113.379 214.637L109.801 207.53C112.026 206.073 114.01 204.337 115.727 202.388L122.259 206.947C126.03 202.452 128.7 197.119 130.04 191.406L122.476 188.908C123.007 186.365 123.21 183.737 123.043 181.082L130.877 179.688ZM98.6732 197.963C90.3602 200.729 81.3791 196.232 78.6131 187.92C75.8471 179.608 80.3441 170.626 88.6561 167.861C96.9691 165.095 105.95 169.591 108.716 177.904C111.482 186.216 106.986 195.197 98.6732 197.963Z" fill="#C6C6F7"/>
</g>
<g opacity="0.59">
<path d="M59.6808 238.875C60.7428 237.006 61.6118 234.989 62.2378 232.834C62.8638 230.68 63.2118 228.511 63.3158 226.364L57.4078 225.546C57.4568 223.553 57.2298 221.59 56.7578 219.7L62.3518 217.611C61.1838 213.37 59.0298 209.452 56.0758 206.194L51.3138 209.797C49.9718 208.387 48.4358 207.143 46.7268 206.116L49.2018 200.69C47.3328 199.628 45.3158 198.759 43.1618 198.133C41.0068 197.507 38.8388 197.16 36.6918 197.055L35.8738 202.963C33.8808 202.914 31.9178 203.141 30.0278 203.613L27.9388 198.019C23.6978 199.187 19.7798 201.341 16.5218 204.295L20.1248 209.057C18.7138 210.399 17.4708 211.935 16.4438 213.644L11.0178 211.168C9.95581 213.037 9.08681 215.054 8.46081 217.209C7.83481 219.364 7.48781 221.532 7.38281 223.679L13.2908 224.497C13.2418 226.49 13.4698 228.453 13.9408 230.342L8.34681 232.431C9.51481 236.672 11.6688 240.59 14.6228 243.849L19.3848 240.246C20.7278 241.657 22.2628 242.9 23.9718 243.927L21.4958 249.353C23.3648 250.415 25.3818 251.284 27.5358 251.91C29.6908 252.536 31.8588 252.883 34.0058 252.988L34.8238 247.08C36.8168 247.129 38.7798 246.902 40.6688 246.43L42.7578 252.024C46.9988 250.856 50.9168 248.702 54.1748 245.748L50.5718 240.986C51.9818 239.644 53.2258 238.108 54.2528 236.399L59.6808 238.875ZM31.4068 238.59C23.9128 236.412 19.6028 228.572 21.7808 221.078C23.9588 213.584 31.7988 209.274 39.2928 211.452C46.7868 213.63 51.0958 221.47 48.9188 228.964C46.7408 236.458 38.8998 240.768 31.4068 238.59ZM32.4418 235.028C26.9158 233.422 23.7378 227.641 25.3428 222.114C26.9488 216.588 32.7308 213.41 38.2568 215.015C43.7828 216.621 46.9608 222.403 45.3548 227.929C43.7498 233.455 37.9678 236.633 32.4418 235.028Z" fill="#C6C6F7"/>
</g>
<g opacity="0.59">
<path d="M523.533 249.401C524.834 247.113 525.898 244.643 526.664 242.004C527.431 239.366 527.856 236.71 527.985 234.081L520.75 233.079C520.81 230.638 520.531 228.234 519.954 225.921L526.804 223.363C525.374 218.17 522.736 213.372 519.119 209.382L513.288 213.794C511.644 212.067 509.764 210.544 507.671 209.286L510.702 202.641C508.413 201.34 505.944 200.277 503.305 199.51C500.666 198.743 498.011 198.318 495.382 198.189L494.38 205.424C491.94 205.364 489.535 205.642 487.222 206.22L484.664 199.37C479.471 200.8 474.673 203.438 470.683 207.055L475.095 212.886C473.368 214.53 471.845 216.411 470.587 218.503L463.942 215.471C462.641 217.76 461.577 220.229 460.811 222.868C460.044 225.507 459.619 228.162 459.491 230.791L466.725 231.793C466.666 234.233 466.944 236.637 467.521 238.951L460.671 241.509C462.101 246.702 464.739 251.5 468.356 255.49L474.187 251.078C475.831 252.805 477.712 254.328 479.804 255.586L476.773 262.231C479.061 263.532 481.531 264.596 484.17 265.362C486.809 266.129 489.464 266.554 492.093 266.682L493.095 259.447C495.536 259.507 497.94 259.229 500.253 258.651L502.811 265.501C508.004 264.071 512.802 261.433 516.792 257.816L512.379 251.985C514.106 250.341 515.629 248.461 516.887 246.368L523.533 249.401ZM488.91 249.052C479.733 246.385 474.456 236.784 477.122 227.608C479.789 218.431 489.39 213.154 498.566 215.82C507.743 218.487 513.02 228.088 510.353 237.264C507.688 246.442 498.087 251.719 488.91 249.052ZM490.178 244.689C483.411 242.723 479.519 235.643 481.486 228.875C483.452 222.108 490.532 218.216 497.3 220.182C504.067 222.149 507.959 229.229 505.992 235.996C504.025 242.764 496.945 246.656 490.178 244.689Z" fill="#C6C6F7"/>
</g>
</g>
</g>
<mask id="mask1_27_9283" style="mask-type:luminance" maskUnits="userSpaceOnUse" x="0" y="0" width="500" height="500">
<path d="M500 0H0V500H500V0Z" fill="white"/>
</mask>
<g mask="url(#mask1_27_9283)">
<path d="M256.998 390.926V342.645H252.944V285.013H247.755V342.645H243.701V390.322L199.177 418.317L202.803 424.119L243.701 401.23H256.038L296.935 424.119L300.562 418.317L256.998 390.926Z" fill="#D800C1" fill-opacity="0.91"/>
<path d="M408.93 316.076H90.6934V88.0569C90.6934 83.8899 94.0714 80.5129 98.2384 80.5129H401.386C405.553 80.5129 408.93 83.8909 408.93 88.0569V316.076Z" fill="#D9D9FF"/>
<path d="M410.96 85.1439H89.0396C85.3676 85.1439 82.3916 83.0699 82.3916 80.5119C82.3916 77.9539 85.3686 75.8799 89.0396 75.8799H410.96C414.632 75.8799 417.608 77.9539 417.608 80.5119C417.609 83.0709 414.632 85.1439 410.96 85.1439Z" fill="#D800C1" fill-opacity="0.91"/>
<path d="M148.395 250.838H121.199V306.822H148.395V250.838Z" fill="#7612FA"/>
<path d="M192.472 232.357H165.276V306.822H192.472V232.357Z" fill="#7612FA"/>
<path d="M236.55 217.31H209.354V306.822H236.55V217.31Z" fill="#7612FA"/>
<path d="M280.627 194.314H253.431V306.822H280.627V194.314Z" fill="#7612FA"/>
<path d="M324.704 196.526H297.507V306.822H324.704V196.526Z" fill="#7612FA"/>
<path d="M368.78 170.321H341.584V306.822H368.78V170.321Z" fill="#7612FA"/>
<path d="M109.865 255.657L107.704 252.939L154.62 215.617H201.698L236.129 186.067L309.751 186.051L366.252 125.843L368.784 128.22L311.255 189.524L237.416 189.539L202.983 219.09H155.832L109.865 255.657Z" fill="#7612FA"/>
<path d="M360.565 157.889C373.705 152.446 379.945 137.381 374.502 124.241C369.059 111.101 353.995 104.861 340.855 110.304C327.715 115.747 321.475 130.812 326.918 143.952C332.361 157.092 347.425 163.332 360.565 157.889Z" fill="#7612FA"/>
<path d="M354.238 152.403C364.342 150.458 370.955 140.69 369.01 130.586C367.064 120.482 357.296 113.868 347.192 115.814C337.088 117.76 330.475 127.528 332.42 137.632C334.366 147.735 344.134 154.349 354.238 152.403Z" fill="white"/>
<path d="M337.903 134.1C337.903 141.167 343.632 146.896 350.7 146.896C357.768 146.896 363.497 141.167 363.497 134.1C363.497 127.032 357.768 121.303 350.7 121.303C343.632 121.303 337.903 127.033 337.903 134.1Z" fill="#7612FA"/>
<path d="M343.997 134.1C343.997 137.802 346.998 140.803 350.701 140.803C354.404 140.803 357.405 137.802 357.405 134.1C357.405 130.398 354.404 127.396 350.701 127.396C346.998 127.396 343.997 130.398 343.997 134.1Z" fill="white"/>
<path d="M349.663 135.138H353.872L349.663 130.928V135.138Z" fill="#243956"/>
<path d="M376.958 107.843H381.775V106.629H378.172V103.026H376.958V107.843Z" fill="#243956"/>
<path d="M379.163 105.638H383.979V104.424H380.377V100.822H379.163V105.638Z" fill="#243956"/>
<path d="M379.536 104.4L350.411 133.524L351.27 134.383L380.394 105.258L379.536 104.4Z" fill="#243956"/>
<path d="M157.737 211.947C168.284 207.529 173.253 195.398 168.836 184.851C164.419 174.304 152.288 169.335 141.741 173.752C131.194 178.169 126.224 190.3 130.642 200.847C135.059 211.394 147.19 216.364 157.737 211.947Z" fill="#1A004C"/>
<path d="M167.114 193.182C167.299 183.576 159.662 175.638 150.056 175.453C140.45 175.267 132.512 182.904 132.327 192.511C132.142 202.117 139.779 210.054 149.385 210.24C158.991 210.425 166.929 202.788 167.114 193.182Z" fill="white"/>
<path d="M149.732 210.526C145.09 210.526 140.454 208.715 136.988 205.114C133.713 201.711 131.959 197.236 132.05 192.514C132.14 187.792 134.065 183.388 137.468 180.113C144.494 173.353 155.709 173.567 162.469 180.593C169.229 187.618 169.014 198.833 161.989 205.594C158.565 208.888 154.146 210.526 149.732 210.526ZM149.726 175.748C145.454 175.748 141.177 177.333 137.863 180.522C134.569 183.691 132.707 187.954 132.619 192.524C132.531 197.094 134.229 201.425 137.398 204.719C143.94 211.518 154.796 211.727 161.595 205.183C168.394 198.64 168.603 187.785 162.059 180.986C158.706 177.502 154.219 175.748 149.726 175.748Z" fill="#7612FA"/>
<path d="M138.815 182.834C139.139 183.17 139.674 183.18 140.01 182.857C140.346 182.533 140.357 181.998 140.033 181.662C139.709 181.326 139.174 181.315 138.838 181.639C138.502 181.963 138.492 182.498 138.815 182.834Z" fill="#1A004C"/>
<path d="M134.942 193.522C135.408 193.531 135.794 193.16 135.803 192.693C135.812 192.226 135.441 191.841 134.974 191.832C134.507 191.823 134.122 192.194 134.113 192.661C134.104 193.127 134.475 193.513 134.942 193.522Z" fill="#1A004C"/>
<path d="M139.76 203.818C140.096 203.494 140.107 202.959 139.783 202.623C139.459 202.287 138.925 202.277 138.588 202.6C138.252 202.924 138.241 203.459 138.565 203.795C138.889 204.131 139.424 204.141 139.76 203.818Z" fill="#1A004C"/>
<path d="M150.448 207.691C150.457 207.224 150.086 206.839 149.619 206.83C149.152 206.821 148.767 207.192 148.758 207.659C148.749 208.126 149.12 208.511 149.587 208.52C150.053 208.528 150.439 208.157 150.448 207.691Z" fill="#1A004C"/>
<path d="M160.744 202.872C160.42 202.536 159.885 202.526 159.549 202.849C159.213 203.173 159.202 203.708 159.526 204.044C159.85 204.38 160.385 204.39 160.721 204.067C161.057 203.743 161.067 203.208 160.744 202.872Z" fill="#1A004C"/>
<path d="M164.617 192.184C164.15 192.175 163.765 192.546 163.756 193.013C163.747 193.48 164.118 193.865 164.585 193.874C165.052 193.883 165.437 193.512 165.446 193.045C165.454 192.579 165.083 192.193 164.617 192.184Z" fill="#1A004C"/>
<path d="M159.798 181.889C159.462 182.213 159.451 182.748 159.775 183.084C160.099 183.42 160.634 183.43 160.97 183.107C161.306 182.783 161.317 182.248 160.993 181.912C160.669 181.575 160.134 181.565 159.798 181.889Z" fill="#1A004C"/>
<path d="M149.111 178.016C149.102 178.483 149.473 178.868 149.94 178.877C150.406 178.886 150.792 178.515 150.801 178.048C150.81 177.581 150.439 177.196 149.972 177.187C149.506 177.178 149.12 177.549 149.111 178.016Z" fill="#1A004C"/>
<path d="M155.227 212.818C148.15 214.76 140.259 212.87 134.812 207.209C126.883 198.97 127.135 185.863 135.374 177.934C138.055 175.354 141.253 173.646 144.619 172.791L155.227 212.818Z" fill="#ECECED"/>
<path d="M149.834 194.174C149.705 194.174 149.573 194.156 149.442 194.119L140.855 191.659C140.101 191.443 139.664 190.656 139.881 189.902C140.097 189.148 140.883 188.71 141.638 188.928L150.225 191.388C150.979 191.604 151.415 192.391 151.199 193.145C151.021 193.768 150.452 194.174 149.834 194.174Z" fill="#7612FA"/>
<path d="M149.833 193.605C149.727 193.605 149.619 193.586 149.515 193.543C149.078 193.367 148.867 192.871 149.043 192.434L153.03 182.533C153.206 182.096 153.701 181.884 154.139 182.061C154.576 182.237 154.787 182.734 154.611 183.17L150.624 193.071C150.491 193.404 150.171 193.605 149.833 193.605Z" fill="#7612FA"/>
<path d="M149.438 193.134C149.649 193.353 149.997 193.359 150.215 193.149C150.434 192.938 150.44 192.59 150.23 192.372C150.019 192.153 149.671 192.146 149.453 192.357C149.234 192.567 149.227 192.915 149.438 193.134Z" fill="white"/>
<path d="M149.834 193.587C149.615 193.587 149.396 193.502 149.233 193.332V193.331C148.915 193 148.925 192.471 149.256 192.153C149.417 191.998 149.62 191.92 149.85 191.92C150.072 191.924 150.28 192.015 150.435 192.175C150.754 192.507 150.744 193.036 150.412 193.355C150.25 193.509 150.042 193.587 149.834 193.587ZM149.642 192.937C149.744 193.042 149.912 193.045 150.018 192.944C150.124 192.842 150.127 192.674 150.025 192.568C149.976 192.517 149.91 192.488 149.839 192.487C149.765 192.495 149.7 192.512 149.649 192.561C149.544 192.663 149.541 192.831 149.642 192.937Z" fill="#1A004C"/>
<path d="M224.287 161.21C224.155 160.868 224.012 160.531 223.857 160.2L227.263 153.522L226.101 152.497L223.196 149.936L222.034 148.911L216.513 152.666C215.865 152.342 215.192 152.062 214.498 151.827L212.875 145.497H211.326H207.453H205.904L204.284 151.814C203.576 152.052 202.89 152.336 202.23 152.666L196.708 148.911L195.546 149.936L192.641 152.497L191.479 153.522L194.885 160.2C194.732 160.527 194.59 160.861 194.459 161.2L188.032 162.848V164.397V168.27V169.819L193.989 171.347C194.133 171.854 194.301 172.351 194.492 172.836L191.045 179.595L192.207 180.62L195.112 183.181L196.274 184.206L201.306 180.784C202.158 181.283 203.061 181.707 204.004 182.043L205.434 187.62H206.983H210.856H212.405L213.755 182.355C214.88 182.035 215.956 181.599 216.965 181.053L221.601 184.205L222.763 183.18L225.668 180.619L226.83 179.594L223.854 173.759C224.218 172.984 224.519 172.174 224.756 171.336L230.675 169.818V168.269V164.396V162.847L224.287 161.21ZM217.217 166.975C217.217 171.083 213.887 174.413 209.779 174.413C205.671 174.413 202.34 171.083 202.34 166.975C202.34 162.867 205.67 159.536 209.779 159.536C213.887 159.537 217.217 162.867 217.217 166.975Z" fill="#7612FA"/>
<path d="M296.809 146.077C296.809 137.002 289.452 129.645 280.377 129.645C271.302 129.645 263.945 137.002 263.945 146.077C263.945 155.152 279.582 169.4 279.582 169.4C279.582 169.4 296.809 155.152 296.809 146.077Z" fill="#7612FA"/>
<path d="M279.582 169.4C279.582 169.4 296.809 155.152 296.809 146.077C296.809 137.002 289.452 129.645 280.377 129.645" fill="#1A004C"/>
<path d="M275.607 161.979C275.607 161.979 277.727 144.752 275.342 145.812C272.957 146.872 271.632 149.522 274.282 150.053C276.932 150.583 287.534 150.053 287.534 150.053C287.534 150.053 288.479 147.039 286.739 146.342C284.089 145.282 284.089 155.353 283.558 162.509" stroke="white" stroke-miterlimit="10"/>
<path d="M286.209 165.689H272.957C271.932 165.689 271.102 164.858 271.102 163.834C271.102 162.809 271.933 161.979 272.957 161.979H286.209C287.234 161.979 288.064 162.81 288.064 163.834C288.064 164.859 287.234 165.689 286.209 165.689Z" fill="#232D3F"/>
<path d="M279.847 174.17C275.602 174.17 272.161 170.729 272.161 166.484V165.159H287.533V166.484C287.533 170.729 284.092 174.17 279.847 174.17Z" fill="#232D3F" stroke="#E9E9EA" stroke-width="0.4326" stroke-miterlimit="10"/>
<path d="M250.75 146.181H258.219" stroke="#232D3F" stroke-miterlimit="10" stroke-linecap="round"/>
<path d="M303.034 146.181H310.503" stroke="#232D3F" stroke-miterlimit="10" stroke-linecap="round"/>
<path d="M259.5 125.055L264.782 130.337" stroke="#232D3F" stroke-miterlimit="10" stroke-linecap="round"/>
<path d="M296.471 162.026L301.752 167.307" stroke="#232D3F" stroke-miterlimit="10" stroke-linecap="round"/>
<path d="M280.626 116.305V123.774" stroke="#232D3F" stroke-miterlimit="10" stroke-linecap="round"/>
<path d="M301.752 125.055L296.471 130.337" stroke="#232D3F" stroke-miterlimit="10" stroke-linecap="round"/>
<path d="M264.782 162.026L259.5 167.307" stroke="#232D3F" stroke-miterlimit="10" stroke-linecap="round"/>
<path d="M213.738 103.14H107.54V107.719H213.738V103.14Z" fill="#7612FA"/>
<path d="M213.738 114.015H107.54V118.594H213.738V114.015Z" fill="#7612FA"/>
<path d="M213.738 124.891H107.54V129.47H213.738V124.891Z" fill="#7612FA"/>
</g>
<mask id="mask2_27_9283" style="mask-type:luminance" maskUnits="userSpaceOnUse" x="0" y="0" width="500" height="500">
<path d="M500 0H0V500H500V0Z" fill="white"/>
</mask>
<g mask="url(#mask2_27_9283)">
<path d="M155.938 388.15C159.155 395.277 171.866 414.397 170.904 415.677C169.942 416.957 165.383 410.29 164.789 411.489C164.196 412.687 170.516 423.419 169.215 424.442C167.45 425.827 161.565 414.489 161.565 414.489C161.565 414.489 167.392 427.229 165.514 427.988C164.183 428.526 159.289 419.007 156.963 415.605C159.015 419.613 161.57 426.503 160.177 427.033C158.795 427.557 155.326 421.149 152.405 416.379C153.949 419.526 156.451 425.403 155.187 425.953C153.927 426.501 141.368 409.451 132.957 394.98" fill="#FF9783"/>
<path d="M116.988 298.137C138.481 356.611 162.139 399.266 162.139 399.266L144.819 411.819C144.819 411.819 111.788 367.745 88.0117 317.265" fill="#FF9783"/>
<path d="M109.213 280.171C117.337 293.613 122.867 312.896 122.867 312.896L91.1483 331.74L72.1963 297.868" fill="#E89DE8"/>
<path d="M151.951 497.354L136.764 697.366L154.733 708.807C154.733 708.807 105.346 711.376 103.741 709.76C102.135 708.142 105.767 697.064 105.767 697.064L97.5205 496.879L151.951 497.354Z" fill="#FF9783"/>
<path d="M112.062 496.287L67.2649 697.365L85.2349 708.806C85.2349 708.806 35.8469 711.375 34.2419 709.759C32.6359 708.141 36.2679 697.063 36.2679 697.063L49.3609 496.287H112.062Z" fill="#FF9783"/>
<path d="M64.9652 392.563C40.3202 435.934 40.3672 516.624 40.3672 516.624H154.608C154.608 516.624 153.034 445.752 140.276 405.821L64.9652 392.563Z" fill="#242645"/>
<path d="M103.822 396.437L102.461 396.469L105.31 516.628L106.67 516.596L103.822 396.437Z" fill="#2F3470"/>
<path d="M103.308 421.871L102.968 420.553C121.882 415.645 127.729 401.407 127.785 401.263L129.05 401.763C128.992 401.911 122.92 416.781 103.308 421.871Z" fill="#2F3470"/>
<path d="M95.0349 275.338C95.0349 275.338 96.9159 280.165 107.172 280.165C114.336 280.165 117.036 276.41 117.036 276.41C117.036 276.41 119.674 278.776 147.897 315.817C153.873 323.659 152.583 340.58 142.595 355.212C140.232 369.899 139.35 387.018 140.277 405.822H58.5939C58.5939 405.822 57.1689 347.135 62.8169 315.129C66.1579 296.196 80.3549 281.145 95.0349 275.338Z" fill="#F9C5F9"/>
<path d="M238.371 231.114C244.263 225.973 258.888 208.275 260.392 208.825C261.895 209.376 256.833 215.668 258.152 215.889C259.47 216.11 267.916 206.955 269.271 207.905C271.108 209.194 261.957 218.107 261.957 218.107C261.957 218.107 272.467 208.844 273.737 210.423C274.637 211.542 266.941 218.98 264.357 222.191C267.6 219.067 273.456 214.628 274.367 215.808C275.268 216.979 270.137 222.154 266.417 226.33C268.983 223.941 273.885 219.847 274.776 220.898C275.665 221.946 264.065 235.402 252.645 247.64" fill="#FF9783"/>
<path d="M153.135 272.02C218.458 249.244 246.626 222.469 246.626 222.469L261.847 237.499C261.847 237.499 219.591 288.058 166.038 304.731" fill="#FF9783"/>
<path fill-rule="evenodd" clip-rule="evenodd" d="M116.812 286.283C126.325 275.794 155.192 268.844 155.192 268.844L171.025 306.006C171.025 306.006 160.187 310.528 143.656 315.475" fill="#F9C5F9"/>
<path fill-rule="evenodd" clip-rule="evenodd" d="M123.483 239.162C129.161 248.548 131.51 257.935 123.554 262.748C115.598 267.561 102.805 269.955 94.6705 256.592C88.9665 247.221 90.8385 235.695 98.7945 230.882C106.751 226.068 117.804 229.775 123.483 239.162Z" fill="#FF9783"/>
<path d="M116.87 241.563C117.133 242.515 117.885 243.637 118.825 243.603C119.091 243.593 119.29 243.43 119.374 243.183C119.925 241.562 116.321 239.574 116.87 241.563Z" fill="#242645"/>
<path d="M113.105 241.209C113.015 241.209 112.923 241.183 112.843 241.126C112.639 240.981 112.59 240.697 112.735 240.493C114.097 238.569 116.018 237.446 118.445 237.155C118.688 237.123 118.92 237.302 118.948 237.552C118.978 237.8 118.801 238.025 118.551 238.055C116.361 238.319 114.699 239.286 113.475 241.017C113.387 241.141 113.247 241.209 113.105 241.209Z" fill="#242645"/>
<path d="M125.644 249.862L120.38 252.492C120.38 252.492 122.238 257.034 125.082 256.185C127.46 255.475 125.644 249.862 125.644 249.862Z" fill="white"/>
<path fill-rule="evenodd" clip-rule="evenodd" d="M117.384 277.822C117.384 277.822 112.837 280.306 107.172 280.165C98.9541 279.96 95.0352 276.674 95.0352 276.674L100.455 253.519L120.38 254.973L117.384 277.822Z" fill="#FF9783"/>
<path fill-rule="evenodd" clip-rule="evenodd" d="M121.563 239.59C121.563 239.59 128.368 244.14 128.609 245.351C128.85 246.562 125.971 248.314 125.971 248.314" fill="#FF9783"/>
<path d="M102.525 224.418C101.791 224.79 99.2531 224.103 98.3311 224.104C97.0371 224.105 95.7421 224.199 94.4681 224.431C86.8811 225.815 81.216 232.094 77.644 238.553C75.298 242.795 73.327 247.507 69.058 250.198C59.675 256.114 47.3571 253.997 36.8451 257.536C26.1471 261.138 17.953 271.994 20.821 283.578C21.7601 287.371 23.7511 290.821 24.9241 294.548C27.4261 302.5 26.2561 311.756 31.0321 318.589C32.314 320.422 33.9671 321.972 35.7491 323.325C43.7381 329.393 54.6041 331.481 64.2731 328.806C73.9411 326.131 82.1901 318.755 85.9241 309.444C90.1691 298.859 88.8431 286.249 95.0361 276.673C97.9291 272.2 102.248 268.788 105.122 264.302C107.748 260.203 109.128 252.49 109.444 247.555C109.517 246.415 107.475 236.935 108.087 236.935C112.999 236.935 119.293 233.878 122.197 230.974C118.497 222.851 109.047 221.112 102.525 224.418Z" fill="#242645"/>
<path d="M107.83 248.791C107.83 248.791 104.976 246.814 103.101 249.616C100.676 253.239 106.514 257.816 109.324 258.028C112.134 258.24 112.062 255.188 112.062 255.188" fill="#FF9783"/>
</g>
<mask id="mask3_27_9283" style="mask-type:luminance" maskUnits="userSpaceOnUse" x="0" y="0" width="500" height="500">
<path d="M500 0H0V500H500V0Z" fill="white"/>
</mask>
<g mask="url(#mask3_27_9283)">
<path d="M451.835 416.654C450.995 424.072 445.036 445.166 446.284 446.049C447.533 446.931 449.726 439.539 450.616 440.455C451.505 441.371 448.9 452.974 450.382 453.522C452.391 454.265 454.424 442.24 454.424 442.24C454.424 442.24 452.855 455.523 454.784 455.663C456.151 455.762 457.814 445.681 458.934 441.907C458.242 446.15 457.935 453.159 459.356 453.233C460.765 453.306 462.045 446.466 463.303 441.278C462.82 444.59 462.265 450.662 463.575 450.792C464.881 450.921 469.151 434.505 472.563 418.893" fill="#FF9783"/>
<path d="M475.985 314.88C475.985 314.88 487.99 336.205 489.724 349.295C493.995 381.539 467.241 436.158 467.241 436.158C467.241 436.158 447.8 430.854 447.8 428.414C447.8 425.974 461.35 368.584 461.35 368.584L441.917 323.726" fill="#FF9783"/>
<path d="M417.609 244.853L420.217 268.897C420.217 268.897 405.8 281.121 393.044 267.427L394.603 251.6L417.609 244.853Z" fill="#FF9783"/>
<path d="M397.495 220.764C397.495 220.764 381.889 242.256 388.263 250.312C392.966 256.256 405.307 256.932 409.121 254.595C409.941 250.193 420.056 235.645 418.434 232.408C412.237 220.038 397.495 220.764 397.495 220.764Z" fill="#FF9783"/>
<path d="M421.787 224.482C421.283 216.356 413.271 213.978 397.892 214.895C395.834 215.018 392.17 213.62 391.218 215.449C389.967 217.854 389.745 222.72 392.161 224.91C393.773 226.372 394.852 226.688 396.972 227.183C399.759 227.834 402.598 230.488 401.116 233.406C400.728 234.17 399.808 235.467 400.39 236.097C400.685 236.416 401.676 236.768 402.06 236.973C403.167 237.565 403.097 239.248 402.407 240.297C401.717 241.346 402.026 242.509 401.332 243.555C399.688 246.032 401.637 250.597 404.195 252.113C406.458 253.453 413.88 255.691 419.312 252.874C424.024 250.431 426.854 243.783 426.892 231.83C426.907 227.245 423.499 224.17 421.787 224.482Z" fill="#262739"/>
<path d="M399.194 236.756C401.729 233.543 403.78 234.054 404.9 235.818C406.394 238.171 403.399 243.061 402.004 243.896C399.178 245.587 396.889 245.41 396.672 243.114" fill="#FF9783"/>
<path d="M392.942 231.836C392.217 232.44 391.538 233.535 391.938 234.34C392.051 234.568 392.271 234.677 392.52 234.652C394.146 234.493 394.456 230.575 392.942 231.836Z" fill="#30394D"/>
<path d="M395.818 231.695C395.356 230.707 393.995 229.848 392.927 229.469L393.36 228.244C394.62 228.691 396.327 229.719 396.995 231.143L395.818 231.695Z" fill="#30394D"/>
<path d="M393.117 243.298L389.553 241.392C389.553 241.392 387.213 245.77 388.872 246.694C390.705 247.715 393.117 243.298 393.117 243.298Z" fill="white"/>
<path d="M461.733 421.63C461.733 421.63 470.515 439.917 463.457 474.907C467.048 553.032 476.391 658.058 476.391 658.058L422.748 657.869C422.748 657.869 411.81 544.973 405.308 488.713C398.065 426.043 393.535 349.296 393.535 349.296" fill="#7612FA"/>
<path d="M430.762 657.932C430.652 656.804 419.749 544.397 413.323 488.787L414.612 488.638C421.041 544.26 431.946 656.677 432.054 657.807L430.762 657.932Z" fill="#203269"/>
<path d="M359.298 425.13C359.298 425.13 353.598 507.491 353.598 547.017C353.598 586.543 351.06 658.059 351.06 658.059H405.282L425.456 471.113C441.979 451.322 440.773 408.379 436.791 391.657L383.026 376.976L359.298 425.13Z" fill="#7612FA"/>
<path d="M415.025 573.836L413.733 573.697L424.832 470.835L424.972 470.679C438.507 455.588 438.664 436.351 438.664 436.158H439.963C439.963 436.354 439.804 455.957 426.079 471.39L415.025 573.836Z" fill="#203269"/>
<path d="M358.432 658.093L357.136 658.026L369.968 416.824L371.263 416.892L358.432 658.093Z" fill="#203269"/>
<path d="M406.254 437.958L406.229 439.257L432.566 439.784L432.592 438.485L406.254 437.958Z" fill="#203269"/>
<path d="M461.352 436.902L451.34 437.111L451.367 438.409L461.379 438.201L461.352 436.902Z" fill="#203269"/>
<path d="M313.587 299.675C306.235 291.357 286.508 259.733 284.29 260.231C282.073 260.73 288.046 270.517 286.148 270.586C284.252 270.655 274.041 256.22 271.959 257.309C269.137 258.786 280.385 273.011 280.385 273.011C280.385 273.011 275.98 266.968 273.903 268.957C272.431 270.366 273.209 273.325 276.258 278.319C274.212 275.762 272.281 275.311 270.783 276.805C269.299 278.288 270.769 281.013 272.599 283.768C271.155 281.963 269.048 281.056 268.507 282.936C267.799 285.396 273.768 298.162 287.886 318.98" fill="#FF9783"/>
<path d="M419.951 266.45C419.951 266.45 451.018 267.753 460.336 303.112C464.537 319.054 467.241 428.376 467.241 428.376L353.717 427.616C353.717 427.616 355.229 328.784 357.768 307.385C362.408 268.278 393.2 265.84 393.2 265.84C393.2 265.84 394.603 269.299 406.636 269.299C418.67 269.298 419.951 266.45 419.951 266.45Z" fill="#D800C1" fill-opacity="0.91"/>
<path d="M419.951 266.45C456.825 266.45 479.53 317.101 479.53 317.101L456.343 328.746" fill="#D800C1" fill-opacity="0.91"/>
<path d="M371.24 338.316C371.24 338.316 351.562 366.632 335.675 368.169C314.32 370.235 276.33 299.141 276.33 299.141L300.294 282.954L333.116 324.237L344.311 307.505" fill="#FF9783"/>
<path d="M393.2 265.84C361.452 267.586 338.214 314.881 338.214 314.881L375.389 341.565L396.488 314.042" fill="#D800C1" fill-opacity="0.91"/>
<path d="M391.558 316.819L373.564 340.199L374.593 340.991L392.586 317.61L391.558 316.819Z" fill="#301947"/>
<path d="M462.814 325.263C460.789 310.637 455.789 297.964 455.739 297.837L456.947 297.357C456.998 297.484 462.055 310.297 464.1 325.084L462.814 325.263Z" fill="#301947"/>
<path d="M391.601 233.643C391.601 233.643 386.488 236.099 386.744 237.037C387 237.974 388.534 240.242 388.534 240.242" fill="#FF9783"/>
</g>
</g>
<defs>
<clipPath id="clip0_27_9283">
<rect width="500" height="500" fill="white"/>
</clipPath>
</defs>
</svg>
