<svg width="500" height="502" viewBox="0 0 500 502" fill="none" xmlns="http://www.w3.org/2000/svg">
<path d="M500 383.977H0V384.227H500V383.977Z" fill="#AB53FF"/>
<path d="M111.667 392.386H78.5449V392.637H111.667V392.386Z" fill="#AB53FF"/>
<path d="M163.5 399.615H133.333V399.866H163.5V399.615Z" fill="#AB53FF"/>
<path d="M95.1045 401.694H56.8535V401.945H95.1045V401.694Z" fill="#AB53FF"/>
<path d="M449.901 401.147H434V401.398H449.901V401.147Z" fill="#AB53FF"/>
<path d="M430.792 401.147H391.471V401.398H430.792V401.147Z" fill="#AB53FF"/>
<path d="M280.333 392.261H250V392.512H280.333V392.261Z" fill="#AB53FF"/>
<path d="M356.762 392.261H284.667V392.512H356.762V392.261Z" fill="#AB53FF"/>
<path d="M237.014 339.273H43.915C40.768 339.273 38.207 336.706 38.207 333.552V61.479C38.207 58.3246 40.768 55.7576 43.915 55.7576H237.014C240.16 55.7576 242.721 58.3246 242.721 61.479V333.552C242.721 336.706 240.16 339.273 237.014 339.273ZM43.915 56.0092C40.905 56.0092 38.457 58.4629 38.457 61.48V333.553C38.457 336.57 40.905 339.024 43.915 339.024H237.014C240.023 339.024 242.471 336.57 242.471 333.553V61.479C242.471 58.4629 240.023 56.0082 237.014 56.0082L43.915 56.0092Z" fill="#AB53FF"/>
<path d="M453.31 339.273H260.212C257.065 339.273 254.505 336.706 254.505 333.552V61.479C254.505 58.3246 257.066 55.7576 260.212 55.7576H453.31C456.458 55.7576 459.018 58.3246 459.018 61.479V333.552C459.019 336.706 456.458 339.273 453.31 339.273ZM260.212 56.0092C257.203 56.0092 254.755 58.4629 254.755 61.48V333.553C254.755 336.57 257.203 339.024 260.212 339.024H453.31C456.32 339.024 458.768 336.57 458.768 333.553V61.479C458.768 58.4629 456.32 56.0082 453.31 56.0082L260.212 56.0092Z" fill="#AB53FF"/>
<path d="M204.908 243.672C204.908 243.672 203.974 270.913 168.157 270.913C132.34 270.913 131.406 243.672 131.406 243.672H204.908Z" fill="#F0F0F0"/>
<path d="M122.242 279.487H82.8096V375.1H122.242V279.487Z" fill="#F0F0F0"/>
<path d="M284.842 375.101H90.3809V383.977H284.842V375.101Z" fill="#F0F0F0"/>
<path d="M122.241 375.1H292.413V279.487H122.241V375.1Z" fill="#7F76B3"/>
<path d="M137.744 320.539H276.91V291.118H137.744V320.539Z" fill="#F0F0F0"/>
<path d="M137.744 358.34H276.91V328.919H137.744V358.34Z" fill="#F0F0F0"/>
<path d="M223.652 296.155H191C189.271 296.155 187.857 294.737 187.857 293.004C187.857 291.271 189.271 289.854 191 289.854H223.652C225.381 289.854 226.795 291.271 226.795 293.004C226.795 294.736 225.381 296.155 223.652 296.155Z" fill="#7F76B3"/>
<path d="M223.652 333.955H191C189.271 333.955 187.857 332.537 187.857 330.804C187.857 329.071 189.271 327.654 191 327.654H223.652C225.381 327.654 226.795 329.071 226.795 330.804C226.795 332.537 225.381 333.955 223.652 333.955Z" fill="#7F76B3"/>
<path d="M297.667 270.914H122.241V279.488H297.667V270.914Z" fill="#F0F0F0"/>
<path d="M77.2992 279.487H122.241V270.914H77.2992V279.487Z" fill="#9B23F4"/>
<path d="M422.506 86.1921H320.499V222.935H422.506V86.1921Z" fill="#9B23F4"/>
<path d="M430.303 86.1921H323.104V222.935H430.303V86.1921Z" fill="#7F76B3"/>
<path d="M421.319 95.1963H332.079V213.936H421.319V95.1963Z" fill="#8930FD"/>
<path d="M408.754 162.264C408.754 162.264 407.939 186.022 376.702 186.022C345.465 186.022 344.65 162.264 344.65 162.264H408.754Z" fill="#F0F0F0"/>
<path d="M362.526 143.639C365.84 143.639 368.526 140.947 368.526 137.625C368.526 134.304 365.84 131.611 362.526 131.611C359.213 131.611 356.526 134.304 356.526 137.625C356.526 140.947 359.213 143.639 362.526 143.639Z" fill="#F0F0F0"/>
<path d="M390.873 143.639C394.187 143.639 396.873 140.947 396.873 137.625C396.873 134.304 394.187 131.611 390.873 131.611C387.559 131.611 384.873 134.304 384.873 137.625C384.873 140.947 387.559 143.639 390.873 143.639Z" fill="#F0F0F0"/>
<path d="M367.153 304.535H331.084V383.977H367.153V304.535Z" fill="#9B23F4"/>
<path d="M367.152 383.977H430.604V304.535H367.152V383.977Z" fill="#7F76B3"/>
<path d="M427.281 383.977V307.866H370.477V383.977H427.281Z" fill="#9B23F4"/>
<path d="M384.819 383.977V307.866H370.477V383.977H384.819Z" fill="#9B23F4"/>
<path d="M429.081 326.983V306.841H369.371V326.983H429.081Z" fill="#7F76B3"/>
<path d="M424.577 324.839H373.876V308.986H424.577V324.839ZM374.876 323.837H423.577V309.988H374.876V323.837Z" fill="#9B23F4"/>
<path d="M401.813 316.938C401.813 318.369 400.655 319.53 399.227 319.53C397.799 319.53 396.641 318.369 396.641 316.938C396.641 315.506 397.799 314.345 399.227 314.345C400.655 314.345 401.813 315.506 401.813 316.938Z" fill="#9B23F4"/>
<path d="M375.071 304.535H359.846L364.357 271.096H375.071V304.535Z" fill="#9B23F4"/>
<path d="M397.408 304.535H368.56L363.19 265.396H392.037L397.408 304.535Z" fill="#F0F0F0"/>
<path d="M401.26 304.535H371.241L365.871 265.396H395.89L401.26 304.535Z" fill="#7F76B3"/>
<path d="M373.895 301.451L369.371 268.48H393.236L397.76 301.451H373.895Z" fill="#8930FD"/>
<path d="M380.013 292.021L378.139 278.365C378.002 277.365 378.777 276.472 379.785 276.472H385.473C386.303 276.472 387.006 277.087 387.119 277.911L388.993 291.567C389.13 292.567 388.355 293.459 387.347 293.459H381.659C380.828 293.459 380.126 292.845 380.013 292.021Z" fill="#7F76B3"/>
<path d="M279.641 76.8171H78.6865V221.418H279.641V76.8171Z" fill="#FAFAFA"/>
<path d="M268.205 221.419L217.092 76.8171H178.734L229.847 221.419H268.205Z" fill="#8930FD"/>
<path d="M165.061 221.419L113.948 76.8171H99.957L151.07 221.419H165.061Z" fill="#8930FD"/>
<path d="M69.1049 71.8455H289.222C289.713 71.8455 290.115 72.2484 290.115 72.7406C290.115 73.2327 289.713 73.6357 289.222 73.6357H69.1049C68.6139 73.6357 68.2119 73.2327 68.2119 72.7406C68.2129 72.2484 68.6139 71.8455 69.1049 71.8455Z" fill="#9B23F4"/>
<path d="M180.354 76.5063H177.973V221.728H180.354V76.5063Z" fill="#F0F0F0"/>
<path d="M177.974 76.5063H176.783V221.728H177.974V76.5063Z" fill="#9B23F4"/>
<path d="M77.2988 147.925V150.312H281.03V147.925H77.2988Z" fill="#F0F0F0"/>
<path d="M77.2989 220.423V77.8124V75.4248H79.6799H278.649H281.03V77.8124V220.423V222.811H278.649H79.6789H77.2979V220.423H77.2989ZM278.648 220.423V77.8124H79.6789V220.423H278.648Z" fill="#F0F0F0"/>
<path d="M77.2994 75.4248H76.1084V222.81H77.2994V75.4248Z" fill="#9B23F4"/>
<path opacity="0.5" d="M106.84 69.6572V239.471H63.8301L71.7181 69.6572H106.84Z" fill="#AB53FF"/>
<path opacity="0.5" d="M250.298 69.6572V239.471H293.308L285.42 69.6572H250.298Z" fill="#AB53FF"/>
<path d="M250 429.246C357.082 429.246 443.889 424.165 443.889 417.897C443.889 411.628 357.082 406.547 250 406.547C142.918 406.547 56.1113 411.628 56.1113 417.897C56.1113 424.165 142.918 429.246 250 429.246Z" fill="#7F76B3"/>
<path d="M239.021 404.114L246.773 402.028L244.017 383.477L236.265 385.563L239.021 404.114Z" fill="#FFC3BD"/>
<path d="M167.332 411.159H175.359L181.613 392.527H173.586L167.332 411.159Z" fill="#FFC3BD"/>
<path d="M176.431 410.228H166.645C166.317 410.228 166.033 410.457 165.962 410.777L164.376 417.929C164.212 418.671 164.793 419.373 165.551 419.36C168.699 419.305 170.997 419.12 174.963 419.12C177.403 419.12 184.76 419.375 188.129 419.375C191.424 419.375 191.938 416.036 190.559 415.733C184.374 414.377 179.714 412.506 177.734 410.723C177.377 410.401 176.911 410.228 176.431 410.228Z" fill="#263238"/>
<path d="M246.478 401.143L238.012 403.42C237.695 403.505 237.48 403.8 237.494 404.129L237.812 411.448C237.845 412.207 238.569 412.739 239.297 412.53C242.337 411.656 246.702 410.29 250.54 409.258C255.028 408.05 256.947 407.657 262.21 406.242C265.392 405.386 265.412 401.923 264.002 401.989C257.581 402.29 254.614 403.076 248.506 401.247C247.844 401.046 247.147 400.962 246.478 401.143Z" fill="#263238"/>
<path d="M214.91 164.292L223.452 178.762L227.735 185.979C229.184 188.363 230.618 190.746 232.087 193.091C232.294 193.436 232.467 193.663 232.507 193.734C232.553 193.812 232.372 193.669 231.905 193.607C231.441 193.518 230.926 193.702 230.884 193.766C230.807 193.843 231.01 193.79 231.277 193.596C231.831 193.201 232.599 192.386 233.307 191.475C234.025 190.547 234.716 189.486 235.39 188.38C236.746 186.162 237.994 183.743 239.194 181.278C240.415 178.83 241.545 176.246 242.645 173.763L248.444 175.41C247.389 181.261 245.955 186.859 243.549 192.55C242.937 193.971 242.241 195.389 241.404 196.834C240.542 198.278 239.592 199.75 238.03 201.249C237.238 201.991 236.27 202.77 234.887 203.398C233.55 204.037 231.565 204.397 229.713 204.028C227.854 203.67 226.425 202.765 225.409 201.915C224.383 201.051 223.658 200.168 223.051 199.355C219.563 194.694 216.303 189.945 213.202 185.113C210.088 180.276 207.149 175.402 204.343 170.336L214.91 164.292Z" fill="#FFC3BD"/>
<path d="M200.616 165.334C198.895 172.831 215.301 192.004 215.301 192.004L230.046 181.195C230.046 181.195 224.928 171.217 218.343 163.77C211.581 156.123 202.505 157.108 200.616 165.334Z" fill="#D800C1"/>
<path opacity="0.4" d="M200.616 165.334C198.895 172.831 215.301 192.004 215.301 192.004L230.046 181.195C230.046 181.195 224.928 171.217 218.343 163.77C211.581 156.123 202.505 157.108 200.616 165.334Z" fill="black"/>
<path opacity="0.2" d="M244.016 383.483L245.438 393.045L237.683 395.131L236.261 385.569L244.016 383.483Z" fill="black"/>
<path opacity="0.2" d="M173.583 392.533H181.613L178.385 402.137H170.355L173.583 392.533Z" fill="black"/>
<path d="M164.705 164.216C175.155 194.206 175.345 226.693 176.515 233.198C182.755 232.366 206.255 229.189 219.065 227.455C221.945 181.406 209.325 158.593 209.325 158.593C209.325 158.593 206.545 158.222 202.785 158.061C201.605 158.011 200.335 157.981 199.015 157.991C198.285 157.991 197.545 158.011 196.795 158.041C191.955 158.252 184.105 159.495 178.705 160.487C177.575 160.698 176.425 160.938 175.315 161.189C174.285 161.429 173.275 161.68 172.325 161.93C168.014 163.063 164.705 164.216 164.705 164.216Z" fill="#D800C1"/>
<path opacity="0.4" d="M164.705 164.216C175.155 194.206 175.345 226.693 176.515 233.198C182.755 232.366 206.255 229.189 219.065 227.455C221.945 181.406 209.325 158.593 209.325 158.593C209.325 158.593 206.545 158.222 202.785 158.061C201.605 158.011 200.335 157.981 199.015 157.991C198.285 157.991 197.545 158.011 196.795 158.041C191.955 158.252 184.105 159.495 178.705 160.487C177.575 160.698 176.425 160.938 175.315 161.189C174.285 161.429 173.275 161.68 172.325 161.93C168.014 163.063 164.705 164.216 164.705 164.216Z" fill="black"/>
<path opacity="0.2" d="M174.488 178.028C176.178 182.549 174.858 195.068 173.008 199.339C172.348 194.868 171.538 190.177 170.518 185.367L174.488 178.028Z" fill="black"/>
<path d="M246.755 177.776L253.955 172.743L245.596 166.792C245.596 166.792 240.785 169.705 242.328 175.356L246.755 177.776Z" fill="#FFC3BD"/>
<path d="M257.903 168.765L250.402 163.987L245.596 166.792L253.955 172.743L257.903 168.765Z" fill="#FFC3BD"/>
<path d="M177.755 139.829C179.68 145.509 182.256 156.043 178.708 160.485C182.295 163.209 186.919 166.292 193.862 165.601C200.805 164.911 198.957 160.31 196.794 158.042C190.096 157.366 189.614 152.516 190.135 147.831L177.755 139.829Z" fill="#FFC3BD"/>
<path opacity="0.2" d="M182.803 143.095L190.13 147.827C190.003 148.937 189.938 150.052 190.005 151.12C187.478 151.096 184.095 149.424 182.75 146.828C181.912 145.213 182.19 143.376 182.803 143.095Z" fill="black"/>
<path d="M193.115 121.899L195.415 133.672C201.031 121.899 193.115 121.899 193.115 121.899Z" fill="#263238"/>
<path d="M174.44 131.687C176.52 139.395 177.346 144.012 182.102 147.209C189.255 152.016 198.135 146.46 198.395 138.284C198.629 130.924 195.188 119.556 186.927 118.021C178.788 116.508 172.36 123.979 174.44 131.687Z" fill="#FFC3BD"/>
<path d="M174.045 135.969C170.822 132.74 167.156 126.057 170.044 124.108C168.155 121.213 170.47 117.235 177.754 115.557C185.039 113.879 195.238 114.765 198.044 116.145C200.009 117.111 194.211 118.65 194.211 118.65C194.211 118.65 200.711 118.707 200.6 121.268C200.489 123.83 178.1 124.683 178.1 124.683C178.1 124.683 183.197 131.543 174.045 135.969Z" fill="#263238"/>
<path d="M171.447 124.389C172.206 123.747 170.882 122.87 169.116 123.362C167.349 123.853 166.781 122.528 166.781 122.528C166.781 122.528 166.797 124.613 168.608 124.181C169.716 123.918 170.325 125.336 171.447 124.389Z" fill="#263238"/>
<path d="M172.13 139.74C173.603 141.307 175.661 142.047 177.426 142.071C180.081 142.107 180.731 139.563 179.427 137.407C178.253 135.466 175.456 133.109 173.064 134.105C170.706 135.085 170.446 137.948 172.13 139.74Z" fill="#FFC3BD"/>
<path d="M248.307 390.186L235.179 393.711C235.179 393.711 222.689 347.348 218.745 322.591C217.544 315.06 214.867 304.636 211.628 293.504C207.541 279.48 202.573 264.352 198.54 252.514C194.287 240.046 191.093 231.235 191.093 231.235L219.064 227.458C219.064 227.458 239.116 288.64 241.518 313.077C244.02 338.487 248.307 390.186 248.307 390.186Z" fill="#263238"/>
<path opacity="0.2" d="M211.628 293.504C207.541 279.48 202.573 264.352 198.54 252.514L201.052 246.031C208.555 253.884 212.08 279.458 211.628 293.504Z" fill="black"/>
<path d="M205.717 229.261C205.717 229.261 205.356 298.432 203.47 321.931C201.404 347.664 182.739 399.233 182.739 399.233H168.037C168.037 399.233 177.269 352.121 180.277 327.132C183.704 298.666 176.518 233.207 176.518 233.207L205.717 229.261Z" fill="#263238"/>
<path d="M183.921 400.366H166.609V395.182L185.961 394.845L183.921 400.366Z" fill="#D800C1"/>
<path d="M249.349 390.341L233.706 394.55L232.35 389.484L248.886 384.763L249.349 390.341Z" fill="#D800C1"/>
<path d="M185.914 131.435C186.044 132.07 186.486 132.516 186.901 132.431C187.315 132.346 187.546 131.76 187.415 131.125C187.284 130.489 186.843 130.043 186.428 130.129C186.014 130.215 185.783 130.799 185.914 131.435Z" fill="#263238"/>
<path d="M193.082 129.957C193.212 130.593 193.654 131.039 194.069 130.953C194.483 130.868 194.714 130.284 194.583 129.647C194.453 129.012 194.011 128.566 193.596 128.651C193.182 128.736 192.951 129.321 193.082 129.957Z" fill="#263238"/>
<path d="M191.655 130.743C191.655 130.743 193.849 134.113 195.8 135.555C194.893 136.836 192.887 136.75 192.887 136.75L191.655 130.743Z" fill="#ED847E"/>
<path d="M190.563 139C188.084 139.172 186.62 137.723 186.553 137.655C186.479 137.581 186.48 137.46 186.554 137.387C186.628 137.313 186.749 137.313 186.823 137.388C186.84 137.405 188.548 139.084 191.323 138.512C191.426 138.491 191.526 138.557 191.547 138.661C191.568 138.764 191.502 138.864 191.399 138.885C191.109 138.945 190.83 138.982 190.563 139Z" fill="#263238"/>
<path d="M184.015 129.569C183.952 129.573 183.887 129.562 183.826 129.533C183.636 129.443 183.556 129.215 183.646 129.025C184.551 127.122 186.288 126.869 186.362 126.859C186.57 126.831 186.761 126.977 186.789 127.187C186.817 127.394 186.671 127.586 186.464 127.615C186.407 127.623 185.054 127.834 184.332 129.354C184.271 129.482 184.147 129.56 184.015 129.569Z" fill="#263238"/>
<path d="M196.45 126.849C196.327 126.857 196.203 126.806 196.122 126.7C195.099 125.366 193.733 125.443 193.675 125.447C193.466 125.461 193.284 125.303 193.269 125.094C193.254 124.884 193.409 124.703 193.618 124.686C193.694 124.682 195.444 124.564 196.725 126.236C196.853 126.404 196.822 126.642 196.655 126.771C196.594 126.818 196.522 126.844 196.45 126.849Z" fill="#263238"/>
<path d="M179.085 411.635C178.343 411.635 177.542 411.48 176.985 411.345C176.911 411.327 176.854 411.266 176.842 411.191C176.83 411.115 176.864 411.039 176.929 410.998C177.221 410.815 179.811 409.221 180.698 409.678C180.836 409.749 181.004 409.901 181.024 410.217C181.051 410.643 180.918 410.982 180.631 411.225C180.267 411.53 179.696 411.635 179.085 411.635ZM177.536 411.078C178.899 411.351 179.947 411.302 180.386 410.932C180.579 410.77 180.663 410.544 180.644 410.241C180.635 410.092 180.575 410.043 180.524 410.017C180.063 409.779 178.588 410.467 177.536 411.078Z" fill="#D800C1"/>
<path d="M177.029 411.35C176.993 411.35 176.957 411.34 176.925 411.319C176.867 411.281 176.834 411.213 176.839 411.144C176.847 411.046 177.039 408.725 177.971 407.961C178.214 407.762 178.487 407.679 178.781 407.715C179.235 407.771 179.355 408.052 179.386 408.214C179.556 409.112 177.95 410.874 177.119 411.326C177.092 411.343 177.06 411.35 177.029 411.35ZM178.649 408.089C178.493 408.089 178.349 408.144 178.212 408.257C177.614 408.746 177.358 410.099 177.264 410.777C178.09 410.149 179.113 408.817 179.012 408.288C179.003 408.239 178.981 408.126 178.735 408.095C178.706 408.091 178.678 408.089 178.649 408.089Z" fill="#D800C1"/>
<path d="M247.528 402.011C247.458 402.006 247.395 401.962 247.367 401.896C247.335 401.821 247.354 401.735 247.414 401.68C247.717 401.402 250.41 398.981 251.492 399.253C251.701 399.305 251.851 399.447 251.926 399.661C252.052 400.02 252.017 400.353 251.821 400.65C251.173 401.633 248.869 401.925 247.553 402.011C247.545 402.012 247.536 402.012 247.528 402.011ZM251.324 399.611C250.685 399.565 249.168 400.666 248.096 401.585C249.884 401.409 251.14 400.991 251.504 400.44C251.632 400.246 251.652 400.033 251.567 399.789C251.534 399.694 251.483 399.645 251.399 399.623C251.376 399.617 251.351 399.613 251.324 399.611Z" fill="#D800C1"/>
<path d="M247.528 402.011C247.51 402.01 247.492 402.006 247.475 401.999C247.412 401.975 247.366 401.92 247.354 401.853C247.339 401.761 246.987 399.612 247.756 398.536C247.991 398.207 248.305 398.008 248.69 397.946C249.209 397.862 249.423 398.08 249.512 398.276C249.889 399.117 248.485 401.296 247.662 401.969C247.624 402 247.576 402.015 247.528 402.011ZM248.949 398.31C248.897 398.306 248.832 398.309 248.751 398.322C248.466 398.368 248.241 398.511 248.065 398.757C247.56 399.465 247.619 400.791 247.683 401.429C248.484 400.597 249.391 398.937 249.164 398.433C249.151 398.401 249.115 398.322 248.949 398.31Z" fill="#D800C1"/>
<path d="M174.523 172.914C173.561 178.015 172.535 183.175 171.508 188.291C170.465 193.412 169.442 198.529 168.459 203.62L168.102 205.526L168.013 206.003C167.985 206.144 167.942 206.413 167.958 206.248C167.941 206.153 167.967 205.825 167.814 205.31C167.682 204.803 167.254 204.044 166.716 203.587C166.189 203.121 165.751 202.969 165.527 202.918C165.062 202.842 165.296 202.964 165.58 202.973C166.226 203.026 167.329 202.882 168.413 202.671C169.52 202.471 170.691 202.181 171.87 201.857C176.614 200.556 181.548 198.749 186.405 197.067L189.253 202.391C187.017 204.018 184.767 205.457 182.414 206.843C180.068 208.227 177.653 209.514 175.083 210.681C173.791 211.256 172.467 211.806 171.037 212.299C169.586 212.773 168.108 213.219 166.126 213.424C165.103 213.49 163.997 213.59 162.274 213.113C161.427 212.861 160.385 212.412 159.372 211.499C158.347 210.595 157.59 209.234 157.298 208.091C156.985 206.938 156.976 205.94 157.039 205.191L157.162 203.954L157.374 201.949C157.974 196.618 158.733 191.343 159.597 186.096C160.473 180.844 161.455 175.654 162.61 170.427L174.523 172.914Z" fill="#FFC3BD"/>
<path d="M162.001 166.191C156.761 171.811 156.289 189.083 156.289 189.083L171.467 196.246C171.467 196.246 176.383 185.28 176.543 175.338C176.723 164.072 167.277 160.532 162.001 166.191Z" fill="#D800C1"/>
<path opacity="0.4" d="M162.001 166.191C156.761 171.811 156.289 189.083 156.289 189.083L171.467 196.246C171.467 196.246 176.383 185.28 176.543 175.338C176.723 164.072 167.277 160.532 162.001 166.191Z" fill="black"/>
<path d="M185.796 197.217L192.901 193.218L193.733 203.461C193.733 203.461 186.93 205.519 185.44 202.028L185.796 197.217Z" fill="#FFC3BD"/>
<path d="M200.26 193.218L202.989 198.641L193.734 203.461L192.902 193.218H200.26Z" fill="#FFC3BD"/>
<path d="M293.374 199.682C293.412 200.441 293.416 200.937 293.414 201.542C293.401 202.119 293.374 202.689 293.34 203.257C293.265 204.392 293.154 205.519 292.992 206.643C292.651 208.888 292.123 211.122 291.358 213.32C290.603 215.517 289.577 217.668 288.286 219.702C287.949 220.204 287.615 220.705 287.242 221.187C287.058 221.43 286.88 221.673 286.681 221.907L286.008 222.71C285.531 223.282 284.488 224.183 283.019 224.444C282.313 224.572 281.596 224.532 281.025 224.398C280.467 224.27 279.986 224.062 279.651 223.875C278.925 223.474 278.508 223.091 278.161 222.752C277.801 222.401 277.555 222.091 277.319 221.786C276.427 220.584 275.902 219.547 275.392 218.511C274.896 217.477 274.464 216.475 274.078 215.465C273.308 213.45 272.631 211.462 272.039 209.456C270.831 205.453 269.872 201.454 269.092 197.356L273.414 196.066C274.999 199.761 276.615 203.492 278.251 207.119C279.088 208.925 279.916 210.723 280.811 212.423C281.263 213.267 281.703 214.105 282.169 214.866C282.622 215.62 283.129 216.35 283.507 216.74C283.593 216.827 283.679 216.905 283.692 216.9C283.71 216.913 283.692 216.854 283.417 216.688C283.302 216.628 283.064 216.506 282.752 216.437C282.429 216.359 281.97 216.325 281.513 216.409C280.545 216.573 279.944 217.162 279.782 217.338C279.682 217.464 279.776 217.337 279.787 217.316L279.872 217.189L280.042 216.935C280.159 216.77 280.262 216.589 280.369 216.415C280.588 216.07 280.78 215.699 280.978 215.335C281.756 213.863 282.368 212.259 282.849 210.577C283.325 208.895 283.677 207.139 283.908 205.352C284.032 204.461 284.128 203.561 284.189 202.663C284.217 202.215 284.24 201.768 284.251 201.327C284.272 200.914 284.28 200.392 284.281 200.134L293.374 199.682Z" fill="#7F3E3B"/>
<path d="M289.165 189.748C281.057 195.97 281.383 207.693 281.383 207.693L295.885 211.169C295.885 211.169 300.334 199.381 298.53 195.065C296.646 190.561 293.728 186.247 289.165 189.748Z" fill="#263238"/>
<path opacity="0.2" d="M294.019 198.341C292.329 199.975 290.319 205.127 289.839 209.718L295.889 211.172C295.889 211.172 298.679 203.764 298.939 198.542C298.072 197.229 296.197 196.429 294.019 198.341Z" fill="black"/>
<path d="M274.822 194.083L270.338 189.13L265.743 195.316C265.743 195.316 269.173 199.986 273.922 198.863L274.822 194.083Z" fill="#7F3E3B"/>
<path d="M266.637 185.172L263.831 187.657L265.744 195.316L270.339 189.13L266.637 185.172Z" fill="#7F3E3B"/>
<path d="M330.729 410.939L322.462 411.738L316.701 392.28L324.968 391.481L330.729 410.939Z" fill="#7F3E3B"/>
<path d="M388.69 382.173L382.565 387.938L369.34 373.371L375.466 367.605L388.69 382.173Z" fill="#7F3E3B"/>
<path d="M380.736 386.008L385.339 377.695C385.507 377.392 385.852 377.264 386.17 377.385L393.256 380.088C393.991 380.369 394.31 381.314 393.912 382.005C392.257 384.876 391.314 386.178 389.29 389.833C388.045 392.083 385.62 397.241 383.9 400.346C382.218 403.384 379.025 401.913 379.463 400.465C381.43 393.974 381.06 390.361 380.505 387.497C380.405 386.982 380.491 386.451 380.736 386.008Z" fill="#263238"/>
<path d="M321.02 409.212H331.036C331.4 409.212 331.729 409.466 331.827 409.822L334.005 417.766C334.231 418.59 333.626 419.348 332.783 419.356C329.253 419.388 327.58 419.372 323.175 419.372C320.465 419.372 313.455 419.372 309.713 419.372C306.053 419.372 305.287 415.663 306.802 415.327C313.592 413.821 317.506 411.744 319.601 409.762C319.979 409.404 320.486 409.212 321.02 409.212Z" fill="#263238"/>
<path opacity="0.2" d="M316.704 392.286L319.672 402.316H328.18L324.975 391.486L316.704 392.286Z" fill="black"/>
<path opacity="0.2" d="M375.471 367.608L369.343 373.375L376.162 380.881L382.29 375.115L375.471 367.608Z" fill="black"/>
<path d="M291.613 188.543C291.613 188.543 287.948 190.16 300.243 238.937C313.799 237.761 327.809 236.547 334.406 235.975C332.63 222.088 331.872 213.495 336.05 184.317C336.05 184.317 328.757 183.377 321.378 183.659C315.605 183.879 310.879 184.104 305.865 185.004C299.255 186.192 291.613 188.543 291.613 188.543Z" fill="#263238"/>
<path opacity="0.2" d="M330.409 197.229C328.939 200.356 329.489 210.821 333.019 214.479C333.129 210.259 333.469 205.408 334.119 199.414C333.199 198.151 331.979 197.319 330.409 197.229Z" fill="black"/>
<path d="M309.503 195.29C309.439 196.014 309.127 196.577 308.806 196.549C308.485 196.52 308.277 195.911 308.341 195.187C308.405 194.463 308.717 193.9 309.038 193.928C309.359 193.956 309.567 194.567 309.503 195.29Z" fill="#8930FD"/>
<path d="M320.767 183.077L309.514 191.179C309.514 191.179 313.485 195.269 315.268 200.822C322.663 194.73 328.434 184.86 320.767 183.077Z" fill="#8930FD"/>
<path d="M306.51 184.442C300.635 185.945 300.006 194.809 304.061 199.441C305.643 193.724 308.783 191.523 308.783 191.523L306.51 184.442Z" fill="#8930FD"/>
<path d="M299.322 148.246C297.072 148.038 296.405 150.153 297.114 152.252C298.147 155.313 294.616 161.236 291.406 164.785C286.739 169.946 295.202 180.21 305.286 176.674C316.941 172.588 323.88 183.967 330.467 175.088C335.209 168.695 327.703 163.074 329.74 154.495C330.959 149.364 328.71 142.245 320.83 142.677C313.492 143.08 311.67 134.798 304.545 137.053C297.42 139.308 299.322 148.246 299.322 148.246Z" fill="#263238"/>
<path d="M318.33 166.284C317.783 171.372 317.598 180.624 321.378 183.659C321.378 183.659 317.34 187.79 309.175 192.349C303.235 188.235 305.865 185.004 305.865 185.004C311.316 183.189 310.815 179.062 309.51 175.259L318.33 166.284Z" fill="#7F3E3B"/>
<path opacity="0.2" d="M314.735 169.947L309.515 175.255C309.827 176.155 310.088 177.072 310.231 177.973C312.331 177.481 315.37 175.294 315.404 173.043C315.42 171.92 314.961 170.449 314.735 169.947Z" fill="black"/>
<path d="M322.795 158.335C320.678 166.461 319.955 169.946 314.982 173.352C307.502 178.474 298.007 174.091 297.659 165.494C297.346 157.756 300.861 145.766 309.536 144.075C318.083 142.41 324.913 150.208 322.795 158.335Z" fill="#7F3E3B"/>
<path d="M303.78 145.6C298.433 149.248 311.039 152.776 314.655 152.776C313.405 151.99 312.459 149.777 312.459 149.777C312.459 149.777 317.822 153.002 317.711 155.983C317.625 158.281 316.864 163.267 320.864 162.724C324.864 162.181 326.591 151.866 323.831 148.649C321.072 145.434 312.368 139.742 303.78 145.6Z" fill="#263238"/>
<path d="M323.465 165.227C322.668 166.774 321.232 167.807 319.865 168.22C317.809 168.841 316.738 167.007 317.274 165.04C317.756 163.269 319.407 160.812 321.488 161.053C323.538 161.291 324.377 163.459 323.465 165.227Z" fill="#7F3E3B"/>
<path d="M300.244 238.937C300.244 238.937 288.685 290.189 296.401 326.322C301.569 350.522 316.09 399.408 316.09 399.408L330.661 399.032C330.661 399.032 320.669 347.729 317.752 327.554C312.763 293.041 325.26 236.768 325.26 236.768L300.244 238.937Z" fill="#D800C1"/>
<path opacity="0.2" d="M313.572 249.285L320.858 260.804C319.004 272.747 317.16 287.686 316.689 302.061C306.443 283.674 311.294 259.02 313.572 249.285Z" fill="black"/>
<path d="M314.036 400.165L332.036 399.705L330.995 394.161L312.629 395.034L314.036 400.165Z" fill="#263238"/>
<path d="M307.713 238.391C307.713 238.391 314.494 292.744 329.192 322.417C341.064 346.385 372.744 380.504 372.744 380.504L380.844 372.141C380.844 372.141 359.446 335.06 350.622 319.139C328.987 280.099 346.668 250.309 334.406 235.975L307.713 238.391Z" fill="#D800C1"/>
<path d="M371.924 381.624L382.377 371.411L378.909 366.682L367.824 377.772L371.924 381.624Z" fill="#263238"/>
<path d="M334.744 233.921L336.549 236.853C336.689 237.081 336.429 237.347 336.034 237.381L300.207 240.488C299.899 240.515 299.631 240.385 299.595 240.193L299.022 237.155C298.982 236.944 299.234 236.742 299.571 236.713L334.166 233.714C334.42 233.691 334.654 233.775 334.744 233.921Z" fill="#D800C1"/>
<path opacity="0.3" d="M334.744 233.921L336.549 236.853C336.689 237.081 336.429 237.347 336.034 237.381L300.207 240.488C299.899 240.515 299.631 240.385 299.595 240.193L299.022 237.155C298.982 236.944 299.234 236.742 299.571 236.713L334.166 233.714C334.42 233.691 334.654 233.775 334.744 233.921Z" fill="#8930FD"/>
<path d="M330.433 238.201L331.36 238.121C331.544 238.105 331.677 237.998 331.654 237.882L330.876 233.938C330.853 233.823 330.684 233.742 330.499 233.758L329.573 233.838C329.388 233.854 329.256 233.961 329.279 234.077L330.057 238.022C330.079 238.136 330.248 238.217 330.433 238.201Z" fill="#D800C1"/>
<path d="M302.84 240.594L303.766 240.514C303.951 240.498 304.083 240.39 304.06 240.275L303.282 236.331C303.259 236.216 303.09 236.134 302.905 236.15L301.979 236.231C301.794 236.247 301.662 236.354 301.685 236.469L302.463 240.414C302.486 240.528 302.655 240.61 302.84 240.594Z" fill="#D800C1"/>
<path d="M316.636 239.397L317.563 239.317C317.748 239.301 317.88 239.193 317.857 239.078L317.079 235.134C317.056 235.019 316.887 234.937 316.702 234.953L315.775 235.034C315.59 235.05 315.458 235.157 315.481 235.272L316.259 239.216C316.282 239.332 316.452 239.413 316.636 239.397Z" fill="#D800C1"/>
<path d="M309.071 158.056C308.94 158.726 308.479 159.199 308.042 159.113C307.605 159.027 307.358 158.414 307.489 157.745C307.62 157.075 308.081 156.602 308.518 156.688C308.954 156.773 309.202 157.387 309.071 158.056Z" fill="#263238"/>
<path d="M301.518 156.568C301.387 157.238 300.926 157.711 300.489 157.625C300.052 157.538 299.805 156.926 299.936 156.256C300.067 155.587 300.528 155.114 300.965 155.2C301.401 155.285 301.649 155.898 301.518 156.568Z" fill="#263238"/>
<path d="M301.15 155.275L299.636 154.494C299.636 154.494 300.213 155.915 301.15 155.275Z" fill="#263238"/>
<path d="M304.115 158.237C304.115 158.237 302.416 160.897 300.895 162.042C301.615 163.041 303.189 162.959 303.189 162.959L304.115 158.237Z" fill="#630F0F"/>
<path d="M306.277 166.153C308.643 166.153 310.018 164.768 310.084 164.7C310.148 164.634 310.147 164.529 310.081 164.465C310.016 164.4 309.911 164.401 309.846 164.468C309.828 164.486 308.032 166.282 305.093 165.701C304.999 165.68 304.915 165.743 304.898 165.832C304.88 165.922 304.939 166.01 305.029 166.027C305.471 166.116 305.888 166.153 306.277 166.153Z" fill="#263238"/>
<path d="M313.608 155.459C313.666 155.459 313.725 155.443 313.78 155.411C313.937 155.316 313.987 155.111 313.892 154.953C312.766 153.087 310.957 153.004 310.881 153.001C310.687 153.008 310.545 153.139 310.539 153.322C310.532 153.506 310.675 153.66 310.858 153.668C310.921 153.67 312.391 153.75 313.324 155.299C313.385 155.401 313.495 155.459 313.608 155.459Z" fill="#263238"/>
<path d="M299.421 152.777C299.476 152.777 299.531 152.763 299.582 152.735C301.172 151.844 302.516 152.533 302.529 152.54C302.692 152.626 302.893 152.562 302.978 152.4C303.063 152.237 303.001 152.036 302.839 151.949C302.771 151.913 301.158 151.087 299.259 152.152C299.099 152.242 299.041 152.445 299.131 152.605C299.191 152.716 299.304 152.777 299.421 152.777Z" fill="#263238"/>
<path d="M338.997 192.504C341.174 196.429 343.081 200.332 344.775 204.515C345.622 206.606 346.397 208.738 347.037 211.082C347.354 212.27 347.643 213.483 347.778 214.997C347.834 215.764 347.888 216.606 347.664 217.823L347.552 218.304C347.5 218.486 347.442 218.666 347.38 218.844C347.311 219.033 347.217 219.245 347.125 219.438C347.033 219.628 346.998 219.673 346.93 219.796C346.695 220.214 346.416 220.627 346.102 221.013C344.846 222.604 343.024 223.604 341.438 224.028C339.83 224.475 338.37 224.531 337.031 224.467C334.352 224.305 332.042 223.67 329.834 222.924C325.43 221.389 321.542 219.32 317.747 216.841L319.867 212.852C323.71 214.284 327.774 215.575 331.635 216.372C333.561 216.755 335.492 216.997 337.112 216.897C337.915 216.861 338.621 216.712 339.063 216.514C339.519 216.304 339.615 216.133 339.67 216.008C339.687 215.972 339.702 215.932 339.718 215.875C339.713 215.88 339.751 215.811 339.712 215.877C339.671 215.946 339.636 216.036 339.611 216.099C339.588 216.148 339.569 216.199 339.556 216.253C339.543 216.286 339.533 216.31 339.527 216.34C339.483 216.494 339.494 216.249 339.428 215.951C339.309 215.327 339.058 214.449 338.764 213.577C338.156 211.804 337.345 209.932 336.508 208.067C334.802 204.351 332.893 200.537 331.011 196.882L338.997 192.504Z" fill="#7F3E3B"/>
<path d="M321.336 214.373L318.003 207.594L313.449 213.48C313.449 213.48 316.235 217.587 319.742 217.449L321.336 214.373Z" fill="#7F3E3B"/>
<path d="M314.403 205.637L310.081 210.419L313.45 213.48L318.004 207.593L314.403 205.637Z" fill="#7F3E3B"/>
<path d="M336.05 184.317C340.238 185.059 347.1 200.089 347.1 200.089L333.6 209.167C333.6 209.167 327.152 197.491 327.6 192.021C327.981 187.378 330.716 183.372 336.05 184.317Z" fill="#263238"/>
<path d="M379.121 390.478C379.23 390.478 379.339 390.459 379.447 390.423C380.449 390.084 381.106 388.226 381.408 387.148C381.426 387.084 381.404 387.016 381.353 386.974C381.301 386.931 381.23 386.924 381.171 386.955C380.866 387.116 378.19 388.55 378.102 389.609C378.089 389.77 378.128 390.005 378.388 390.201C378.631 390.385 378.877 390.478 379.121 390.478ZM380.974 387.444C380.51 388.93 379.91 389.914 379.341 390.107C379.095 390.189 378.85 390.133 378.589 389.936C378.438 389.821 378.429 389.711 378.435 389.637C378.488 388.986 380.056 387.966 380.974 387.444Z" fill="#D800C1"/>
<path d="M378.708 387.863C379.658 387.863 380.823 387.559 381.335 387.245C381.385 387.214 381.416 387.159 381.414 387.1C381.413 387.041 381.38 386.987 381.328 386.958C381.239 386.907 379.119 385.74 377.979 386.146C377.681 386.251 377.471 386.45 377.354 386.738C377.173 387.186 377.371 387.447 377.506 387.561C377.76 387.777 378.204 387.863 378.708 387.863ZM380.882 387.102C379.975 387.489 378.218 387.727 377.721 387.307C377.638 387.237 377.557 387.123 377.662 386.863C377.742 386.665 377.882 386.533 378.089 386.46C378.867 386.183 380.28 386.805 380.882 387.102Z" fill="#D800C1"/>
<path d="M316.576 410.836C317.538 410.836 318.584 410.649 319.31 410.488C319.379 410.472 319.431 410.414 319.439 410.344C319.447 410.272 319.409 410.204 319.344 410.174C318.932 409.98 315.299 408.297 314.383 408.918C314.266 408.997 314.13 409.151 314.146 409.433C314.168 409.825 314.335 410.141 314.641 410.373C315.096 410.717 315.809 410.836 316.576 410.836ZM318.738 410.265C317.659 410.468 315.664 410.731 314.842 410.108C314.614 409.935 314.496 409.708 314.479 409.415C314.471 409.28 314.524 409.226 314.57 409.195C315.082 408.846 317.23 409.6 318.738 410.265Z" fill="#D800C1"/>
<path d="M319.274 410.492C319.312 410.492 319.351 410.478 319.381 410.452C319.428 410.412 319.449 410.349 319.436 410.287C319.401 410.134 318.577 406.543 316.605 406.771C316.111 406.83 315.976 407.076 315.95 407.271C315.827 408.186 318.118 410.03 319.212 410.478C319.231 410.488 319.252 410.492 319.274 410.492ZM316.783 407.095C318.043 407.095 318.777 409.185 319.021 410.023C317.837 409.401 316.2 407.903 316.279 407.318C316.285 407.275 316.302 407.145 316.645 407.104C316.691 407.098 316.738 407.095 316.783 407.095Z" fill="#D800C1"/>
<path d="M308.703 156.763L307.189 155.983C307.189 155.983 307.766 157.403 308.703 156.763Z" fill="#263238"/>
<path d="M253.852 126.82L253.278 126C255.866 124.18 258.525 122.453 261.18 120.867L261.692 121.728C259.058 123.301 256.42 125.014 253.852 126.82ZM219.237 92.1002C217.993 91.3614 216.726 90.6557 215.469 90.0012L215.93 89.1111C217.203 89.7747 218.487 90.4894 219.746 91.2371L219.237 92.1002ZM212.443 88.5077C207.343 86.1341 202.015 84.3689 196.605 83.2613L196.805 82.28C202.291 83.4027 207.694 85.1929 212.864 87.5996L212.443 88.5077Z" fill="#D800C1"/>
<path d="M322.345 111.558C292.783 105.506 266.506 120.502 252.681 130.754C243.973 115.89 225.667 91.7685 196.104 85.7172H196.103C169.795 80.3325 144.03 97.4037 138.658 123.769C136.056 136.541 138.572 149.565 145.741 160.44C152.911 171.316 163.877 178.741 176.619 181.349C181.329 182.314 185.954 182.744 190.46 182.744C214.236 182.744 234.66 170.774 246.283 162.155C254.991 177.019 273.297 201.14 302.86 207.191C306.133 207.862 309.398 208.184 312.616 208.184C335.261 208.184 355.602 192.225 360.305 169.14C365.678 142.773 348.648 116.942 322.345 111.558ZM180.623 161.707C173.115 160.171 166.654 155.795 162.429 149.386C158.204 142.978 156.722 135.305 158.255 127.779C161.026 114.176 173.011 104.774 186.355 104.774C188.251 104.774 190.175 104.965 192.104 105.358H192.103C216.071 110.265 231.032 132.759 237.104 143.918C227.144 151.806 204.591 166.614 180.623 161.707ZM340.711 165.127C337.546 180.663 322.361 190.725 306.863 187.548C282.895 182.642 267.934 160.147 261.861 148.988C271.823 141.102 294.381 126.296 318.343 131.199C333.842 134.372 343.877 149.593 340.711 165.127Z" fill="#D800C1"/>
</svg>
