<svg width="1440" height="416" viewBox="0 0 1440 416" fill="none" xmlns="http://www.w3.org/2000/svg">
<rect y="250.493" width="1440" height="165.367" fill="url(#paint0_linear_79_2912)" fill-opacity="0.7"/>
<path d="M0 3.20138L24 20.8651C48 38.5288 96 73.8562 144 85.6688C192 97.0398 240 86 288 73.8562C336 61.7124 384 50.6726 432 73.8562C480 97.0398 528 156.655 576 179.838C624 203.022 672 191.982 720 162.175C768 132.367 816 86 864 79.7073C912 73.8562 960 109.184 1008 109.184C1056 109.184 1104 73.8562 1152 44.3799C1200 15.3452 1248 -8.94242 1296 3.20138C1344 15.3452 1392 61.7124 1416 85.6688L1440 109.184V250.493H1416C1392 250.493 1344 250.493 1296 250.493C1248 250.493 1200 250.493 1152 250.493C1104 250.493 1056 250.493 1008 250.493C960 250.493 912 250.493 864 250.493C816 250.493 768 250.493 720 250.493C672 250.493 624 250.493 576 250.493C528 250.493 480 250.493 432 250.493C384 250.493 336 250.493 288 250.493C240 250.493 192 250.493 144 250.493C96 250.493 48 250.493 24 250.493H0V3.20138Z" fill="url(#paint1_linear_79_2912)" fill-opacity="0.7"/>
<defs>
<linearGradient id="paint0_linear_79_2912" x1="0" y1="333.177" x2="1440" y2="333.177" gradientUnits="userSpaceOnUse">
<stop stop-color="#F64886"/>
<stop offset="0.0625" stop-color="#F64886"/>
<stop offset="0.125" stop-color="#F64986"/>
<stop offset="0.1875" stop-color="#F64D85"/>
<stop offset="0.25" stop-color="#F65385"/>
<stop offset="0.3125" stop-color="#F65D83"/>
<stop offset="0.375" stop-color="#F76D82"/>
<stop offset="0.4375" stop-color="#F7837F"/>
<stop offset="0.5" stop-color="#F8A07C"/>
<stop offset="0.5625" stop-color="#F8BD78"/>
<stop offset="0.625" stop-color="#F8D375"/>
<stop offset="0.6875" stop-color="#F9E374"/>
<stop offset="0.75" stop-color="#F9ED72"/>
<stop offset="0.8125" stop-color="#F9F372"/>
<stop offset="0.875" stop-color="#F9F771"/>
<stop offset="0.9375" stop-color="#F9F871"/>
<stop offset="1" stop-color="#F9F871"/>
</linearGradient>
<linearGradient id="paint1_linear_79_2912" x1="0" y1="125.247" x2="1440" y2="125.247" gradientUnits="userSpaceOnUse">
<stop stop-color="#F64886"/>
<stop offset="0.0625" stop-color="#F64886"/>
<stop offset="0.125" stop-color="#F64986"/>
<stop offset="0.1875" stop-color="#F64D85"/>
<stop offset="0.25" stop-color="#F65385"/>
<stop offset="0.3125" stop-color="#F65D83"/>
<stop offset="0.375" stop-color="#F76D82"/>
<stop offset="0.4375" stop-color="#F7837F"/>
<stop offset="0.5" stop-color="#F8A07C"/>
<stop offset="0.5625" stop-color="#F8BD78"/>
<stop offset="0.625" stop-color="#F8D375"/>
<stop offset="0.6875" stop-color="#F9E374"/>
<stop offset="0.75" stop-color="#F9ED72"/>
<stop offset="0.8125" stop-color="#F9F372"/>
<stop offset="0.875" stop-color="#F9F771"/>
<stop offset="0.9375" stop-color="#F9F871"/>
<stop offset="1" stop-color="#F9F871"/>
</linearGradient>
</defs>
</svg>
