<svg width="1903" height="613" viewBox="0 0 1903 613" fill="none" xmlns="http://www.w3.org/2000/svg">
<rect y="369" width="1903" height="243.76" fill="url(#paint0_linear_35_19)" fill-opacity="0.7"/>
<path d="M0 4.71899L31.7167 30.7562C63.4333 56.7934 126.867 108.868 190.3 126.28C253.733 143.042 317.167 126.768 380.6 108.868C444.033 90.9672 507.467 74.694 570.9 108.868C634.333 143.042 697.767 230.917 761.2 265.091C824.633 299.265 888.067 282.992 951.5 239.054C1014.93 195.116 1078.37 126.768 1141.8 117.493C1205.23 108.868 1268.67 160.942 1332.1 160.942C1395.53 160.942 1458.97 108.868 1522.4 65.4182C1585.83 22.6196 1649.27 -13.1816 1712.7 4.71899C1776.13 22.6196 1839.57 90.9672 1871.28 126.28L1903 160.942V369.24H1871.28C1839.57 369.24 1776.13 369.24 1712.7 369.24C1649.27 369.24 1585.83 369.24 1522.4 369.24C1458.97 369.24 1395.53 369.24 1332.1 369.24C1268.67 369.24 1205.23 369.24 1141.8 369.24C1078.37 369.24 1014.93 369.24 951.5 369.24C888.067 369.24 824.633 369.24 761.2 369.24C697.767 369.24 634.333 369.24 570.9 369.24C507.467 369.24 444.033 369.24 380.6 369.24C317.167 369.24 253.733 369.24 190.3 369.24C126.867 369.24 63.4333 369.24 31.7167 369.24H0V4.71899Z" fill="url(#paint1_linear_35_19)" fill-opacity="0.7"/>
<defs>
<linearGradient id="paint0_linear_35_19" x1="0" y1="490.88" x2="1903" y2="490.88" gradientUnits="userSpaceOnUse">
<stop stop-color="#F64886"/>
<stop offset="0.0625" stop-color="#F64886"/>
<stop offset="0.125" stop-color="#F64986"/>
<stop offset="0.1875" stop-color="#F64D85"/>
<stop offset="0.25" stop-color="#F65385"/>
<stop offset="0.3125" stop-color="#F65D83"/>
<stop offset="0.375" stop-color="#F76D82"/>
<stop offset="0.4375" stop-color="#F7837F"/>
<stop offset="0.5" stop-color="#F8A07C"/>
<stop offset="0.5625" stop-color="#F8BD78"/>
<stop offset="0.625" stop-color="#F8D375"/>
<stop offset="0.6875" stop-color="#F9E374"/>
<stop offset="0.75" stop-color="#F9ED72"/>
<stop offset="0.8125" stop-color="#F9F372"/>
<stop offset="0.875" stop-color="#F9F771"/>
<stop offset="0.9375" stop-color="#F9F871"/>
<stop offset="1" stop-color="#F9F871"/>
</linearGradient>
<linearGradient id="paint1_linear_35_19" x1="0" y1="184.62" x2="1903" y2="184.62" gradientUnits="userSpaceOnUse">
<stop stop-color="#F64886"/>
<stop offset="0.0625" stop-color="#F64886"/>
<stop offset="0.125" stop-color="#F64986"/>
<stop offset="0.1875" stop-color="#F64D85"/>
<stop offset="0.25" stop-color="#F65385"/>
<stop offset="0.3125" stop-color="#F65D83"/>
<stop offset="0.375" stop-color="#F76D82"/>
<stop offset="0.4375" stop-color="#F7837F"/>
<stop offset="0.5" stop-color="#F8A07C"/>
<stop offset="0.5625" stop-color="#F8BD78"/>
<stop offset="0.625" stop-color="#F8D375"/>
<stop offset="0.6875" stop-color="#F9E374"/>
<stop offset="0.75" stop-color="#F9ED72"/>
<stop offset="0.8125" stop-color="#F9F372"/>
<stop offset="0.875" stop-color="#F9F771"/>
<stop offset="0.9375" stop-color="#F9F871"/>
<stop offset="1" stop-color="#F9F871"/>
</linearGradient>
</defs>
</svg>